G04 EAGLE Gerber RS-274X export*
G75*
%MOMM*%
%FSLAX34Y34*%
%LPD*%
%INBottom Copper*%
%IPPOS*%
%AMOC8*
5,1,8,0,0,1.08239X$1,22.5*%
G01*
%ADD10C,0.304800*%
%ADD11C,1.879600*%
%ADD12C,1.320800*%
%ADD13C,0.609600*%
%ADD14C,1.651000*%
%ADD15C,0.756400*%


D10*
X1014476Y814324D02*
X1014476Y849376D01*
X1002792Y829903D01*
X991108Y849376D01*
X991108Y814324D01*
X974214Y827955D02*
X965451Y827955D01*
X974214Y827956D02*
X974380Y827954D01*
X974546Y827948D01*
X974712Y827938D01*
X974877Y827924D01*
X975042Y827906D01*
X975206Y827883D01*
X975370Y827857D01*
X975534Y827827D01*
X975696Y827793D01*
X975858Y827755D01*
X976018Y827713D01*
X976178Y827667D01*
X976336Y827617D01*
X976493Y827564D01*
X976649Y827506D01*
X976803Y827445D01*
X976956Y827380D01*
X977107Y827312D01*
X977257Y827239D01*
X977404Y827163D01*
X977550Y827084D01*
X977694Y827001D01*
X977835Y826914D01*
X977975Y826825D01*
X978112Y826731D01*
X978247Y826635D01*
X978380Y826535D01*
X978510Y826432D01*
X978637Y826326D01*
X978762Y826216D01*
X978885Y826104D01*
X979004Y825989D01*
X979121Y825871D01*
X979235Y825750D01*
X979345Y825626D01*
X979453Y825500D01*
X979558Y825371D01*
X979659Y825240D01*
X979757Y825106D01*
X979852Y824970D01*
X979944Y824831D01*
X980032Y824691D01*
X980117Y824548D01*
X980198Y824403D01*
X980276Y824257D01*
X980350Y824108D01*
X980420Y823958D01*
X980487Y823806D01*
X980550Y823652D01*
X980609Y823497D01*
X980665Y823341D01*
X980717Y823183D01*
X980764Y823024D01*
X980808Y822864D01*
X980848Y822703D01*
X980884Y822541D01*
X980917Y822378D01*
X980945Y822214D01*
X980969Y822050D01*
X980989Y821885D01*
X981005Y821720D01*
X981017Y821555D01*
X981025Y821389D01*
X981029Y821223D01*
X981029Y821057D01*
X981025Y820891D01*
X981017Y820725D01*
X981005Y820560D01*
X980989Y820395D01*
X980969Y820230D01*
X980945Y820066D01*
X980917Y819902D01*
X980884Y819739D01*
X980848Y819577D01*
X980808Y819416D01*
X980764Y819256D01*
X980717Y819097D01*
X980665Y818939D01*
X980609Y818783D01*
X980550Y818628D01*
X980487Y818474D01*
X980420Y818322D01*
X980350Y818172D01*
X980276Y818023D01*
X980198Y817877D01*
X980117Y817732D01*
X980032Y817589D01*
X979944Y817449D01*
X979852Y817310D01*
X979757Y817174D01*
X979659Y817040D01*
X979558Y816909D01*
X979453Y816780D01*
X979345Y816654D01*
X979235Y816530D01*
X979121Y816409D01*
X979004Y816291D01*
X978885Y816176D01*
X978762Y816064D01*
X978637Y815954D01*
X978510Y815848D01*
X978380Y815745D01*
X978247Y815645D01*
X978112Y815549D01*
X977975Y815455D01*
X977835Y815366D01*
X977694Y815279D01*
X977550Y815196D01*
X977404Y815117D01*
X977257Y815041D01*
X977107Y814968D01*
X976956Y814900D01*
X976803Y814835D01*
X976649Y814774D01*
X976493Y814716D01*
X976336Y814663D01*
X976178Y814613D01*
X976018Y814567D01*
X975858Y814525D01*
X975696Y814487D01*
X975534Y814453D01*
X975370Y814423D01*
X975206Y814397D01*
X975042Y814374D01*
X974877Y814356D01*
X974712Y814342D01*
X974546Y814332D01*
X974380Y814326D01*
X974214Y814324D01*
X965451Y814324D01*
X965451Y831850D01*
X965453Y832000D01*
X965459Y832151D01*
X965468Y832301D01*
X965482Y832451D01*
X965499Y832600D01*
X965521Y832749D01*
X965546Y832897D01*
X965575Y833045D01*
X965607Y833192D01*
X965644Y833338D01*
X965684Y833483D01*
X965728Y833627D01*
X965775Y833769D01*
X965827Y833911D01*
X965881Y834051D01*
X965940Y834189D01*
X966002Y834327D01*
X966067Y834462D01*
X966136Y834596D01*
X966209Y834727D01*
X966285Y834857D01*
X966364Y834985D01*
X966446Y835111D01*
X966532Y835235D01*
X966620Y835356D01*
X966712Y835476D01*
X966807Y835592D01*
X966905Y835707D01*
X967006Y835818D01*
X967109Y835927D01*
X967216Y836034D01*
X967325Y836137D01*
X967436Y836238D01*
X967551Y836336D01*
X967667Y836431D01*
X967787Y836523D01*
X967908Y836611D01*
X968032Y836697D01*
X968158Y836779D01*
X968286Y836858D01*
X968416Y836934D01*
X968547Y837007D01*
X968681Y837076D01*
X968816Y837141D01*
X968954Y837203D01*
X969092Y837262D01*
X969232Y837316D01*
X969374Y837368D01*
X969516Y837415D01*
X969660Y837459D01*
X969805Y837499D01*
X969951Y837536D01*
X970098Y837568D01*
X970246Y837597D01*
X970394Y837622D01*
X970543Y837644D01*
X970692Y837661D01*
X970842Y837675D01*
X970992Y837684D01*
X971143Y837690D01*
X971293Y837692D01*
X979082Y837692D01*
X954215Y837692D02*
X954215Y814324D01*
X955188Y847429D02*
X955188Y849376D01*
X953241Y849376D01*
X953241Y847429D01*
X955188Y847429D01*
X942954Y837692D02*
X942954Y814324D01*
X942954Y837692D02*
X933217Y837692D01*
X933067Y837690D01*
X932916Y837684D01*
X932766Y837675D01*
X932616Y837661D01*
X932467Y837644D01*
X932318Y837622D01*
X932170Y837597D01*
X932022Y837568D01*
X931875Y837536D01*
X931729Y837499D01*
X931584Y837459D01*
X931440Y837415D01*
X931298Y837368D01*
X931156Y837316D01*
X931016Y837262D01*
X930878Y837203D01*
X930740Y837141D01*
X930605Y837076D01*
X930471Y837007D01*
X930340Y836934D01*
X930210Y836858D01*
X930082Y836779D01*
X929956Y836697D01*
X929832Y836611D01*
X929711Y836523D01*
X929591Y836431D01*
X929475Y836336D01*
X929360Y836238D01*
X929249Y836137D01*
X929140Y836034D01*
X929033Y835927D01*
X928930Y835818D01*
X928829Y835707D01*
X928731Y835592D01*
X928636Y835476D01*
X928544Y835356D01*
X928456Y835235D01*
X928370Y835111D01*
X928288Y834985D01*
X928209Y834857D01*
X928133Y834727D01*
X928060Y834596D01*
X927991Y834462D01*
X927926Y834327D01*
X927864Y834189D01*
X927805Y834051D01*
X927751Y833911D01*
X927699Y833769D01*
X927652Y833627D01*
X927608Y833483D01*
X927568Y833338D01*
X927531Y833192D01*
X927499Y833045D01*
X927470Y832897D01*
X927445Y832749D01*
X927423Y832600D01*
X927406Y832451D01*
X927392Y832301D01*
X927383Y832151D01*
X927377Y832000D01*
X927375Y831850D01*
X927375Y814324D01*
X911394Y814324D02*
X901658Y814324D01*
X911394Y814324D02*
X911544Y814326D01*
X911695Y814332D01*
X911845Y814341D01*
X911995Y814355D01*
X912144Y814372D01*
X912293Y814394D01*
X912441Y814419D01*
X912589Y814448D01*
X912736Y814480D01*
X912882Y814517D01*
X913027Y814557D01*
X913171Y814601D01*
X913313Y814648D01*
X913455Y814700D01*
X913595Y814754D01*
X913733Y814813D01*
X913871Y814875D01*
X914006Y814940D01*
X914140Y815009D01*
X914271Y815082D01*
X914401Y815158D01*
X914529Y815237D01*
X914655Y815319D01*
X914779Y815405D01*
X914900Y815493D01*
X915020Y815585D01*
X915136Y815680D01*
X915251Y815778D01*
X915362Y815879D01*
X915471Y815982D01*
X915578Y816089D01*
X915681Y816198D01*
X915782Y816309D01*
X915880Y816424D01*
X915975Y816540D01*
X916067Y816660D01*
X916155Y816781D01*
X916241Y816905D01*
X916323Y817031D01*
X916402Y817159D01*
X916478Y817289D01*
X916551Y817420D01*
X916620Y817554D01*
X916685Y817689D01*
X916747Y817827D01*
X916806Y817965D01*
X916860Y818105D01*
X916912Y818247D01*
X916959Y818389D01*
X917003Y818533D01*
X917043Y818678D01*
X917080Y818824D01*
X917112Y818971D01*
X917141Y819119D01*
X917166Y819267D01*
X917188Y819416D01*
X917205Y819565D01*
X917219Y819715D01*
X917228Y819865D01*
X917234Y820016D01*
X917236Y820166D01*
X917236Y829903D01*
X917234Y830093D01*
X917227Y830282D01*
X917215Y830472D01*
X917199Y830661D01*
X917178Y830849D01*
X917153Y831037D01*
X917123Y831224D01*
X917089Y831411D01*
X917050Y831597D01*
X917006Y831781D01*
X916958Y831965D01*
X916906Y832147D01*
X916849Y832328D01*
X916788Y832507D01*
X916722Y832685D01*
X916652Y832862D01*
X916578Y833036D01*
X916500Y833209D01*
X916417Y833380D01*
X916330Y833549D01*
X916239Y833715D01*
X916145Y833879D01*
X916046Y834041D01*
X915943Y834201D01*
X915836Y834358D01*
X915726Y834512D01*
X915612Y834663D01*
X915494Y834812D01*
X915373Y834958D01*
X915248Y835101D01*
X915120Y835240D01*
X914988Y835377D01*
X914853Y835510D01*
X914715Y835640D01*
X914574Y835767D01*
X914429Y835890D01*
X914282Y836010D01*
X914132Y836125D01*
X913979Y836238D01*
X913823Y836346D01*
X913665Y836451D01*
X913505Y836552D01*
X913342Y836648D01*
X913176Y836741D01*
X913008Y836830D01*
X912839Y836915D01*
X912667Y836995D01*
X912493Y837072D01*
X912318Y837144D01*
X912141Y837211D01*
X911962Y837275D01*
X911782Y837334D01*
X911600Y837389D01*
X911417Y837439D01*
X911233Y837484D01*
X911048Y837526D01*
X910862Y837562D01*
X910675Y837595D01*
X910487Y837622D01*
X910299Y837645D01*
X910110Y837664D01*
X909921Y837678D01*
X909731Y837687D01*
X909542Y837691D01*
X909352Y837691D01*
X909163Y837687D01*
X908973Y837678D01*
X908784Y837664D01*
X908595Y837645D01*
X908407Y837622D01*
X908219Y837595D01*
X908032Y837562D01*
X907846Y837526D01*
X907661Y837484D01*
X907477Y837439D01*
X907294Y837389D01*
X907112Y837334D01*
X906932Y837275D01*
X906753Y837211D01*
X906576Y837144D01*
X906401Y837072D01*
X906227Y836995D01*
X906055Y836915D01*
X905886Y836830D01*
X905718Y836741D01*
X905553Y836648D01*
X905389Y836552D01*
X905229Y836451D01*
X905071Y836346D01*
X904915Y836238D01*
X904762Y836125D01*
X904612Y836010D01*
X904465Y835890D01*
X904320Y835767D01*
X904179Y835640D01*
X904041Y835510D01*
X903906Y835377D01*
X903774Y835240D01*
X903646Y835101D01*
X903521Y834958D01*
X903400Y834812D01*
X903282Y834663D01*
X903168Y834512D01*
X903058Y834358D01*
X902951Y834201D01*
X902848Y834041D01*
X902749Y833879D01*
X902655Y833715D01*
X902564Y833549D01*
X902477Y833380D01*
X902394Y833209D01*
X902316Y833036D01*
X902242Y832862D01*
X902172Y832685D01*
X902106Y832507D01*
X902045Y832328D01*
X901988Y832147D01*
X901936Y831965D01*
X901888Y831781D01*
X901844Y831597D01*
X901805Y831411D01*
X901771Y831224D01*
X901741Y831037D01*
X901716Y830849D01*
X901695Y830661D01*
X901679Y830472D01*
X901667Y830282D01*
X901660Y830093D01*
X901658Y829903D01*
X901658Y826008D01*
X917236Y826008D01*
X891519Y814324D02*
X891519Y837692D01*
X881782Y837692D01*
X881632Y837690D01*
X881481Y837684D01*
X881331Y837675D01*
X881181Y837661D01*
X881032Y837644D01*
X880883Y837622D01*
X880735Y837597D01*
X880587Y837568D01*
X880440Y837536D01*
X880294Y837499D01*
X880149Y837459D01*
X880005Y837415D01*
X879863Y837368D01*
X879721Y837316D01*
X879581Y837262D01*
X879443Y837203D01*
X879305Y837141D01*
X879170Y837076D01*
X879036Y837007D01*
X878905Y836934D01*
X878775Y836858D01*
X878647Y836779D01*
X878521Y836697D01*
X878397Y836611D01*
X878276Y836523D01*
X878156Y836431D01*
X878040Y836336D01*
X877925Y836238D01*
X877814Y836137D01*
X877705Y836034D01*
X877598Y835927D01*
X877495Y835818D01*
X877394Y835707D01*
X877296Y835592D01*
X877201Y835476D01*
X877109Y835356D01*
X877021Y835235D01*
X876935Y835111D01*
X876853Y834985D01*
X876774Y834857D01*
X876698Y834727D01*
X876625Y834596D01*
X876556Y834462D01*
X876491Y834327D01*
X876429Y834189D01*
X876370Y834051D01*
X876316Y833911D01*
X876264Y833769D01*
X876217Y833627D01*
X876173Y833483D01*
X876133Y833338D01*
X876096Y833192D01*
X876064Y833045D01*
X876035Y832897D01*
X876010Y832749D01*
X875988Y832600D01*
X875971Y832451D01*
X875957Y832301D01*
X875948Y832151D01*
X875942Y832000D01*
X875940Y831850D01*
X875940Y814324D01*
X867622Y837692D02*
X855938Y837692D01*
X863727Y849376D02*
X863727Y820166D01*
X863725Y820016D01*
X863719Y819865D01*
X863710Y819715D01*
X863696Y819565D01*
X863679Y819416D01*
X863657Y819267D01*
X863632Y819119D01*
X863603Y818971D01*
X863571Y818824D01*
X863534Y818678D01*
X863494Y818533D01*
X863450Y818389D01*
X863403Y818247D01*
X863351Y818105D01*
X863297Y817965D01*
X863238Y817827D01*
X863176Y817689D01*
X863111Y817554D01*
X863042Y817420D01*
X862969Y817289D01*
X862893Y817159D01*
X862814Y817031D01*
X862732Y816905D01*
X862646Y816781D01*
X862558Y816660D01*
X862466Y816540D01*
X862371Y816424D01*
X862273Y816309D01*
X862172Y816198D01*
X862069Y816089D01*
X861962Y815982D01*
X861853Y815879D01*
X861742Y815778D01*
X861627Y815680D01*
X861511Y815585D01*
X861391Y815493D01*
X861270Y815405D01*
X861146Y815319D01*
X861020Y815237D01*
X860892Y815158D01*
X860762Y815082D01*
X860631Y815009D01*
X860497Y814940D01*
X860362Y814875D01*
X860224Y814813D01*
X860086Y814754D01*
X859946Y814700D01*
X859804Y814648D01*
X859662Y814601D01*
X859518Y814557D01*
X859373Y814517D01*
X859227Y814480D01*
X859080Y814448D01*
X858932Y814419D01*
X858784Y814394D01*
X858635Y814372D01*
X858486Y814355D01*
X858336Y814341D01*
X858186Y814332D01*
X858035Y814326D01*
X857885Y814324D01*
X855938Y814324D01*
X846582Y814324D02*
X846582Y837692D01*
X847556Y847429D02*
X847556Y849376D01*
X845609Y849376D01*
X845609Y847429D01*
X847556Y847429D01*
X820124Y849376D02*
X820124Y814324D01*
X800650Y814324D02*
X820124Y849376D01*
X800650Y849376D02*
X800650Y814324D01*
X789432Y814324D02*
X789432Y837692D01*
X790406Y847429D02*
X790406Y849376D01*
X788458Y849376D01*
X788458Y847429D01*
X790406Y847429D01*
X773290Y814324D02*
X765501Y814324D01*
X773290Y814324D02*
X773440Y814326D01*
X773591Y814332D01*
X773741Y814341D01*
X773891Y814355D01*
X774040Y814372D01*
X774189Y814394D01*
X774337Y814419D01*
X774485Y814448D01*
X774632Y814480D01*
X774778Y814517D01*
X774923Y814557D01*
X775067Y814601D01*
X775209Y814648D01*
X775351Y814700D01*
X775491Y814754D01*
X775629Y814813D01*
X775767Y814875D01*
X775902Y814940D01*
X776036Y815009D01*
X776167Y815082D01*
X776297Y815158D01*
X776425Y815237D01*
X776551Y815319D01*
X776675Y815405D01*
X776796Y815493D01*
X776916Y815585D01*
X777032Y815680D01*
X777147Y815778D01*
X777258Y815879D01*
X777367Y815982D01*
X777474Y816089D01*
X777577Y816198D01*
X777678Y816309D01*
X777776Y816424D01*
X777871Y816540D01*
X777963Y816660D01*
X778051Y816781D01*
X778137Y816905D01*
X778219Y817031D01*
X778298Y817159D01*
X778374Y817289D01*
X778447Y817420D01*
X778516Y817554D01*
X778581Y817689D01*
X778643Y817827D01*
X778702Y817965D01*
X778756Y818105D01*
X778808Y818247D01*
X778855Y818389D01*
X778899Y818533D01*
X778939Y818678D01*
X778976Y818824D01*
X779008Y818971D01*
X779037Y819119D01*
X779062Y819267D01*
X779084Y819416D01*
X779101Y819565D01*
X779115Y819715D01*
X779124Y819865D01*
X779130Y820016D01*
X779132Y820166D01*
X779132Y831850D01*
X779130Y832000D01*
X779124Y832151D01*
X779115Y832301D01*
X779101Y832451D01*
X779084Y832600D01*
X779062Y832749D01*
X779037Y832897D01*
X779008Y833045D01*
X778976Y833192D01*
X778939Y833338D01*
X778899Y833483D01*
X778855Y833627D01*
X778808Y833769D01*
X778756Y833911D01*
X778702Y834051D01*
X778643Y834189D01*
X778581Y834327D01*
X778516Y834462D01*
X778447Y834596D01*
X778374Y834727D01*
X778298Y834857D01*
X778219Y834985D01*
X778137Y835111D01*
X778051Y835235D01*
X777963Y835356D01*
X777871Y835476D01*
X777776Y835592D01*
X777678Y835707D01*
X777577Y835818D01*
X777474Y835927D01*
X777367Y836034D01*
X777258Y836137D01*
X777147Y836238D01*
X777032Y836336D01*
X776916Y836431D01*
X776796Y836523D01*
X776675Y836611D01*
X776551Y836697D01*
X776425Y836779D01*
X776297Y836858D01*
X776167Y836934D01*
X776036Y837007D01*
X775902Y837076D01*
X775767Y837141D01*
X775629Y837203D01*
X775491Y837262D01*
X775351Y837316D01*
X775209Y837368D01*
X775067Y837415D01*
X774923Y837459D01*
X774778Y837499D01*
X774632Y837536D01*
X774485Y837568D01*
X774337Y837597D01*
X774189Y837622D01*
X774040Y837644D01*
X773891Y837661D01*
X773741Y837675D01*
X773591Y837684D01*
X773440Y837690D01*
X773290Y837692D01*
X765501Y837692D01*
X757217Y829903D02*
X757217Y822113D01*
X757216Y829903D02*
X757214Y830093D01*
X757207Y830282D01*
X757195Y830472D01*
X757179Y830661D01*
X757158Y830849D01*
X757133Y831037D01*
X757103Y831224D01*
X757069Y831411D01*
X757030Y831597D01*
X756986Y831781D01*
X756938Y831965D01*
X756886Y832147D01*
X756829Y832328D01*
X756768Y832507D01*
X756702Y832685D01*
X756632Y832862D01*
X756558Y833036D01*
X756480Y833209D01*
X756397Y833380D01*
X756310Y833549D01*
X756219Y833715D01*
X756125Y833879D01*
X756026Y834041D01*
X755923Y834201D01*
X755816Y834358D01*
X755706Y834512D01*
X755592Y834663D01*
X755474Y834812D01*
X755353Y834958D01*
X755228Y835101D01*
X755100Y835240D01*
X754968Y835377D01*
X754833Y835510D01*
X754695Y835640D01*
X754554Y835767D01*
X754409Y835890D01*
X754262Y836010D01*
X754112Y836125D01*
X753959Y836238D01*
X753803Y836346D01*
X753645Y836451D01*
X753485Y836552D01*
X753322Y836648D01*
X753156Y836741D01*
X752988Y836830D01*
X752819Y836915D01*
X752647Y836995D01*
X752473Y837072D01*
X752298Y837144D01*
X752121Y837211D01*
X751942Y837275D01*
X751762Y837334D01*
X751580Y837389D01*
X751397Y837439D01*
X751213Y837484D01*
X751028Y837526D01*
X750842Y837562D01*
X750655Y837595D01*
X750467Y837622D01*
X750279Y837645D01*
X750090Y837664D01*
X749901Y837678D01*
X749711Y837687D01*
X749522Y837691D01*
X749332Y837691D01*
X749143Y837687D01*
X748953Y837678D01*
X748764Y837664D01*
X748575Y837645D01*
X748387Y837622D01*
X748199Y837595D01*
X748012Y837562D01*
X747826Y837526D01*
X747641Y837484D01*
X747457Y837439D01*
X747274Y837389D01*
X747092Y837334D01*
X746912Y837275D01*
X746733Y837211D01*
X746556Y837144D01*
X746381Y837072D01*
X746207Y836995D01*
X746035Y836915D01*
X745866Y836830D01*
X745698Y836741D01*
X745533Y836648D01*
X745369Y836552D01*
X745209Y836451D01*
X745051Y836346D01*
X744895Y836238D01*
X744742Y836125D01*
X744592Y836010D01*
X744445Y835890D01*
X744300Y835767D01*
X744159Y835640D01*
X744021Y835510D01*
X743886Y835377D01*
X743754Y835240D01*
X743626Y835101D01*
X743501Y834958D01*
X743380Y834812D01*
X743262Y834663D01*
X743148Y834512D01*
X743038Y834358D01*
X742931Y834201D01*
X742828Y834041D01*
X742729Y833879D01*
X742635Y833715D01*
X742544Y833549D01*
X742457Y833380D01*
X742374Y833209D01*
X742296Y833036D01*
X742222Y832862D01*
X742152Y832685D01*
X742086Y832507D01*
X742025Y832328D01*
X741968Y832147D01*
X741916Y831965D01*
X741868Y831781D01*
X741824Y831597D01*
X741785Y831411D01*
X741751Y831224D01*
X741721Y831037D01*
X741696Y830849D01*
X741675Y830661D01*
X741659Y830472D01*
X741647Y830282D01*
X741640Y830093D01*
X741638Y829903D01*
X741638Y822113D01*
X741640Y821923D01*
X741647Y821734D01*
X741659Y821544D01*
X741675Y821355D01*
X741696Y821167D01*
X741721Y820979D01*
X741751Y820792D01*
X741785Y820605D01*
X741824Y820419D01*
X741868Y820235D01*
X741916Y820051D01*
X741968Y819869D01*
X742025Y819688D01*
X742086Y819509D01*
X742152Y819331D01*
X742222Y819154D01*
X742296Y818980D01*
X742374Y818807D01*
X742457Y818636D01*
X742544Y818467D01*
X742635Y818301D01*
X742729Y818137D01*
X742828Y817975D01*
X742931Y817815D01*
X743038Y817658D01*
X743148Y817504D01*
X743262Y817353D01*
X743380Y817204D01*
X743501Y817058D01*
X743626Y816915D01*
X743754Y816776D01*
X743886Y816639D01*
X744021Y816506D01*
X744159Y816376D01*
X744300Y816249D01*
X744445Y816126D01*
X744592Y816006D01*
X744742Y815891D01*
X744895Y815778D01*
X745051Y815670D01*
X745209Y815565D01*
X745369Y815464D01*
X745533Y815368D01*
X745698Y815275D01*
X745866Y815186D01*
X746035Y815101D01*
X746207Y815021D01*
X746381Y814944D01*
X746556Y814872D01*
X746733Y814805D01*
X746912Y814741D01*
X747092Y814682D01*
X747274Y814627D01*
X747457Y814577D01*
X747641Y814532D01*
X747826Y814490D01*
X748012Y814454D01*
X748199Y814421D01*
X748387Y814394D01*
X748575Y814371D01*
X748764Y814352D01*
X748953Y814338D01*
X749143Y814329D01*
X749332Y814325D01*
X749522Y814325D01*
X749711Y814329D01*
X749901Y814338D01*
X750090Y814352D01*
X750279Y814371D01*
X750467Y814394D01*
X750655Y814421D01*
X750842Y814454D01*
X751028Y814490D01*
X751213Y814532D01*
X751397Y814577D01*
X751580Y814627D01*
X751762Y814682D01*
X751942Y814741D01*
X752121Y814805D01*
X752298Y814872D01*
X752473Y814944D01*
X752647Y815021D01*
X752819Y815101D01*
X752988Y815186D01*
X753156Y815275D01*
X753322Y815368D01*
X753485Y815464D01*
X753645Y815565D01*
X753803Y815670D01*
X753959Y815778D01*
X754112Y815891D01*
X754262Y816006D01*
X754409Y816126D01*
X754554Y816249D01*
X754695Y816376D01*
X754833Y816506D01*
X754968Y816639D01*
X755100Y816776D01*
X755228Y816915D01*
X755353Y817058D01*
X755474Y817204D01*
X755592Y817353D01*
X755706Y817504D01*
X755816Y817658D01*
X755923Y817815D01*
X756026Y817975D01*
X756125Y818137D01*
X756219Y818301D01*
X756310Y818467D01*
X756397Y818636D01*
X756480Y818807D01*
X756558Y818980D01*
X756632Y819154D01*
X756702Y819331D01*
X756768Y819509D01*
X756829Y819688D01*
X756886Y819869D01*
X756938Y820051D01*
X756986Y820235D01*
X757030Y820419D01*
X757069Y820605D01*
X757103Y820792D01*
X757133Y820979D01*
X757158Y821167D01*
X757179Y821355D01*
X757195Y821544D01*
X757207Y821734D01*
X757214Y821923D01*
X757216Y822113D01*
X731414Y820166D02*
X731414Y849376D01*
X731414Y820166D02*
X731412Y820016D01*
X731406Y819865D01*
X731397Y819715D01*
X731383Y819565D01*
X731366Y819416D01*
X731344Y819267D01*
X731319Y819119D01*
X731290Y818971D01*
X731258Y818824D01*
X731221Y818678D01*
X731181Y818533D01*
X731137Y818389D01*
X731090Y818247D01*
X731038Y818105D01*
X730984Y817965D01*
X730925Y817827D01*
X730863Y817689D01*
X730798Y817554D01*
X730729Y817420D01*
X730656Y817289D01*
X730580Y817159D01*
X730501Y817031D01*
X730419Y816905D01*
X730333Y816781D01*
X730245Y816660D01*
X730153Y816540D01*
X730058Y816424D01*
X729960Y816309D01*
X729859Y816198D01*
X729756Y816089D01*
X729649Y815982D01*
X729540Y815879D01*
X729429Y815778D01*
X729314Y815680D01*
X729198Y815585D01*
X729078Y815493D01*
X728957Y815405D01*
X728833Y815319D01*
X728707Y815237D01*
X728579Y815158D01*
X728449Y815082D01*
X728318Y815009D01*
X728184Y814940D01*
X728049Y814875D01*
X727911Y814813D01*
X727773Y814754D01*
X727633Y814700D01*
X727491Y814648D01*
X727349Y814601D01*
X727205Y814557D01*
X727060Y814517D01*
X726914Y814480D01*
X726767Y814448D01*
X726619Y814419D01*
X726471Y814394D01*
X726322Y814372D01*
X726173Y814355D01*
X726023Y814341D01*
X725873Y814332D01*
X725722Y814326D01*
X725572Y814324D01*
X710372Y827955D02*
X701609Y827955D01*
X710372Y827956D02*
X710538Y827954D01*
X710704Y827948D01*
X710870Y827938D01*
X711035Y827924D01*
X711200Y827906D01*
X711364Y827883D01*
X711528Y827857D01*
X711692Y827827D01*
X711854Y827793D01*
X712016Y827755D01*
X712176Y827713D01*
X712336Y827667D01*
X712494Y827617D01*
X712651Y827564D01*
X712807Y827506D01*
X712961Y827445D01*
X713114Y827380D01*
X713265Y827312D01*
X713415Y827239D01*
X713562Y827163D01*
X713708Y827084D01*
X713852Y827001D01*
X713993Y826914D01*
X714133Y826825D01*
X714270Y826731D01*
X714405Y826635D01*
X714538Y826535D01*
X714668Y826432D01*
X714795Y826326D01*
X714920Y826216D01*
X715043Y826104D01*
X715162Y825989D01*
X715279Y825871D01*
X715393Y825750D01*
X715503Y825626D01*
X715611Y825500D01*
X715716Y825371D01*
X715817Y825240D01*
X715915Y825106D01*
X716010Y824970D01*
X716102Y824831D01*
X716190Y824691D01*
X716275Y824548D01*
X716356Y824403D01*
X716434Y824257D01*
X716508Y824108D01*
X716578Y823958D01*
X716645Y823806D01*
X716708Y823652D01*
X716767Y823497D01*
X716823Y823341D01*
X716875Y823183D01*
X716922Y823024D01*
X716966Y822864D01*
X717006Y822703D01*
X717042Y822541D01*
X717075Y822378D01*
X717103Y822214D01*
X717127Y822050D01*
X717147Y821885D01*
X717163Y821720D01*
X717175Y821555D01*
X717183Y821389D01*
X717187Y821223D01*
X717187Y821057D01*
X717183Y820891D01*
X717175Y820725D01*
X717163Y820560D01*
X717147Y820395D01*
X717127Y820230D01*
X717103Y820066D01*
X717075Y819902D01*
X717042Y819739D01*
X717006Y819577D01*
X716966Y819416D01*
X716922Y819256D01*
X716875Y819097D01*
X716823Y818939D01*
X716767Y818783D01*
X716708Y818628D01*
X716645Y818474D01*
X716578Y818322D01*
X716508Y818172D01*
X716434Y818023D01*
X716356Y817877D01*
X716275Y817732D01*
X716190Y817589D01*
X716102Y817449D01*
X716010Y817310D01*
X715915Y817174D01*
X715817Y817040D01*
X715716Y816909D01*
X715611Y816780D01*
X715503Y816654D01*
X715393Y816530D01*
X715279Y816409D01*
X715162Y816291D01*
X715043Y816176D01*
X714920Y816064D01*
X714795Y815954D01*
X714668Y815848D01*
X714538Y815745D01*
X714405Y815645D01*
X714270Y815549D01*
X714133Y815455D01*
X713993Y815366D01*
X713852Y815279D01*
X713708Y815196D01*
X713562Y815117D01*
X713415Y815041D01*
X713265Y814968D01*
X713114Y814900D01*
X712961Y814835D01*
X712807Y814774D01*
X712651Y814716D01*
X712494Y814663D01*
X712336Y814613D01*
X712176Y814567D01*
X712016Y814525D01*
X711854Y814487D01*
X711692Y814453D01*
X711528Y814423D01*
X711364Y814397D01*
X711200Y814374D01*
X711035Y814356D01*
X710870Y814342D01*
X710704Y814332D01*
X710538Y814326D01*
X710372Y814324D01*
X701609Y814324D01*
X701609Y831850D01*
X701611Y832000D01*
X701617Y832151D01*
X701626Y832301D01*
X701640Y832451D01*
X701657Y832600D01*
X701679Y832749D01*
X701704Y832897D01*
X701733Y833045D01*
X701765Y833192D01*
X701802Y833338D01*
X701842Y833483D01*
X701886Y833627D01*
X701933Y833769D01*
X701985Y833911D01*
X702039Y834051D01*
X702098Y834189D01*
X702160Y834327D01*
X702225Y834462D01*
X702294Y834596D01*
X702367Y834727D01*
X702443Y834857D01*
X702522Y834985D01*
X702604Y835111D01*
X702690Y835235D01*
X702778Y835356D01*
X702870Y835476D01*
X702965Y835592D01*
X703063Y835707D01*
X703164Y835818D01*
X703267Y835927D01*
X703374Y836034D01*
X703483Y836137D01*
X703594Y836238D01*
X703709Y836336D01*
X703825Y836431D01*
X703945Y836523D01*
X704066Y836611D01*
X704190Y836697D01*
X704316Y836779D01*
X704444Y836858D01*
X704574Y836934D01*
X704705Y837007D01*
X704839Y837076D01*
X704974Y837141D01*
X705112Y837203D01*
X705250Y837262D01*
X705390Y837316D01*
X705532Y837368D01*
X705674Y837415D01*
X705818Y837459D01*
X705963Y837499D01*
X706109Y837536D01*
X706256Y837568D01*
X706404Y837597D01*
X706552Y837622D01*
X706701Y837644D01*
X706850Y837661D01*
X707000Y837675D01*
X707150Y837684D01*
X707301Y837690D01*
X707451Y837692D01*
X715240Y837692D01*
X688573Y827955D02*
X678836Y824061D01*
X688573Y827955D02*
X688704Y828010D01*
X688833Y828068D01*
X688960Y828129D01*
X689086Y828194D01*
X689210Y828263D01*
X689332Y828335D01*
X689451Y828411D01*
X689569Y828490D01*
X689684Y828572D01*
X689797Y828657D01*
X689908Y828745D01*
X690016Y828837D01*
X690121Y828931D01*
X690224Y829029D01*
X690324Y829129D01*
X690421Y829232D01*
X690515Y829338D01*
X690606Y829446D01*
X690694Y829557D01*
X690779Y829670D01*
X690861Y829786D01*
X690939Y829903D01*
X691014Y830023D01*
X691086Y830145D01*
X691154Y830269D01*
X691219Y830395D01*
X691280Y830523D01*
X691338Y830652D01*
X691392Y830783D01*
X691442Y830915D01*
X691489Y831049D01*
X691532Y831184D01*
X691571Y831320D01*
X691606Y831457D01*
X691637Y831595D01*
X691664Y831734D01*
X691688Y831873D01*
X691708Y832014D01*
X691723Y832154D01*
X691735Y832295D01*
X691743Y832437D01*
X691747Y832578D01*
X691746Y832720D01*
X691742Y832861D01*
X691734Y833002D01*
X691722Y833143D01*
X691706Y833284D01*
X691686Y833424D01*
X691662Y833564D01*
X691635Y833702D01*
X691603Y833840D01*
X691567Y833977D01*
X691528Y834113D01*
X691485Y834248D01*
X691438Y834382D01*
X691388Y834514D01*
X691333Y834645D01*
X691275Y834774D01*
X691214Y834901D01*
X691149Y835027D01*
X691080Y835151D01*
X691008Y835273D01*
X690933Y835392D01*
X690854Y835510D01*
X690772Y835625D01*
X690687Y835738D01*
X690598Y835849D01*
X690507Y835957D01*
X690413Y836063D01*
X690315Y836165D01*
X690215Y836265D01*
X690112Y836363D01*
X690007Y836457D01*
X689898Y836548D01*
X689788Y836636D01*
X689675Y836721D01*
X689559Y836803D01*
X689441Y836882D01*
X689322Y836957D01*
X689200Y837029D01*
X689076Y837097D01*
X688950Y837162D01*
X688822Y837223D01*
X688693Y837281D01*
X688562Y837335D01*
X688430Y837386D01*
X688296Y837432D01*
X688162Y837475D01*
X688026Y837514D01*
X687888Y837550D01*
X687750Y837581D01*
X687612Y837609D01*
X687472Y837632D01*
X687332Y837652D01*
X687191Y837668D01*
X687050Y837680D01*
X686909Y837688D01*
X686767Y837692D01*
X686626Y837691D01*
X686626Y837692D02*
X686095Y837678D01*
X685564Y837651D01*
X685033Y837611D01*
X684504Y837559D01*
X683976Y837494D01*
X683450Y837417D01*
X682926Y837326D01*
X682405Y837224D01*
X681886Y837108D01*
X681369Y836980D01*
X680857Y836840D01*
X680347Y836688D01*
X679842Y836523D01*
X679340Y836346D01*
X678843Y836158D01*
X678351Y835957D01*
X677863Y835744D01*
X678837Y824061D02*
X678706Y824006D01*
X678577Y823948D01*
X678450Y823887D01*
X678324Y823822D01*
X678200Y823753D01*
X678079Y823681D01*
X677959Y823605D01*
X677841Y823526D01*
X677726Y823444D01*
X677613Y823359D01*
X677502Y823271D01*
X677394Y823179D01*
X677289Y823085D01*
X677186Y822987D01*
X677086Y822887D01*
X676989Y822784D01*
X676895Y822678D01*
X676804Y822570D01*
X676716Y822459D01*
X676631Y822346D01*
X676549Y822230D01*
X676471Y822113D01*
X676396Y821993D01*
X676324Y821871D01*
X676256Y821747D01*
X676191Y821621D01*
X676130Y821493D01*
X676072Y821364D01*
X676018Y821233D01*
X675968Y821101D01*
X675921Y820967D01*
X675878Y820832D01*
X675839Y820696D01*
X675804Y820559D01*
X675773Y820421D01*
X675746Y820282D01*
X675722Y820143D01*
X675702Y820002D01*
X675687Y819862D01*
X675675Y819721D01*
X675667Y819579D01*
X675663Y819438D01*
X675664Y819296D01*
X675668Y819155D01*
X675676Y819014D01*
X675688Y818873D01*
X675704Y818732D01*
X675724Y818592D01*
X675748Y818452D01*
X675775Y818314D01*
X675807Y818176D01*
X675843Y818039D01*
X675882Y817903D01*
X675925Y817768D01*
X675972Y817634D01*
X676022Y817502D01*
X676077Y817371D01*
X676135Y817242D01*
X676196Y817115D01*
X676261Y816989D01*
X676330Y816865D01*
X676402Y816743D01*
X676477Y816624D01*
X676556Y816506D01*
X676638Y816391D01*
X676723Y816278D01*
X676812Y816167D01*
X676903Y816059D01*
X676997Y815953D01*
X677095Y815851D01*
X677195Y815751D01*
X677298Y815653D01*
X677403Y815559D01*
X677511Y815468D01*
X677622Y815380D01*
X677735Y815295D01*
X677851Y815213D01*
X677969Y815134D01*
X678088Y815059D01*
X678210Y814987D01*
X678334Y814919D01*
X678460Y814854D01*
X678588Y814793D01*
X678717Y814735D01*
X678848Y814681D01*
X678980Y814630D01*
X679114Y814584D01*
X679248Y814541D01*
X679384Y814502D01*
X679522Y814466D01*
X679660Y814435D01*
X679798Y814407D01*
X679938Y814384D01*
X680078Y814364D01*
X680219Y814348D01*
X680360Y814336D01*
X680501Y814328D01*
X680643Y814324D01*
X680784Y814325D01*
X680784Y814324D02*
X681564Y814345D01*
X682345Y814384D01*
X683124Y814441D01*
X683901Y814517D01*
X684676Y814611D01*
X685449Y814723D01*
X686219Y814854D01*
X686986Y815002D01*
X687749Y815169D01*
X688508Y815354D01*
X689263Y815557D01*
X690012Y815778D01*
X690756Y816016D01*
X691494Y816272D01*
X651531Y814324D02*
X639847Y814324D01*
X639659Y814326D01*
X639471Y814333D01*
X639283Y814344D01*
X639095Y814360D01*
X638908Y814381D01*
X638722Y814406D01*
X638536Y814435D01*
X638351Y814469D01*
X638166Y814508D01*
X637983Y814550D01*
X637801Y814598D01*
X637620Y814649D01*
X637440Y814705D01*
X637262Y814766D01*
X637085Y814830D01*
X636910Y814899D01*
X636736Y814972D01*
X636565Y815049D01*
X636395Y815131D01*
X636227Y815216D01*
X636062Y815306D01*
X635898Y815399D01*
X635737Y815496D01*
X635579Y815598D01*
X635422Y815703D01*
X635269Y815812D01*
X635118Y815924D01*
X634970Y816040D01*
X634824Y816160D01*
X634682Y816283D01*
X634543Y816409D01*
X634406Y816539D01*
X634273Y816672D01*
X634143Y816809D01*
X634017Y816948D01*
X633894Y817090D01*
X633774Y817236D01*
X633658Y817384D01*
X633546Y817535D01*
X633437Y817688D01*
X633332Y817845D01*
X633230Y818003D01*
X633133Y818164D01*
X633040Y818328D01*
X632950Y818493D01*
X632865Y818661D01*
X632783Y818831D01*
X632706Y819002D01*
X632633Y819176D01*
X632564Y819351D01*
X632500Y819528D01*
X632439Y819706D01*
X632383Y819886D01*
X632332Y820067D01*
X632284Y820249D01*
X632242Y820432D01*
X632203Y820617D01*
X632169Y820802D01*
X632140Y820988D01*
X632115Y821174D01*
X632094Y821361D01*
X632078Y821549D01*
X632067Y821737D01*
X632060Y821925D01*
X632058Y822113D01*
X632058Y826008D01*
X632060Y826196D01*
X632067Y826384D01*
X632078Y826572D01*
X632094Y826760D01*
X632115Y826947D01*
X632140Y827133D01*
X632169Y827319D01*
X632203Y827504D01*
X632242Y827689D01*
X632284Y827872D01*
X632332Y828054D01*
X632383Y828235D01*
X632439Y828415D01*
X632500Y828593D01*
X632564Y828770D01*
X632633Y828945D01*
X632706Y829119D01*
X632783Y829290D01*
X632865Y829460D01*
X632950Y829628D01*
X633040Y829793D01*
X633133Y829957D01*
X633230Y830118D01*
X633332Y830276D01*
X633437Y830433D01*
X633546Y830586D01*
X633658Y830737D01*
X633774Y830885D01*
X633894Y831031D01*
X634017Y831173D01*
X634143Y831312D01*
X634273Y831449D01*
X634406Y831582D01*
X634543Y831712D01*
X634682Y831838D01*
X634824Y831961D01*
X634970Y832081D01*
X635118Y832197D01*
X635269Y832309D01*
X635422Y832418D01*
X635579Y832523D01*
X635737Y832625D01*
X635898Y832722D01*
X636062Y832815D01*
X636227Y832905D01*
X636395Y832990D01*
X636565Y833072D01*
X636736Y833149D01*
X636910Y833222D01*
X637085Y833291D01*
X637262Y833355D01*
X637440Y833416D01*
X637620Y833472D01*
X637801Y833523D01*
X637983Y833571D01*
X638166Y833613D01*
X638351Y833652D01*
X638536Y833686D01*
X638722Y833715D01*
X638908Y833740D01*
X639095Y833761D01*
X639283Y833777D01*
X639471Y833788D01*
X639659Y833795D01*
X639847Y833797D01*
X651531Y833797D01*
X651531Y849376D01*
X632058Y849376D01*
X622851Y844508D02*
X622851Y838666D01*
X622850Y844508D02*
X622848Y844646D01*
X622842Y844783D01*
X622832Y844921D01*
X622819Y845058D01*
X622801Y845195D01*
X622780Y845331D01*
X622755Y845466D01*
X622726Y845601D01*
X622693Y845735D01*
X622656Y845867D01*
X622616Y845999D01*
X622572Y846130D01*
X622524Y846259D01*
X622473Y846387D01*
X622418Y846513D01*
X622359Y846638D01*
X622297Y846761D01*
X622232Y846882D01*
X622163Y847001D01*
X622091Y847119D01*
X622015Y847234D01*
X621936Y847347D01*
X621855Y847458D01*
X621769Y847566D01*
X621681Y847672D01*
X621590Y847776D01*
X621496Y847876D01*
X621400Y847974D01*
X621300Y848070D01*
X621198Y848162D01*
X621093Y848252D01*
X620986Y848338D01*
X620877Y848422D01*
X620765Y848502D01*
X620651Y848579D01*
X620534Y848653D01*
X620416Y848724D01*
X620296Y848791D01*
X620174Y848855D01*
X620050Y848915D01*
X619924Y848972D01*
X619797Y849025D01*
X619669Y849075D01*
X619539Y849120D01*
X619407Y849163D01*
X619275Y849201D01*
X619142Y849236D01*
X619008Y849267D01*
X618873Y849294D01*
X618737Y849317D01*
X618600Y849337D01*
X618463Y849352D01*
X618326Y849364D01*
X618189Y849372D01*
X618051Y849376D01*
X617913Y849376D01*
X617775Y849372D01*
X617638Y849364D01*
X617501Y849352D01*
X617364Y849337D01*
X617227Y849317D01*
X617091Y849294D01*
X616956Y849267D01*
X616822Y849236D01*
X616689Y849201D01*
X616557Y849163D01*
X616425Y849120D01*
X616295Y849075D01*
X616167Y849025D01*
X616040Y848972D01*
X615914Y848915D01*
X615790Y848855D01*
X615668Y848791D01*
X615548Y848724D01*
X615430Y848653D01*
X615313Y848579D01*
X615199Y848502D01*
X615087Y848422D01*
X614978Y848338D01*
X614871Y848252D01*
X614766Y848162D01*
X614664Y848070D01*
X614564Y847974D01*
X614468Y847876D01*
X614374Y847776D01*
X614283Y847672D01*
X614195Y847566D01*
X614109Y847458D01*
X614028Y847347D01*
X613949Y847234D01*
X613873Y847119D01*
X613801Y847001D01*
X613732Y846882D01*
X613667Y846761D01*
X613605Y846638D01*
X613546Y846513D01*
X613491Y846387D01*
X613440Y846259D01*
X613392Y846130D01*
X613348Y845999D01*
X613308Y845867D01*
X613271Y845735D01*
X613238Y845601D01*
X613209Y845466D01*
X613184Y845331D01*
X613163Y845195D01*
X613145Y845058D01*
X613132Y844921D01*
X613122Y844783D01*
X613116Y844646D01*
X613114Y844508D01*
X613114Y838666D01*
X613116Y838528D01*
X613122Y838391D01*
X613132Y838253D01*
X613145Y838116D01*
X613163Y837979D01*
X613184Y837843D01*
X613209Y837708D01*
X613238Y837573D01*
X613271Y837439D01*
X613308Y837307D01*
X613348Y837175D01*
X613392Y837044D01*
X613440Y836915D01*
X613491Y836787D01*
X613546Y836661D01*
X613605Y836536D01*
X613667Y836413D01*
X613732Y836292D01*
X613801Y836173D01*
X613873Y836055D01*
X613949Y835940D01*
X614028Y835827D01*
X614109Y835716D01*
X614195Y835608D01*
X614283Y835502D01*
X614374Y835398D01*
X614468Y835298D01*
X614564Y835200D01*
X614664Y835104D01*
X614766Y835012D01*
X614871Y834922D01*
X614978Y834836D01*
X615087Y834752D01*
X615199Y834672D01*
X615313Y834595D01*
X615430Y834521D01*
X615548Y834450D01*
X615668Y834383D01*
X615790Y834319D01*
X615914Y834259D01*
X616040Y834202D01*
X616167Y834149D01*
X616295Y834099D01*
X616425Y834054D01*
X616557Y834011D01*
X616689Y833973D01*
X616822Y833938D01*
X616956Y833907D01*
X617091Y833880D01*
X617227Y833857D01*
X617364Y833837D01*
X617501Y833822D01*
X617638Y833810D01*
X617775Y833802D01*
X617913Y833798D01*
X618051Y833798D01*
X618189Y833802D01*
X618326Y833810D01*
X618463Y833822D01*
X618600Y833837D01*
X618737Y833857D01*
X618873Y833880D01*
X619008Y833907D01*
X619142Y833938D01*
X619275Y833973D01*
X619407Y834011D01*
X619539Y834054D01*
X619669Y834099D01*
X619797Y834149D01*
X619924Y834202D01*
X620050Y834259D01*
X620174Y834319D01*
X620296Y834383D01*
X620416Y834450D01*
X620534Y834521D01*
X620651Y834595D01*
X620765Y834672D01*
X620877Y834752D01*
X620986Y834836D01*
X621093Y834922D01*
X621198Y835012D01*
X621300Y835104D01*
X621400Y835200D01*
X621496Y835298D01*
X621590Y835398D01*
X621681Y835502D01*
X621769Y835608D01*
X621855Y835716D01*
X621936Y835827D01*
X622015Y835940D01*
X622091Y836055D01*
X622163Y836173D01*
X622232Y836292D01*
X622297Y836413D01*
X622359Y836536D01*
X622418Y836661D01*
X622473Y836787D01*
X622524Y836915D01*
X622572Y837044D01*
X622616Y837175D01*
X622656Y837307D01*
X622693Y837439D01*
X622726Y837573D01*
X622755Y837708D01*
X622780Y837843D01*
X622801Y837979D01*
X622819Y838116D01*
X622832Y838253D01*
X622842Y838391D01*
X622848Y838528D01*
X622850Y838666D01*
X622851Y826008D02*
X613114Y826008D01*
X588666Y814324D02*
X578930Y814324D01*
X578693Y814327D01*
X578456Y814336D01*
X578219Y814350D01*
X577983Y814370D01*
X577747Y814396D01*
X577512Y814428D01*
X577278Y814465D01*
X577045Y814508D01*
X576813Y814557D01*
X576582Y814611D01*
X576353Y814671D01*
X576125Y814737D01*
X575899Y814808D01*
X575674Y814884D01*
X575452Y814966D01*
X575231Y815054D01*
X575013Y815147D01*
X574797Y815245D01*
X574584Y815348D01*
X574373Y815456D01*
X574165Y815570D01*
X573959Y815688D01*
X573757Y815812D01*
X573557Y815940D01*
X573361Y816074D01*
X573168Y816212D01*
X572979Y816354D01*
X572793Y816501D01*
X572611Y816653D01*
X572432Y816809D01*
X572258Y816970D01*
X572087Y817134D01*
X571920Y817303D01*
X571758Y817475D01*
X571600Y817652D01*
X571446Y817833D01*
X571296Y818017D01*
X571151Y818204D01*
X571011Y818395D01*
X570875Y818590D01*
X570745Y818788D01*
X570619Y818989D01*
X570498Y819193D01*
X570381Y819399D01*
X570270Y819609D01*
X570165Y819821D01*
X570064Y820036D01*
X569969Y820253D01*
X569879Y820472D01*
X569794Y820694D01*
X569715Y820917D01*
X569641Y821142D01*
X569572Y821370D01*
X569510Y821598D01*
X569452Y821828D01*
X569401Y822060D01*
X569355Y822292D01*
X569315Y822526D01*
X569280Y822761D01*
X569251Y822996D01*
X569228Y823232D01*
X569211Y823469D01*
X569199Y823705D01*
X569194Y823942D01*
X569194Y824180D01*
X569199Y824417D01*
X569211Y824653D01*
X569228Y824890D01*
X569251Y825126D01*
X569280Y825361D01*
X569315Y825596D01*
X569355Y825830D01*
X569401Y826062D01*
X569452Y826294D01*
X569510Y826524D01*
X569572Y826752D01*
X569641Y826980D01*
X569715Y827205D01*
X569794Y827428D01*
X569879Y827650D01*
X569969Y827869D01*
X570064Y828086D01*
X570165Y828301D01*
X570270Y828513D01*
X570381Y828723D01*
X570498Y828930D01*
X570619Y829133D01*
X570745Y829334D01*
X570875Y829532D01*
X571011Y829727D01*
X571151Y829918D01*
X571296Y830105D01*
X571446Y830289D01*
X571600Y830470D01*
X571758Y830647D01*
X571920Y830819D01*
X572087Y830988D01*
X572258Y831152D01*
X572432Y831313D01*
X572611Y831469D01*
X572793Y831621D01*
X572979Y831768D01*
X573168Y831910D01*
X573361Y832048D01*
X573557Y832182D01*
X573757Y832310D01*
X573959Y832434D01*
X574165Y832552D01*
X574373Y832666D01*
X574584Y832774D01*
X574797Y832877D01*
X575013Y832975D01*
X575231Y833068D01*
X575452Y833156D01*
X575674Y833238D01*
X575899Y833314D01*
X576125Y833385D01*
X576353Y833451D01*
X576582Y833511D01*
X576813Y833565D01*
X577045Y833614D01*
X577278Y833657D01*
X577512Y833694D01*
X577747Y833726D01*
X577983Y833752D01*
X578219Y833772D01*
X578456Y833786D01*
X578693Y833795D01*
X578930Y833798D01*
X576982Y849376D02*
X588666Y849376D01*
X576982Y849376D02*
X576792Y849374D01*
X576603Y849367D01*
X576413Y849355D01*
X576224Y849339D01*
X576036Y849318D01*
X575848Y849293D01*
X575661Y849263D01*
X575474Y849229D01*
X575288Y849190D01*
X575104Y849146D01*
X574920Y849098D01*
X574738Y849046D01*
X574557Y848989D01*
X574378Y848928D01*
X574200Y848862D01*
X574023Y848792D01*
X573849Y848718D01*
X573676Y848640D01*
X573505Y848557D01*
X573336Y848470D01*
X573170Y848379D01*
X573006Y848285D01*
X572844Y848186D01*
X572684Y848083D01*
X572527Y847976D01*
X572373Y847866D01*
X572222Y847752D01*
X572073Y847634D01*
X571927Y847513D01*
X571784Y847388D01*
X571645Y847260D01*
X571508Y847128D01*
X571375Y846993D01*
X571245Y846855D01*
X571118Y846714D01*
X570995Y846569D01*
X570875Y846422D01*
X570760Y846272D01*
X570647Y846119D01*
X570539Y845963D01*
X570434Y845805D01*
X570333Y845645D01*
X570237Y845482D01*
X570144Y845316D01*
X570055Y845148D01*
X569970Y844979D01*
X569890Y844807D01*
X569813Y844633D01*
X569741Y844458D01*
X569674Y844281D01*
X569610Y844102D01*
X569551Y843922D01*
X569496Y843740D01*
X569446Y843557D01*
X569401Y843373D01*
X569359Y843188D01*
X569323Y843002D01*
X569290Y842815D01*
X569263Y842627D01*
X569240Y842439D01*
X569221Y842250D01*
X569207Y842061D01*
X569198Y841871D01*
X569194Y841682D01*
X569194Y841492D01*
X569198Y841303D01*
X569207Y841113D01*
X569221Y840924D01*
X569240Y840735D01*
X569263Y840547D01*
X569290Y840359D01*
X569323Y840172D01*
X569359Y839986D01*
X569401Y839801D01*
X569446Y839617D01*
X569496Y839434D01*
X569551Y839252D01*
X569610Y839072D01*
X569674Y838893D01*
X569741Y838716D01*
X569813Y838541D01*
X569890Y838367D01*
X569970Y838195D01*
X570055Y838026D01*
X570144Y837858D01*
X570237Y837693D01*
X570333Y837529D01*
X570434Y837369D01*
X570539Y837211D01*
X570647Y837055D01*
X570760Y836902D01*
X570875Y836752D01*
X570995Y836605D01*
X571118Y836460D01*
X571245Y836319D01*
X571375Y836181D01*
X571508Y836046D01*
X571645Y835914D01*
X571784Y835786D01*
X571927Y835661D01*
X572073Y835540D01*
X572222Y835422D01*
X572373Y835308D01*
X572527Y835198D01*
X572684Y835091D01*
X572844Y834988D01*
X573006Y834889D01*
X573170Y834795D01*
X573336Y834704D01*
X573505Y834617D01*
X573676Y834534D01*
X573849Y834456D01*
X574023Y834382D01*
X574200Y834312D01*
X574378Y834246D01*
X574557Y834185D01*
X574738Y834128D01*
X574920Y834076D01*
X575104Y834028D01*
X575288Y833984D01*
X575474Y833945D01*
X575661Y833911D01*
X575848Y833881D01*
X576036Y833856D01*
X576224Y833835D01*
X576413Y833819D01*
X576603Y833807D01*
X576792Y833800D01*
X576982Y833798D01*
X576982Y833797D02*
X584772Y833797D01*
X557022Y841587D02*
X551180Y841587D01*
X557022Y841587D02*
X557146Y841585D01*
X557269Y841579D01*
X557392Y841569D01*
X557515Y841556D01*
X557637Y841538D01*
X557759Y841517D01*
X557880Y841491D01*
X558000Y841462D01*
X558119Y841429D01*
X558237Y841393D01*
X558354Y841352D01*
X558470Y841308D01*
X558584Y841260D01*
X558696Y841209D01*
X558807Y841154D01*
X558916Y841096D01*
X559023Y841034D01*
X559128Y840969D01*
X559231Y840900D01*
X559331Y840829D01*
X559430Y840754D01*
X559526Y840676D01*
X559619Y840595D01*
X559710Y840511D01*
X559798Y840424D01*
X559883Y840335D01*
X559966Y840243D01*
X560045Y840148D01*
X560121Y840051D01*
X560195Y839951D01*
X560265Y839850D01*
X560332Y839746D01*
X560395Y839640D01*
X560455Y839531D01*
X560512Y839422D01*
X560565Y839310D01*
X560615Y839197D01*
X560661Y839082D01*
X560703Y838966D01*
X560741Y838849D01*
X560776Y838730D01*
X560807Y838610D01*
X560834Y838490D01*
X560858Y838368D01*
X560877Y838246D01*
X560893Y838124D01*
X560905Y838001D01*
X560913Y837877D01*
X560917Y837754D01*
X560917Y837630D01*
X560913Y837507D01*
X560905Y837383D01*
X560893Y837260D01*
X560877Y837138D01*
X560858Y837016D01*
X560834Y836894D01*
X560807Y836774D01*
X560776Y836654D01*
X560741Y836535D01*
X560703Y836418D01*
X560661Y836302D01*
X560615Y836187D01*
X560565Y836074D01*
X560512Y835962D01*
X560455Y835853D01*
X560395Y835745D01*
X560332Y835638D01*
X560265Y835534D01*
X560195Y835433D01*
X560121Y835333D01*
X560045Y835236D01*
X559966Y835141D01*
X559883Y835049D01*
X559798Y834960D01*
X559710Y834873D01*
X559619Y834789D01*
X559526Y834708D01*
X559430Y834630D01*
X559331Y834555D01*
X559231Y834484D01*
X559128Y834415D01*
X559023Y834350D01*
X558916Y834288D01*
X558807Y834230D01*
X558696Y834175D01*
X558584Y834124D01*
X558470Y834076D01*
X558354Y834032D01*
X558237Y833991D01*
X558119Y833955D01*
X558000Y833922D01*
X557880Y833893D01*
X557759Y833867D01*
X557637Y833846D01*
X557515Y833828D01*
X557392Y833815D01*
X557269Y833805D01*
X557146Y833799D01*
X557022Y833797D01*
X551180Y833797D01*
X551180Y845481D01*
X551182Y845603D01*
X551188Y845726D01*
X551197Y845848D01*
X551211Y845969D01*
X551228Y846090D01*
X551249Y846211D01*
X551274Y846331D01*
X551302Y846450D01*
X551335Y846568D01*
X551371Y846685D01*
X551410Y846800D01*
X551454Y846915D01*
X551500Y847028D01*
X551551Y847139D01*
X551605Y847249D01*
X551662Y847357D01*
X551722Y847464D01*
X551786Y847568D01*
X551854Y847670D01*
X551924Y847770D01*
X551997Y847868D01*
X552074Y847964D01*
X552153Y848057D01*
X552236Y848147D01*
X552321Y848235D01*
X552409Y848320D01*
X552499Y848403D01*
X552592Y848482D01*
X552688Y848559D01*
X552786Y848632D01*
X552886Y848702D01*
X552988Y848770D01*
X553092Y848834D01*
X553199Y848894D01*
X553307Y848951D01*
X553417Y849005D01*
X553528Y849056D01*
X553641Y849102D01*
X553756Y849146D01*
X553871Y849185D01*
X553988Y849221D01*
X554106Y849254D01*
X554225Y849282D01*
X554345Y849307D01*
X554466Y849328D01*
X554587Y849345D01*
X554708Y849359D01*
X554830Y849368D01*
X554953Y849374D01*
X555075Y849376D01*
X559943Y849376D01*
X560917Y826008D02*
X551180Y826008D01*
X1027176Y188976D02*
X1027176Y153924D01*
X1015492Y169503D02*
X1027176Y188976D01*
X1015492Y169503D02*
X1003808Y188976D01*
X1003808Y153924D01*
X986914Y167555D02*
X978151Y167555D01*
X986914Y167556D02*
X987080Y167554D01*
X987246Y167548D01*
X987412Y167538D01*
X987577Y167524D01*
X987742Y167506D01*
X987906Y167483D01*
X988070Y167457D01*
X988234Y167427D01*
X988396Y167393D01*
X988558Y167355D01*
X988718Y167313D01*
X988878Y167267D01*
X989036Y167217D01*
X989193Y167164D01*
X989349Y167106D01*
X989503Y167045D01*
X989656Y166980D01*
X989807Y166912D01*
X989957Y166839D01*
X990104Y166763D01*
X990250Y166684D01*
X990394Y166601D01*
X990535Y166514D01*
X990675Y166425D01*
X990812Y166331D01*
X990947Y166235D01*
X991080Y166135D01*
X991210Y166032D01*
X991337Y165926D01*
X991462Y165816D01*
X991585Y165704D01*
X991704Y165589D01*
X991821Y165471D01*
X991935Y165350D01*
X992045Y165226D01*
X992153Y165100D01*
X992258Y164971D01*
X992359Y164840D01*
X992457Y164706D01*
X992552Y164570D01*
X992644Y164431D01*
X992732Y164291D01*
X992817Y164148D01*
X992898Y164003D01*
X992976Y163857D01*
X993050Y163708D01*
X993120Y163558D01*
X993187Y163406D01*
X993250Y163252D01*
X993309Y163097D01*
X993365Y162941D01*
X993417Y162783D01*
X993464Y162624D01*
X993508Y162464D01*
X993548Y162303D01*
X993584Y162141D01*
X993617Y161978D01*
X993645Y161814D01*
X993669Y161650D01*
X993689Y161485D01*
X993705Y161320D01*
X993717Y161155D01*
X993725Y160989D01*
X993729Y160823D01*
X993729Y160657D01*
X993725Y160491D01*
X993717Y160325D01*
X993705Y160160D01*
X993689Y159995D01*
X993669Y159830D01*
X993645Y159666D01*
X993617Y159502D01*
X993584Y159339D01*
X993548Y159177D01*
X993508Y159016D01*
X993464Y158856D01*
X993417Y158697D01*
X993365Y158539D01*
X993309Y158383D01*
X993250Y158228D01*
X993187Y158074D01*
X993120Y157922D01*
X993050Y157772D01*
X992976Y157623D01*
X992898Y157477D01*
X992817Y157332D01*
X992732Y157189D01*
X992644Y157049D01*
X992552Y156910D01*
X992457Y156774D01*
X992359Y156640D01*
X992258Y156509D01*
X992153Y156380D01*
X992045Y156254D01*
X991935Y156130D01*
X991821Y156009D01*
X991704Y155891D01*
X991585Y155776D01*
X991462Y155664D01*
X991337Y155554D01*
X991210Y155448D01*
X991080Y155345D01*
X990947Y155245D01*
X990812Y155149D01*
X990675Y155055D01*
X990535Y154966D01*
X990394Y154879D01*
X990250Y154796D01*
X990104Y154717D01*
X989957Y154641D01*
X989807Y154568D01*
X989656Y154500D01*
X989503Y154435D01*
X989349Y154374D01*
X989193Y154316D01*
X989036Y154263D01*
X988878Y154213D01*
X988718Y154167D01*
X988558Y154125D01*
X988396Y154087D01*
X988234Y154053D01*
X988070Y154023D01*
X987906Y153997D01*
X987742Y153974D01*
X987577Y153956D01*
X987412Y153942D01*
X987246Y153932D01*
X987080Y153926D01*
X986914Y153924D01*
X978151Y153924D01*
X978151Y171450D01*
X978153Y171600D01*
X978159Y171751D01*
X978168Y171901D01*
X978182Y172051D01*
X978199Y172200D01*
X978221Y172349D01*
X978246Y172497D01*
X978275Y172645D01*
X978307Y172792D01*
X978344Y172938D01*
X978384Y173083D01*
X978428Y173227D01*
X978475Y173369D01*
X978527Y173511D01*
X978581Y173651D01*
X978640Y173789D01*
X978702Y173927D01*
X978767Y174062D01*
X978836Y174196D01*
X978909Y174327D01*
X978985Y174457D01*
X979064Y174585D01*
X979146Y174711D01*
X979232Y174835D01*
X979320Y174956D01*
X979412Y175076D01*
X979507Y175192D01*
X979605Y175307D01*
X979706Y175418D01*
X979809Y175527D01*
X979916Y175634D01*
X980025Y175737D01*
X980136Y175838D01*
X980251Y175936D01*
X980367Y176031D01*
X980487Y176123D01*
X980608Y176211D01*
X980732Y176297D01*
X980858Y176379D01*
X980986Y176458D01*
X981116Y176534D01*
X981247Y176607D01*
X981381Y176676D01*
X981516Y176741D01*
X981654Y176803D01*
X981792Y176862D01*
X981932Y176916D01*
X982074Y176968D01*
X982216Y177015D01*
X982360Y177059D01*
X982505Y177099D01*
X982651Y177136D01*
X982798Y177168D01*
X982946Y177197D01*
X983094Y177222D01*
X983243Y177244D01*
X983392Y177261D01*
X983542Y177275D01*
X983692Y177284D01*
X983843Y177290D01*
X983993Y177292D01*
X991782Y177292D01*
X966915Y177292D02*
X966915Y153924D01*
X967888Y187029D02*
X967888Y188976D01*
X965941Y188976D01*
X965941Y187029D01*
X967888Y187029D01*
X955654Y177292D02*
X955654Y153924D01*
X955654Y177292D02*
X945917Y177292D01*
X945767Y177290D01*
X945616Y177284D01*
X945466Y177275D01*
X945316Y177261D01*
X945167Y177244D01*
X945018Y177222D01*
X944870Y177197D01*
X944722Y177168D01*
X944575Y177136D01*
X944429Y177099D01*
X944284Y177059D01*
X944140Y177015D01*
X943998Y176968D01*
X943856Y176916D01*
X943716Y176862D01*
X943578Y176803D01*
X943440Y176741D01*
X943305Y176676D01*
X943171Y176607D01*
X943040Y176534D01*
X942910Y176458D01*
X942782Y176379D01*
X942656Y176297D01*
X942532Y176211D01*
X942411Y176123D01*
X942291Y176031D01*
X942175Y175936D01*
X942060Y175838D01*
X941949Y175737D01*
X941840Y175634D01*
X941733Y175527D01*
X941630Y175418D01*
X941529Y175307D01*
X941431Y175192D01*
X941336Y175076D01*
X941244Y174956D01*
X941156Y174835D01*
X941070Y174711D01*
X940988Y174585D01*
X940909Y174457D01*
X940833Y174327D01*
X940760Y174196D01*
X940691Y174062D01*
X940626Y173927D01*
X940564Y173789D01*
X940505Y173651D01*
X940451Y173511D01*
X940399Y173369D01*
X940352Y173227D01*
X940308Y173083D01*
X940268Y172938D01*
X940231Y172792D01*
X940199Y172645D01*
X940170Y172497D01*
X940145Y172349D01*
X940123Y172200D01*
X940106Y172051D01*
X940092Y171901D01*
X940083Y171751D01*
X940077Y171600D01*
X940075Y171450D01*
X940075Y153924D01*
X924094Y153924D02*
X914358Y153924D01*
X924094Y153924D02*
X924244Y153926D01*
X924395Y153932D01*
X924545Y153941D01*
X924695Y153955D01*
X924844Y153972D01*
X924993Y153994D01*
X925141Y154019D01*
X925289Y154048D01*
X925436Y154080D01*
X925582Y154117D01*
X925727Y154157D01*
X925871Y154201D01*
X926013Y154248D01*
X926155Y154300D01*
X926295Y154354D01*
X926433Y154413D01*
X926571Y154475D01*
X926706Y154540D01*
X926840Y154609D01*
X926971Y154682D01*
X927101Y154758D01*
X927229Y154837D01*
X927355Y154919D01*
X927479Y155005D01*
X927600Y155093D01*
X927720Y155185D01*
X927836Y155280D01*
X927951Y155378D01*
X928062Y155479D01*
X928171Y155582D01*
X928278Y155689D01*
X928381Y155798D01*
X928482Y155909D01*
X928580Y156024D01*
X928675Y156140D01*
X928767Y156260D01*
X928855Y156381D01*
X928941Y156505D01*
X929023Y156631D01*
X929102Y156759D01*
X929178Y156889D01*
X929251Y157020D01*
X929320Y157154D01*
X929385Y157289D01*
X929447Y157427D01*
X929506Y157565D01*
X929560Y157705D01*
X929612Y157847D01*
X929659Y157989D01*
X929703Y158133D01*
X929743Y158278D01*
X929780Y158424D01*
X929812Y158571D01*
X929841Y158719D01*
X929866Y158867D01*
X929888Y159016D01*
X929905Y159165D01*
X929919Y159315D01*
X929928Y159465D01*
X929934Y159616D01*
X929936Y159766D01*
X929936Y169503D01*
X929934Y169693D01*
X929927Y169882D01*
X929915Y170072D01*
X929899Y170261D01*
X929878Y170449D01*
X929853Y170637D01*
X929823Y170824D01*
X929789Y171011D01*
X929750Y171197D01*
X929706Y171381D01*
X929658Y171565D01*
X929606Y171747D01*
X929549Y171928D01*
X929488Y172107D01*
X929422Y172285D01*
X929352Y172462D01*
X929278Y172636D01*
X929200Y172809D01*
X929117Y172980D01*
X929030Y173149D01*
X928939Y173315D01*
X928845Y173479D01*
X928746Y173641D01*
X928643Y173801D01*
X928536Y173958D01*
X928426Y174112D01*
X928312Y174263D01*
X928194Y174412D01*
X928073Y174558D01*
X927948Y174701D01*
X927820Y174840D01*
X927688Y174977D01*
X927553Y175110D01*
X927415Y175240D01*
X927274Y175367D01*
X927129Y175490D01*
X926982Y175610D01*
X926832Y175725D01*
X926679Y175838D01*
X926523Y175946D01*
X926365Y176051D01*
X926205Y176152D01*
X926042Y176248D01*
X925876Y176341D01*
X925708Y176430D01*
X925539Y176515D01*
X925367Y176595D01*
X925193Y176672D01*
X925018Y176744D01*
X924841Y176811D01*
X924662Y176875D01*
X924482Y176934D01*
X924300Y176989D01*
X924117Y177039D01*
X923933Y177084D01*
X923748Y177126D01*
X923562Y177162D01*
X923375Y177195D01*
X923187Y177222D01*
X922999Y177245D01*
X922810Y177264D01*
X922621Y177278D01*
X922431Y177287D01*
X922242Y177291D01*
X922052Y177291D01*
X921863Y177287D01*
X921673Y177278D01*
X921484Y177264D01*
X921295Y177245D01*
X921107Y177222D01*
X920919Y177195D01*
X920732Y177162D01*
X920546Y177126D01*
X920361Y177084D01*
X920177Y177039D01*
X919994Y176989D01*
X919812Y176934D01*
X919632Y176875D01*
X919453Y176811D01*
X919276Y176744D01*
X919101Y176672D01*
X918927Y176595D01*
X918755Y176515D01*
X918586Y176430D01*
X918418Y176341D01*
X918253Y176248D01*
X918089Y176152D01*
X917929Y176051D01*
X917771Y175946D01*
X917615Y175838D01*
X917462Y175725D01*
X917312Y175610D01*
X917165Y175490D01*
X917020Y175367D01*
X916879Y175240D01*
X916741Y175110D01*
X916606Y174977D01*
X916474Y174840D01*
X916346Y174701D01*
X916221Y174558D01*
X916100Y174412D01*
X915982Y174263D01*
X915868Y174112D01*
X915758Y173958D01*
X915651Y173801D01*
X915548Y173641D01*
X915449Y173479D01*
X915355Y173315D01*
X915264Y173149D01*
X915177Y172980D01*
X915094Y172809D01*
X915016Y172636D01*
X914942Y172462D01*
X914872Y172285D01*
X914806Y172107D01*
X914745Y171928D01*
X914688Y171747D01*
X914636Y171565D01*
X914588Y171381D01*
X914544Y171197D01*
X914505Y171011D01*
X914471Y170824D01*
X914441Y170637D01*
X914416Y170449D01*
X914395Y170261D01*
X914379Y170072D01*
X914367Y169882D01*
X914360Y169693D01*
X914358Y169503D01*
X914358Y165608D01*
X929936Y165608D01*
X904219Y153924D02*
X904219Y177292D01*
X894482Y177292D01*
X894332Y177290D01*
X894181Y177284D01*
X894031Y177275D01*
X893881Y177261D01*
X893732Y177244D01*
X893583Y177222D01*
X893435Y177197D01*
X893287Y177168D01*
X893140Y177136D01*
X892994Y177099D01*
X892849Y177059D01*
X892705Y177015D01*
X892563Y176968D01*
X892421Y176916D01*
X892281Y176862D01*
X892143Y176803D01*
X892005Y176741D01*
X891870Y176676D01*
X891736Y176607D01*
X891605Y176534D01*
X891475Y176458D01*
X891347Y176379D01*
X891221Y176297D01*
X891097Y176211D01*
X890976Y176123D01*
X890856Y176031D01*
X890740Y175936D01*
X890625Y175838D01*
X890514Y175737D01*
X890405Y175634D01*
X890298Y175527D01*
X890195Y175418D01*
X890094Y175307D01*
X889996Y175192D01*
X889901Y175076D01*
X889809Y174956D01*
X889721Y174835D01*
X889635Y174711D01*
X889553Y174585D01*
X889474Y174457D01*
X889398Y174327D01*
X889325Y174196D01*
X889256Y174062D01*
X889191Y173927D01*
X889129Y173789D01*
X889070Y173651D01*
X889016Y173511D01*
X888964Y173369D01*
X888917Y173227D01*
X888873Y173083D01*
X888833Y172938D01*
X888796Y172792D01*
X888764Y172645D01*
X888735Y172497D01*
X888710Y172349D01*
X888688Y172200D01*
X888671Y172051D01*
X888657Y171901D01*
X888648Y171751D01*
X888642Y171600D01*
X888640Y171450D01*
X888640Y153924D01*
X880322Y177292D02*
X868638Y177292D01*
X876427Y188976D02*
X876427Y159766D01*
X876425Y159616D01*
X876419Y159465D01*
X876410Y159315D01*
X876396Y159165D01*
X876379Y159016D01*
X876357Y158867D01*
X876332Y158719D01*
X876303Y158571D01*
X876271Y158424D01*
X876234Y158278D01*
X876194Y158133D01*
X876150Y157989D01*
X876103Y157847D01*
X876051Y157705D01*
X875997Y157565D01*
X875938Y157427D01*
X875876Y157289D01*
X875811Y157154D01*
X875742Y157020D01*
X875669Y156889D01*
X875593Y156759D01*
X875514Y156631D01*
X875432Y156505D01*
X875346Y156381D01*
X875258Y156260D01*
X875166Y156140D01*
X875071Y156024D01*
X874973Y155909D01*
X874872Y155798D01*
X874769Y155689D01*
X874662Y155582D01*
X874553Y155479D01*
X874442Y155378D01*
X874327Y155280D01*
X874211Y155185D01*
X874091Y155093D01*
X873970Y155005D01*
X873846Y154919D01*
X873720Y154837D01*
X873592Y154758D01*
X873462Y154682D01*
X873331Y154609D01*
X873197Y154540D01*
X873062Y154475D01*
X872924Y154413D01*
X872786Y154354D01*
X872646Y154300D01*
X872504Y154248D01*
X872362Y154201D01*
X872218Y154157D01*
X872073Y154117D01*
X871927Y154080D01*
X871780Y154048D01*
X871632Y154019D01*
X871484Y153994D01*
X871335Y153972D01*
X871186Y153955D01*
X871036Y153941D01*
X870886Y153932D01*
X870735Y153926D01*
X870585Y153924D01*
X868638Y153924D01*
X859282Y153924D02*
X859282Y177292D01*
X860256Y187029D02*
X860256Y188976D01*
X858309Y188976D01*
X858309Y187029D01*
X860256Y187029D01*
X832824Y188976D02*
X832824Y153924D01*
X813350Y153924D02*
X832824Y188976D01*
X813350Y188976D02*
X813350Y153924D01*
X802132Y153924D02*
X802132Y177292D01*
X803106Y187029D02*
X803106Y188976D01*
X801158Y188976D01*
X801158Y187029D01*
X803106Y187029D01*
X785990Y153924D02*
X778201Y153924D01*
X785990Y153924D02*
X786140Y153926D01*
X786291Y153932D01*
X786441Y153941D01*
X786591Y153955D01*
X786740Y153972D01*
X786889Y153994D01*
X787037Y154019D01*
X787185Y154048D01*
X787332Y154080D01*
X787478Y154117D01*
X787623Y154157D01*
X787767Y154201D01*
X787909Y154248D01*
X788051Y154300D01*
X788191Y154354D01*
X788329Y154413D01*
X788467Y154475D01*
X788602Y154540D01*
X788736Y154609D01*
X788867Y154682D01*
X788997Y154758D01*
X789125Y154837D01*
X789251Y154919D01*
X789375Y155005D01*
X789496Y155093D01*
X789616Y155185D01*
X789732Y155280D01*
X789847Y155378D01*
X789958Y155479D01*
X790067Y155582D01*
X790174Y155689D01*
X790277Y155798D01*
X790378Y155909D01*
X790476Y156024D01*
X790571Y156140D01*
X790663Y156260D01*
X790751Y156381D01*
X790837Y156505D01*
X790919Y156631D01*
X790998Y156759D01*
X791074Y156889D01*
X791147Y157020D01*
X791216Y157154D01*
X791281Y157289D01*
X791343Y157427D01*
X791402Y157565D01*
X791456Y157705D01*
X791508Y157847D01*
X791555Y157989D01*
X791599Y158133D01*
X791639Y158278D01*
X791676Y158424D01*
X791708Y158571D01*
X791737Y158719D01*
X791762Y158867D01*
X791784Y159016D01*
X791801Y159165D01*
X791815Y159315D01*
X791824Y159465D01*
X791830Y159616D01*
X791832Y159766D01*
X791832Y171450D01*
X791830Y171600D01*
X791824Y171751D01*
X791815Y171901D01*
X791801Y172051D01*
X791784Y172200D01*
X791762Y172349D01*
X791737Y172497D01*
X791708Y172645D01*
X791676Y172792D01*
X791639Y172938D01*
X791599Y173083D01*
X791555Y173227D01*
X791508Y173369D01*
X791456Y173511D01*
X791402Y173651D01*
X791343Y173789D01*
X791281Y173927D01*
X791216Y174062D01*
X791147Y174196D01*
X791074Y174327D01*
X790998Y174457D01*
X790919Y174585D01*
X790837Y174711D01*
X790751Y174835D01*
X790663Y174956D01*
X790571Y175076D01*
X790476Y175192D01*
X790378Y175307D01*
X790277Y175418D01*
X790174Y175527D01*
X790067Y175634D01*
X789958Y175737D01*
X789847Y175838D01*
X789732Y175936D01*
X789616Y176031D01*
X789496Y176123D01*
X789375Y176211D01*
X789251Y176297D01*
X789125Y176379D01*
X788997Y176458D01*
X788867Y176534D01*
X788736Y176607D01*
X788602Y176676D01*
X788467Y176741D01*
X788329Y176803D01*
X788191Y176862D01*
X788051Y176916D01*
X787909Y176968D01*
X787767Y177015D01*
X787623Y177059D01*
X787478Y177099D01*
X787332Y177136D01*
X787185Y177168D01*
X787037Y177197D01*
X786889Y177222D01*
X786740Y177244D01*
X786591Y177261D01*
X786441Y177275D01*
X786291Y177284D01*
X786140Y177290D01*
X785990Y177292D01*
X778201Y177292D01*
X769917Y169503D02*
X769917Y161713D01*
X769916Y169503D02*
X769914Y169693D01*
X769907Y169882D01*
X769895Y170072D01*
X769879Y170261D01*
X769858Y170449D01*
X769833Y170637D01*
X769803Y170824D01*
X769769Y171011D01*
X769730Y171197D01*
X769686Y171381D01*
X769638Y171565D01*
X769586Y171747D01*
X769529Y171928D01*
X769468Y172107D01*
X769402Y172285D01*
X769332Y172462D01*
X769258Y172636D01*
X769180Y172809D01*
X769097Y172980D01*
X769010Y173149D01*
X768919Y173315D01*
X768825Y173479D01*
X768726Y173641D01*
X768623Y173801D01*
X768516Y173958D01*
X768406Y174112D01*
X768292Y174263D01*
X768174Y174412D01*
X768053Y174558D01*
X767928Y174701D01*
X767800Y174840D01*
X767668Y174977D01*
X767533Y175110D01*
X767395Y175240D01*
X767254Y175367D01*
X767109Y175490D01*
X766962Y175610D01*
X766812Y175725D01*
X766659Y175838D01*
X766503Y175946D01*
X766345Y176051D01*
X766185Y176152D01*
X766022Y176248D01*
X765856Y176341D01*
X765688Y176430D01*
X765519Y176515D01*
X765347Y176595D01*
X765173Y176672D01*
X764998Y176744D01*
X764821Y176811D01*
X764642Y176875D01*
X764462Y176934D01*
X764280Y176989D01*
X764097Y177039D01*
X763913Y177084D01*
X763728Y177126D01*
X763542Y177162D01*
X763355Y177195D01*
X763167Y177222D01*
X762979Y177245D01*
X762790Y177264D01*
X762601Y177278D01*
X762411Y177287D01*
X762222Y177291D01*
X762032Y177291D01*
X761843Y177287D01*
X761653Y177278D01*
X761464Y177264D01*
X761275Y177245D01*
X761087Y177222D01*
X760899Y177195D01*
X760712Y177162D01*
X760526Y177126D01*
X760341Y177084D01*
X760157Y177039D01*
X759974Y176989D01*
X759792Y176934D01*
X759612Y176875D01*
X759433Y176811D01*
X759256Y176744D01*
X759081Y176672D01*
X758907Y176595D01*
X758735Y176515D01*
X758566Y176430D01*
X758398Y176341D01*
X758233Y176248D01*
X758069Y176152D01*
X757909Y176051D01*
X757751Y175946D01*
X757595Y175838D01*
X757442Y175725D01*
X757292Y175610D01*
X757145Y175490D01*
X757000Y175367D01*
X756859Y175240D01*
X756721Y175110D01*
X756586Y174977D01*
X756454Y174840D01*
X756326Y174701D01*
X756201Y174558D01*
X756080Y174412D01*
X755962Y174263D01*
X755848Y174112D01*
X755738Y173958D01*
X755631Y173801D01*
X755528Y173641D01*
X755429Y173479D01*
X755335Y173315D01*
X755244Y173149D01*
X755157Y172980D01*
X755074Y172809D01*
X754996Y172636D01*
X754922Y172462D01*
X754852Y172285D01*
X754786Y172107D01*
X754725Y171928D01*
X754668Y171747D01*
X754616Y171565D01*
X754568Y171381D01*
X754524Y171197D01*
X754485Y171011D01*
X754451Y170824D01*
X754421Y170637D01*
X754396Y170449D01*
X754375Y170261D01*
X754359Y170072D01*
X754347Y169882D01*
X754340Y169693D01*
X754338Y169503D01*
X754338Y161713D01*
X754340Y161523D01*
X754347Y161334D01*
X754359Y161144D01*
X754375Y160955D01*
X754396Y160767D01*
X754421Y160579D01*
X754451Y160392D01*
X754485Y160205D01*
X754524Y160019D01*
X754568Y159835D01*
X754616Y159651D01*
X754668Y159469D01*
X754725Y159288D01*
X754786Y159109D01*
X754852Y158931D01*
X754922Y158754D01*
X754996Y158580D01*
X755074Y158407D01*
X755157Y158236D01*
X755244Y158067D01*
X755335Y157901D01*
X755429Y157737D01*
X755528Y157575D01*
X755631Y157415D01*
X755738Y157258D01*
X755848Y157104D01*
X755962Y156953D01*
X756080Y156804D01*
X756201Y156658D01*
X756326Y156515D01*
X756454Y156376D01*
X756586Y156239D01*
X756721Y156106D01*
X756859Y155976D01*
X757000Y155849D01*
X757145Y155726D01*
X757292Y155606D01*
X757442Y155491D01*
X757595Y155378D01*
X757751Y155270D01*
X757909Y155165D01*
X758069Y155064D01*
X758233Y154968D01*
X758398Y154875D01*
X758566Y154786D01*
X758735Y154701D01*
X758907Y154621D01*
X759081Y154544D01*
X759256Y154472D01*
X759433Y154405D01*
X759612Y154341D01*
X759792Y154282D01*
X759974Y154227D01*
X760157Y154177D01*
X760341Y154132D01*
X760526Y154090D01*
X760712Y154054D01*
X760899Y154021D01*
X761087Y153994D01*
X761275Y153971D01*
X761464Y153952D01*
X761653Y153938D01*
X761843Y153929D01*
X762032Y153925D01*
X762222Y153925D01*
X762411Y153929D01*
X762601Y153938D01*
X762790Y153952D01*
X762979Y153971D01*
X763167Y153994D01*
X763355Y154021D01*
X763542Y154054D01*
X763728Y154090D01*
X763913Y154132D01*
X764097Y154177D01*
X764280Y154227D01*
X764462Y154282D01*
X764642Y154341D01*
X764821Y154405D01*
X764998Y154472D01*
X765173Y154544D01*
X765347Y154621D01*
X765519Y154701D01*
X765688Y154786D01*
X765856Y154875D01*
X766022Y154968D01*
X766185Y155064D01*
X766345Y155165D01*
X766503Y155270D01*
X766659Y155378D01*
X766812Y155491D01*
X766962Y155606D01*
X767109Y155726D01*
X767254Y155849D01*
X767395Y155976D01*
X767533Y156106D01*
X767668Y156239D01*
X767800Y156376D01*
X767928Y156515D01*
X768053Y156658D01*
X768174Y156804D01*
X768292Y156953D01*
X768406Y157104D01*
X768516Y157258D01*
X768623Y157415D01*
X768726Y157575D01*
X768825Y157737D01*
X768919Y157901D01*
X769010Y158067D01*
X769097Y158236D01*
X769180Y158407D01*
X769258Y158580D01*
X769332Y158754D01*
X769402Y158931D01*
X769468Y159109D01*
X769529Y159288D01*
X769586Y159469D01*
X769638Y159651D01*
X769686Y159835D01*
X769730Y160019D01*
X769769Y160205D01*
X769803Y160392D01*
X769833Y160579D01*
X769858Y160767D01*
X769879Y160955D01*
X769895Y161144D01*
X769907Y161334D01*
X769914Y161523D01*
X769916Y161713D01*
X744114Y159766D02*
X744114Y188976D01*
X744114Y159766D02*
X744112Y159616D01*
X744106Y159465D01*
X744097Y159315D01*
X744083Y159165D01*
X744066Y159016D01*
X744044Y158867D01*
X744019Y158719D01*
X743990Y158571D01*
X743958Y158424D01*
X743921Y158278D01*
X743881Y158133D01*
X743837Y157989D01*
X743790Y157847D01*
X743738Y157705D01*
X743684Y157565D01*
X743625Y157427D01*
X743563Y157289D01*
X743498Y157154D01*
X743429Y157020D01*
X743356Y156889D01*
X743280Y156759D01*
X743201Y156631D01*
X743119Y156505D01*
X743033Y156381D01*
X742945Y156260D01*
X742853Y156140D01*
X742758Y156024D01*
X742660Y155909D01*
X742559Y155798D01*
X742456Y155689D01*
X742349Y155582D01*
X742240Y155479D01*
X742129Y155378D01*
X742014Y155280D01*
X741898Y155185D01*
X741778Y155093D01*
X741657Y155005D01*
X741533Y154919D01*
X741407Y154837D01*
X741279Y154758D01*
X741149Y154682D01*
X741018Y154609D01*
X740884Y154540D01*
X740749Y154475D01*
X740611Y154413D01*
X740473Y154354D01*
X740333Y154300D01*
X740191Y154248D01*
X740049Y154201D01*
X739905Y154157D01*
X739760Y154117D01*
X739614Y154080D01*
X739467Y154048D01*
X739319Y154019D01*
X739171Y153994D01*
X739022Y153972D01*
X738873Y153955D01*
X738723Y153941D01*
X738573Y153932D01*
X738422Y153926D01*
X738272Y153924D01*
X723072Y167555D02*
X714309Y167555D01*
X723072Y167556D02*
X723238Y167554D01*
X723404Y167548D01*
X723570Y167538D01*
X723735Y167524D01*
X723900Y167506D01*
X724064Y167483D01*
X724228Y167457D01*
X724392Y167427D01*
X724554Y167393D01*
X724716Y167355D01*
X724876Y167313D01*
X725036Y167267D01*
X725194Y167217D01*
X725351Y167164D01*
X725507Y167106D01*
X725661Y167045D01*
X725814Y166980D01*
X725965Y166912D01*
X726115Y166839D01*
X726262Y166763D01*
X726408Y166684D01*
X726552Y166601D01*
X726693Y166514D01*
X726833Y166425D01*
X726970Y166331D01*
X727105Y166235D01*
X727238Y166135D01*
X727368Y166032D01*
X727495Y165926D01*
X727620Y165816D01*
X727743Y165704D01*
X727862Y165589D01*
X727979Y165471D01*
X728093Y165350D01*
X728203Y165226D01*
X728311Y165100D01*
X728416Y164971D01*
X728517Y164840D01*
X728615Y164706D01*
X728710Y164570D01*
X728802Y164431D01*
X728890Y164291D01*
X728975Y164148D01*
X729056Y164003D01*
X729134Y163857D01*
X729208Y163708D01*
X729278Y163558D01*
X729345Y163406D01*
X729408Y163252D01*
X729467Y163097D01*
X729523Y162941D01*
X729575Y162783D01*
X729622Y162624D01*
X729666Y162464D01*
X729706Y162303D01*
X729742Y162141D01*
X729775Y161978D01*
X729803Y161814D01*
X729827Y161650D01*
X729847Y161485D01*
X729863Y161320D01*
X729875Y161155D01*
X729883Y160989D01*
X729887Y160823D01*
X729887Y160657D01*
X729883Y160491D01*
X729875Y160325D01*
X729863Y160160D01*
X729847Y159995D01*
X729827Y159830D01*
X729803Y159666D01*
X729775Y159502D01*
X729742Y159339D01*
X729706Y159177D01*
X729666Y159016D01*
X729622Y158856D01*
X729575Y158697D01*
X729523Y158539D01*
X729467Y158383D01*
X729408Y158228D01*
X729345Y158074D01*
X729278Y157922D01*
X729208Y157772D01*
X729134Y157623D01*
X729056Y157477D01*
X728975Y157332D01*
X728890Y157189D01*
X728802Y157049D01*
X728710Y156910D01*
X728615Y156774D01*
X728517Y156640D01*
X728416Y156509D01*
X728311Y156380D01*
X728203Y156254D01*
X728093Y156130D01*
X727979Y156009D01*
X727862Y155891D01*
X727743Y155776D01*
X727620Y155664D01*
X727495Y155554D01*
X727368Y155448D01*
X727238Y155345D01*
X727105Y155245D01*
X726970Y155149D01*
X726833Y155055D01*
X726693Y154966D01*
X726552Y154879D01*
X726408Y154796D01*
X726262Y154717D01*
X726115Y154641D01*
X725965Y154568D01*
X725814Y154500D01*
X725661Y154435D01*
X725507Y154374D01*
X725351Y154316D01*
X725194Y154263D01*
X725036Y154213D01*
X724876Y154167D01*
X724716Y154125D01*
X724554Y154087D01*
X724392Y154053D01*
X724228Y154023D01*
X724064Y153997D01*
X723900Y153974D01*
X723735Y153956D01*
X723570Y153942D01*
X723404Y153932D01*
X723238Y153926D01*
X723072Y153924D01*
X714309Y153924D01*
X714309Y171450D01*
X714311Y171600D01*
X714317Y171751D01*
X714326Y171901D01*
X714340Y172051D01*
X714357Y172200D01*
X714379Y172349D01*
X714404Y172497D01*
X714433Y172645D01*
X714465Y172792D01*
X714502Y172938D01*
X714542Y173083D01*
X714586Y173227D01*
X714633Y173369D01*
X714685Y173511D01*
X714739Y173651D01*
X714798Y173789D01*
X714860Y173927D01*
X714925Y174062D01*
X714994Y174196D01*
X715067Y174327D01*
X715143Y174457D01*
X715222Y174585D01*
X715304Y174711D01*
X715390Y174835D01*
X715478Y174956D01*
X715570Y175076D01*
X715665Y175192D01*
X715763Y175307D01*
X715864Y175418D01*
X715967Y175527D01*
X716074Y175634D01*
X716183Y175737D01*
X716294Y175838D01*
X716409Y175936D01*
X716525Y176031D01*
X716645Y176123D01*
X716766Y176211D01*
X716890Y176297D01*
X717016Y176379D01*
X717144Y176458D01*
X717274Y176534D01*
X717405Y176607D01*
X717539Y176676D01*
X717674Y176741D01*
X717812Y176803D01*
X717950Y176862D01*
X718090Y176916D01*
X718232Y176968D01*
X718374Y177015D01*
X718518Y177059D01*
X718663Y177099D01*
X718809Y177136D01*
X718956Y177168D01*
X719104Y177197D01*
X719252Y177222D01*
X719401Y177244D01*
X719550Y177261D01*
X719700Y177275D01*
X719850Y177284D01*
X720001Y177290D01*
X720151Y177292D01*
X727940Y177292D01*
X701273Y167555D02*
X691536Y163661D01*
X701273Y167555D02*
X701404Y167610D01*
X701533Y167668D01*
X701660Y167729D01*
X701786Y167794D01*
X701910Y167863D01*
X702032Y167935D01*
X702151Y168011D01*
X702269Y168090D01*
X702384Y168172D01*
X702497Y168257D01*
X702608Y168345D01*
X702716Y168437D01*
X702821Y168531D01*
X702924Y168629D01*
X703024Y168729D01*
X703121Y168832D01*
X703215Y168938D01*
X703306Y169046D01*
X703394Y169157D01*
X703479Y169270D01*
X703561Y169386D01*
X703639Y169503D01*
X703714Y169623D01*
X703786Y169745D01*
X703854Y169869D01*
X703919Y169995D01*
X703980Y170123D01*
X704038Y170252D01*
X704092Y170383D01*
X704142Y170515D01*
X704189Y170649D01*
X704232Y170784D01*
X704271Y170920D01*
X704306Y171057D01*
X704337Y171195D01*
X704364Y171334D01*
X704388Y171473D01*
X704408Y171614D01*
X704423Y171754D01*
X704435Y171895D01*
X704443Y172037D01*
X704447Y172178D01*
X704446Y172320D01*
X704442Y172461D01*
X704434Y172602D01*
X704422Y172743D01*
X704406Y172884D01*
X704386Y173024D01*
X704362Y173164D01*
X704335Y173302D01*
X704303Y173440D01*
X704267Y173577D01*
X704228Y173713D01*
X704185Y173848D01*
X704138Y173982D01*
X704088Y174114D01*
X704033Y174245D01*
X703975Y174374D01*
X703914Y174501D01*
X703849Y174627D01*
X703780Y174751D01*
X703708Y174873D01*
X703633Y174992D01*
X703554Y175110D01*
X703472Y175225D01*
X703387Y175338D01*
X703298Y175449D01*
X703207Y175557D01*
X703113Y175663D01*
X703015Y175765D01*
X702915Y175865D01*
X702812Y175963D01*
X702707Y176057D01*
X702598Y176148D01*
X702488Y176236D01*
X702375Y176321D01*
X702259Y176403D01*
X702141Y176482D01*
X702022Y176557D01*
X701900Y176629D01*
X701776Y176697D01*
X701650Y176762D01*
X701522Y176823D01*
X701393Y176881D01*
X701262Y176935D01*
X701130Y176986D01*
X700996Y177032D01*
X700862Y177075D01*
X700726Y177114D01*
X700588Y177150D01*
X700450Y177181D01*
X700312Y177209D01*
X700172Y177232D01*
X700032Y177252D01*
X699891Y177268D01*
X699750Y177280D01*
X699609Y177288D01*
X699467Y177292D01*
X699326Y177291D01*
X699326Y177292D02*
X698795Y177278D01*
X698264Y177251D01*
X697733Y177211D01*
X697204Y177159D01*
X696676Y177094D01*
X696150Y177017D01*
X695626Y176926D01*
X695105Y176824D01*
X694586Y176708D01*
X694069Y176580D01*
X693557Y176440D01*
X693047Y176288D01*
X692542Y176123D01*
X692040Y175946D01*
X691543Y175758D01*
X691051Y175557D01*
X690563Y175344D01*
X691537Y163661D02*
X691406Y163606D01*
X691277Y163548D01*
X691150Y163487D01*
X691024Y163422D01*
X690900Y163353D01*
X690779Y163281D01*
X690659Y163205D01*
X690541Y163126D01*
X690426Y163044D01*
X690313Y162959D01*
X690202Y162871D01*
X690094Y162779D01*
X689989Y162685D01*
X689886Y162587D01*
X689786Y162487D01*
X689689Y162384D01*
X689595Y162278D01*
X689504Y162170D01*
X689416Y162059D01*
X689331Y161946D01*
X689249Y161830D01*
X689171Y161713D01*
X689096Y161593D01*
X689024Y161471D01*
X688956Y161347D01*
X688891Y161221D01*
X688830Y161093D01*
X688772Y160964D01*
X688718Y160833D01*
X688668Y160701D01*
X688621Y160567D01*
X688578Y160432D01*
X688539Y160296D01*
X688504Y160159D01*
X688473Y160021D01*
X688446Y159882D01*
X688422Y159743D01*
X688402Y159602D01*
X688387Y159462D01*
X688375Y159321D01*
X688367Y159179D01*
X688363Y159038D01*
X688364Y158896D01*
X688368Y158755D01*
X688376Y158614D01*
X688388Y158473D01*
X688404Y158332D01*
X688424Y158192D01*
X688448Y158052D01*
X688475Y157914D01*
X688507Y157776D01*
X688543Y157639D01*
X688582Y157503D01*
X688625Y157368D01*
X688672Y157234D01*
X688722Y157102D01*
X688777Y156971D01*
X688835Y156842D01*
X688896Y156715D01*
X688961Y156589D01*
X689030Y156465D01*
X689102Y156343D01*
X689177Y156224D01*
X689256Y156106D01*
X689338Y155991D01*
X689423Y155878D01*
X689512Y155767D01*
X689603Y155659D01*
X689697Y155553D01*
X689795Y155451D01*
X689895Y155351D01*
X689998Y155253D01*
X690103Y155159D01*
X690211Y155068D01*
X690322Y154980D01*
X690435Y154895D01*
X690551Y154813D01*
X690669Y154734D01*
X690788Y154659D01*
X690910Y154587D01*
X691034Y154519D01*
X691160Y154454D01*
X691288Y154393D01*
X691417Y154335D01*
X691548Y154281D01*
X691680Y154230D01*
X691814Y154184D01*
X691948Y154141D01*
X692084Y154102D01*
X692222Y154066D01*
X692360Y154035D01*
X692498Y154007D01*
X692638Y153984D01*
X692778Y153964D01*
X692919Y153948D01*
X693060Y153936D01*
X693201Y153928D01*
X693343Y153924D01*
X693484Y153925D01*
X693484Y153924D02*
X694264Y153945D01*
X695045Y153984D01*
X695824Y154041D01*
X696601Y154117D01*
X697376Y154211D01*
X698149Y154323D01*
X698919Y154454D01*
X699686Y154602D01*
X700449Y154769D01*
X701208Y154954D01*
X701963Y155157D01*
X702712Y155378D01*
X703456Y155616D01*
X704194Y155872D01*
X664231Y153924D02*
X652547Y153924D01*
X652359Y153926D01*
X652171Y153933D01*
X651983Y153944D01*
X651795Y153960D01*
X651608Y153981D01*
X651422Y154006D01*
X651236Y154035D01*
X651051Y154069D01*
X650866Y154108D01*
X650683Y154150D01*
X650501Y154198D01*
X650320Y154249D01*
X650140Y154305D01*
X649962Y154366D01*
X649785Y154430D01*
X649610Y154499D01*
X649436Y154572D01*
X649265Y154649D01*
X649095Y154731D01*
X648927Y154816D01*
X648762Y154906D01*
X648598Y154999D01*
X648437Y155096D01*
X648279Y155198D01*
X648122Y155303D01*
X647969Y155412D01*
X647818Y155524D01*
X647670Y155640D01*
X647524Y155760D01*
X647382Y155883D01*
X647243Y156009D01*
X647106Y156139D01*
X646973Y156272D01*
X646843Y156409D01*
X646717Y156548D01*
X646594Y156690D01*
X646474Y156836D01*
X646358Y156984D01*
X646246Y157135D01*
X646137Y157288D01*
X646032Y157445D01*
X645930Y157603D01*
X645833Y157764D01*
X645740Y157928D01*
X645650Y158093D01*
X645565Y158261D01*
X645483Y158431D01*
X645406Y158602D01*
X645333Y158776D01*
X645264Y158951D01*
X645200Y159128D01*
X645139Y159306D01*
X645083Y159486D01*
X645032Y159667D01*
X644984Y159849D01*
X644942Y160032D01*
X644903Y160217D01*
X644869Y160402D01*
X644840Y160588D01*
X644815Y160774D01*
X644794Y160961D01*
X644778Y161149D01*
X644767Y161337D01*
X644760Y161525D01*
X644758Y161713D01*
X644758Y165608D01*
X644760Y165796D01*
X644767Y165984D01*
X644778Y166172D01*
X644794Y166360D01*
X644815Y166547D01*
X644840Y166733D01*
X644869Y166919D01*
X644903Y167104D01*
X644942Y167289D01*
X644984Y167472D01*
X645032Y167654D01*
X645083Y167835D01*
X645139Y168015D01*
X645200Y168193D01*
X645264Y168370D01*
X645333Y168545D01*
X645406Y168719D01*
X645483Y168890D01*
X645565Y169060D01*
X645650Y169228D01*
X645740Y169393D01*
X645833Y169557D01*
X645930Y169718D01*
X646032Y169876D01*
X646137Y170033D01*
X646246Y170186D01*
X646358Y170337D01*
X646474Y170485D01*
X646594Y170631D01*
X646717Y170773D01*
X646843Y170912D01*
X646973Y171049D01*
X647106Y171182D01*
X647243Y171312D01*
X647382Y171438D01*
X647524Y171561D01*
X647670Y171681D01*
X647818Y171797D01*
X647969Y171909D01*
X648122Y172018D01*
X648279Y172123D01*
X648437Y172225D01*
X648598Y172322D01*
X648762Y172415D01*
X648927Y172505D01*
X649095Y172590D01*
X649265Y172672D01*
X649436Y172749D01*
X649610Y172822D01*
X649785Y172891D01*
X649962Y172955D01*
X650140Y173016D01*
X650320Y173072D01*
X650501Y173123D01*
X650683Y173171D01*
X650866Y173213D01*
X651051Y173252D01*
X651236Y173286D01*
X651422Y173315D01*
X651608Y173340D01*
X651795Y173361D01*
X651983Y173377D01*
X652171Y173388D01*
X652359Y173395D01*
X652547Y173397D01*
X664231Y173397D01*
X664231Y188976D01*
X644758Y188976D01*
X635551Y184108D02*
X635551Y178266D01*
X635550Y184108D02*
X635548Y184246D01*
X635542Y184383D01*
X635532Y184521D01*
X635519Y184658D01*
X635501Y184795D01*
X635480Y184931D01*
X635455Y185066D01*
X635426Y185201D01*
X635393Y185335D01*
X635356Y185467D01*
X635316Y185599D01*
X635272Y185730D01*
X635224Y185859D01*
X635173Y185987D01*
X635118Y186113D01*
X635059Y186238D01*
X634997Y186361D01*
X634932Y186482D01*
X634863Y186601D01*
X634791Y186719D01*
X634715Y186834D01*
X634636Y186947D01*
X634555Y187058D01*
X634469Y187166D01*
X634381Y187272D01*
X634290Y187376D01*
X634196Y187476D01*
X634100Y187574D01*
X634000Y187670D01*
X633898Y187762D01*
X633793Y187852D01*
X633686Y187938D01*
X633577Y188022D01*
X633465Y188102D01*
X633351Y188179D01*
X633234Y188253D01*
X633116Y188324D01*
X632996Y188391D01*
X632874Y188455D01*
X632750Y188515D01*
X632624Y188572D01*
X632497Y188625D01*
X632369Y188675D01*
X632239Y188720D01*
X632107Y188763D01*
X631975Y188801D01*
X631842Y188836D01*
X631708Y188867D01*
X631573Y188894D01*
X631437Y188917D01*
X631300Y188937D01*
X631163Y188952D01*
X631026Y188964D01*
X630889Y188972D01*
X630751Y188976D01*
X630613Y188976D01*
X630475Y188972D01*
X630338Y188964D01*
X630201Y188952D01*
X630064Y188937D01*
X629927Y188917D01*
X629791Y188894D01*
X629656Y188867D01*
X629522Y188836D01*
X629389Y188801D01*
X629257Y188763D01*
X629125Y188720D01*
X628995Y188675D01*
X628867Y188625D01*
X628740Y188572D01*
X628614Y188515D01*
X628490Y188455D01*
X628368Y188391D01*
X628248Y188324D01*
X628130Y188253D01*
X628013Y188179D01*
X627899Y188102D01*
X627787Y188022D01*
X627678Y187938D01*
X627571Y187852D01*
X627466Y187762D01*
X627364Y187670D01*
X627264Y187574D01*
X627168Y187476D01*
X627074Y187376D01*
X626983Y187272D01*
X626895Y187166D01*
X626809Y187058D01*
X626728Y186947D01*
X626649Y186834D01*
X626573Y186719D01*
X626501Y186601D01*
X626432Y186482D01*
X626367Y186361D01*
X626305Y186238D01*
X626246Y186113D01*
X626191Y185987D01*
X626140Y185859D01*
X626092Y185730D01*
X626048Y185599D01*
X626008Y185467D01*
X625971Y185335D01*
X625938Y185201D01*
X625909Y185066D01*
X625884Y184931D01*
X625863Y184795D01*
X625845Y184658D01*
X625832Y184521D01*
X625822Y184383D01*
X625816Y184246D01*
X625814Y184108D01*
X625814Y178266D01*
X625816Y178128D01*
X625822Y177991D01*
X625832Y177853D01*
X625845Y177716D01*
X625863Y177579D01*
X625884Y177443D01*
X625909Y177308D01*
X625938Y177173D01*
X625971Y177039D01*
X626008Y176907D01*
X626048Y176775D01*
X626092Y176644D01*
X626140Y176515D01*
X626191Y176387D01*
X626246Y176261D01*
X626305Y176136D01*
X626367Y176013D01*
X626432Y175892D01*
X626501Y175773D01*
X626573Y175655D01*
X626649Y175540D01*
X626728Y175427D01*
X626809Y175316D01*
X626895Y175208D01*
X626983Y175102D01*
X627074Y174998D01*
X627168Y174898D01*
X627264Y174800D01*
X627364Y174704D01*
X627466Y174612D01*
X627571Y174522D01*
X627678Y174436D01*
X627787Y174352D01*
X627899Y174272D01*
X628013Y174195D01*
X628130Y174121D01*
X628248Y174050D01*
X628368Y173983D01*
X628490Y173919D01*
X628614Y173859D01*
X628740Y173802D01*
X628867Y173749D01*
X628995Y173699D01*
X629125Y173654D01*
X629257Y173611D01*
X629389Y173573D01*
X629522Y173538D01*
X629656Y173507D01*
X629791Y173480D01*
X629927Y173457D01*
X630064Y173437D01*
X630201Y173422D01*
X630338Y173410D01*
X630475Y173402D01*
X630613Y173398D01*
X630751Y173398D01*
X630889Y173402D01*
X631026Y173410D01*
X631163Y173422D01*
X631300Y173437D01*
X631437Y173457D01*
X631573Y173480D01*
X631708Y173507D01*
X631842Y173538D01*
X631975Y173573D01*
X632107Y173611D01*
X632239Y173654D01*
X632369Y173699D01*
X632497Y173749D01*
X632624Y173802D01*
X632750Y173859D01*
X632874Y173919D01*
X632996Y173983D01*
X633116Y174050D01*
X633234Y174121D01*
X633351Y174195D01*
X633465Y174272D01*
X633577Y174352D01*
X633686Y174436D01*
X633793Y174522D01*
X633898Y174612D01*
X634000Y174704D01*
X634100Y174800D01*
X634196Y174898D01*
X634290Y174998D01*
X634381Y175102D01*
X634469Y175208D01*
X634555Y175316D01*
X634636Y175427D01*
X634715Y175540D01*
X634791Y175655D01*
X634863Y175773D01*
X634932Y175892D01*
X634997Y176013D01*
X635059Y176136D01*
X635118Y176261D01*
X635173Y176387D01*
X635224Y176515D01*
X635272Y176644D01*
X635316Y176775D01*
X635356Y176907D01*
X635393Y177039D01*
X635426Y177173D01*
X635455Y177308D01*
X635480Y177443D01*
X635501Y177579D01*
X635519Y177716D01*
X635532Y177853D01*
X635542Y177991D01*
X635548Y178128D01*
X635550Y178266D01*
X635551Y165608D02*
X625814Y165608D01*
X601366Y153924D02*
X591630Y153924D01*
X591393Y153927D01*
X591156Y153936D01*
X590919Y153950D01*
X590683Y153970D01*
X590447Y153996D01*
X590212Y154028D01*
X589978Y154065D01*
X589745Y154108D01*
X589513Y154157D01*
X589282Y154211D01*
X589053Y154271D01*
X588825Y154337D01*
X588599Y154408D01*
X588374Y154484D01*
X588152Y154566D01*
X587931Y154654D01*
X587713Y154747D01*
X587497Y154845D01*
X587284Y154948D01*
X587073Y155056D01*
X586865Y155170D01*
X586659Y155288D01*
X586457Y155412D01*
X586257Y155540D01*
X586061Y155674D01*
X585868Y155812D01*
X585679Y155954D01*
X585493Y156101D01*
X585311Y156253D01*
X585132Y156409D01*
X584958Y156570D01*
X584787Y156734D01*
X584620Y156903D01*
X584458Y157075D01*
X584300Y157252D01*
X584146Y157433D01*
X583996Y157617D01*
X583851Y157804D01*
X583711Y157995D01*
X583575Y158190D01*
X583445Y158388D01*
X583319Y158589D01*
X583198Y158792D01*
X583081Y158999D01*
X582970Y159209D01*
X582865Y159421D01*
X582764Y159636D01*
X582669Y159853D01*
X582579Y160072D01*
X582494Y160294D01*
X582415Y160517D01*
X582341Y160742D01*
X582272Y160970D01*
X582210Y161198D01*
X582152Y161428D01*
X582101Y161660D01*
X582055Y161892D01*
X582015Y162126D01*
X581980Y162361D01*
X581951Y162596D01*
X581928Y162832D01*
X581911Y163069D01*
X581899Y163305D01*
X581894Y163542D01*
X581894Y163780D01*
X581899Y164017D01*
X581911Y164253D01*
X581928Y164490D01*
X581951Y164726D01*
X581980Y164961D01*
X582015Y165196D01*
X582055Y165430D01*
X582101Y165662D01*
X582152Y165894D01*
X582210Y166124D01*
X582272Y166352D01*
X582341Y166580D01*
X582415Y166805D01*
X582494Y167028D01*
X582579Y167250D01*
X582669Y167469D01*
X582764Y167686D01*
X582865Y167901D01*
X582970Y168113D01*
X583081Y168323D01*
X583198Y168530D01*
X583319Y168733D01*
X583445Y168934D01*
X583575Y169132D01*
X583711Y169327D01*
X583851Y169518D01*
X583996Y169705D01*
X584146Y169889D01*
X584300Y170070D01*
X584458Y170247D01*
X584620Y170419D01*
X584787Y170588D01*
X584958Y170752D01*
X585132Y170913D01*
X585311Y171069D01*
X585493Y171221D01*
X585679Y171368D01*
X585868Y171510D01*
X586061Y171648D01*
X586257Y171782D01*
X586457Y171910D01*
X586659Y172034D01*
X586865Y172152D01*
X587073Y172266D01*
X587284Y172374D01*
X587497Y172477D01*
X587713Y172575D01*
X587931Y172668D01*
X588152Y172756D01*
X588374Y172838D01*
X588599Y172914D01*
X588825Y172985D01*
X589053Y173051D01*
X589282Y173111D01*
X589513Y173165D01*
X589745Y173214D01*
X589978Y173257D01*
X590212Y173294D01*
X590447Y173326D01*
X590683Y173352D01*
X590919Y173372D01*
X591156Y173386D01*
X591393Y173395D01*
X591630Y173398D01*
X589682Y188976D02*
X601366Y188976D01*
X589682Y188976D02*
X589492Y188974D01*
X589303Y188967D01*
X589113Y188955D01*
X588924Y188939D01*
X588736Y188918D01*
X588548Y188893D01*
X588361Y188863D01*
X588174Y188829D01*
X587988Y188790D01*
X587804Y188746D01*
X587620Y188698D01*
X587438Y188646D01*
X587257Y188589D01*
X587078Y188528D01*
X586900Y188462D01*
X586723Y188392D01*
X586549Y188318D01*
X586376Y188240D01*
X586205Y188157D01*
X586036Y188070D01*
X585870Y187979D01*
X585706Y187885D01*
X585544Y187786D01*
X585384Y187683D01*
X585227Y187576D01*
X585073Y187466D01*
X584922Y187352D01*
X584773Y187234D01*
X584627Y187113D01*
X584484Y186988D01*
X584345Y186860D01*
X584208Y186728D01*
X584075Y186593D01*
X583945Y186455D01*
X583818Y186314D01*
X583695Y186169D01*
X583575Y186022D01*
X583460Y185872D01*
X583347Y185719D01*
X583239Y185563D01*
X583134Y185405D01*
X583033Y185245D01*
X582937Y185082D01*
X582844Y184916D01*
X582755Y184748D01*
X582670Y184579D01*
X582590Y184407D01*
X582513Y184233D01*
X582441Y184058D01*
X582374Y183881D01*
X582310Y183702D01*
X582251Y183522D01*
X582196Y183340D01*
X582146Y183157D01*
X582101Y182973D01*
X582059Y182788D01*
X582023Y182602D01*
X581990Y182415D01*
X581963Y182227D01*
X581940Y182039D01*
X581921Y181850D01*
X581907Y181661D01*
X581898Y181471D01*
X581894Y181282D01*
X581894Y181092D01*
X581898Y180903D01*
X581907Y180713D01*
X581921Y180524D01*
X581940Y180335D01*
X581963Y180147D01*
X581990Y179959D01*
X582023Y179772D01*
X582059Y179586D01*
X582101Y179401D01*
X582146Y179217D01*
X582196Y179034D01*
X582251Y178852D01*
X582310Y178672D01*
X582374Y178493D01*
X582441Y178316D01*
X582513Y178141D01*
X582590Y177967D01*
X582670Y177795D01*
X582755Y177626D01*
X582844Y177458D01*
X582937Y177292D01*
X583033Y177129D01*
X583134Y176969D01*
X583239Y176811D01*
X583347Y176655D01*
X583460Y176502D01*
X583575Y176352D01*
X583695Y176205D01*
X583818Y176060D01*
X583945Y175919D01*
X584075Y175781D01*
X584208Y175646D01*
X584345Y175514D01*
X584484Y175386D01*
X584627Y175261D01*
X584773Y175140D01*
X584922Y175022D01*
X585073Y174908D01*
X585227Y174798D01*
X585384Y174691D01*
X585544Y174588D01*
X585706Y174489D01*
X585870Y174395D01*
X586036Y174304D01*
X586205Y174217D01*
X586376Y174134D01*
X586549Y174056D01*
X586723Y173982D01*
X586900Y173912D01*
X587078Y173846D01*
X587257Y173785D01*
X587438Y173728D01*
X587620Y173676D01*
X587804Y173628D01*
X587988Y173584D01*
X588174Y173545D01*
X588361Y173511D01*
X588548Y173481D01*
X588736Y173456D01*
X588924Y173435D01*
X589113Y173419D01*
X589303Y173407D01*
X589492Y173400D01*
X589682Y173398D01*
X589682Y173397D02*
X597472Y173397D01*
X569722Y181187D02*
X563880Y181187D01*
X569722Y181187D02*
X569846Y181185D01*
X569969Y181179D01*
X570092Y181169D01*
X570215Y181156D01*
X570337Y181138D01*
X570459Y181117D01*
X570580Y181091D01*
X570700Y181062D01*
X570819Y181029D01*
X570937Y180993D01*
X571054Y180952D01*
X571170Y180908D01*
X571284Y180860D01*
X571396Y180809D01*
X571507Y180754D01*
X571616Y180696D01*
X571723Y180634D01*
X571828Y180569D01*
X571931Y180500D01*
X572031Y180429D01*
X572130Y180354D01*
X572226Y180276D01*
X572319Y180195D01*
X572410Y180111D01*
X572498Y180024D01*
X572583Y179935D01*
X572666Y179843D01*
X572745Y179748D01*
X572821Y179651D01*
X572895Y179551D01*
X572965Y179450D01*
X573032Y179346D01*
X573095Y179239D01*
X573155Y179131D01*
X573212Y179022D01*
X573265Y178910D01*
X573315Y178797D01*
X573361Y178682D01*
X573403Y178566D01*
X573441Y178449D01*
X573476Y178330D01*
X573507Y178210D01*
X573534Y178090D01*
X573558Y177968D01*
X573577Y177846D01*
X573593Y177724D01*
X573605Y177601D01*
X573613Y177477D01*
X573617Y177354D01*
X573617Y177230D01*
X573613Y177107D01*
X573605Y176983D01*
X573593Y176860D01*
X573577Y176738D01*
X573558Y176616D01*
X573534Y176494D01*
X573507Y176374D01*
X573476Y176254D01*
X573441Y176135D01*
X573403Y176018D01*
X573361Y175902D01*
X573315Y175787D01*
X573265Y175674D01*
X573212Y175562D01*
X573155Y175453D01*
X573095Y175345D01*
X573032Y175238D01*
X572965Y175134D01*
X572895Y175033D01*
X572821Y174933D01*
X572745Y174836D01*
X572666Y174741D01*
X572583Y174649D01*
X572498Y174560D01*
X572410Y174473D01*
X572319Y174389D01*
X572226Y174308D01*
X572130Y174230D01*
X572031Y174155D01*
X571931Y174084D01*
X571828Y174015D01*
X571723Y173950D01*
X571616Y173888D01*
X571507Y173830D01*
X571396Y173775D01*
X571284Y173724D01*
X571170Y173676D01*
X571054Y173632D01*
X570937Y173591D01*
X570819Y173555D01*
X570700Y173522D01*
X570580Y173493D01*
X570459Y173467D01*
X570337Y173446D01*
X570215Y173428D01*
X570092Y173415D01*
X569969Y173405D01*
X569846Y173399D01*
X569722Y173397D01*
X563880Y173397D01*
X563880Y185081D01*
X563882Y185203D01*
X563888Y185326D01*
X563897Y185448D01*
X563911Y185569D01*
X563928Y185690D01*
X563949Y185811D01*
X563974Y185931D01*
X564002Y186050D01*
X564035Y186168D01*
X564071Y186285D01*
X564110Y186400D01*
X564154Y186515D01*
X564200Y186628D01*
X564251Y186739D01*
X564305Y186849D01*
X564362Y186957D01*
X564422Y187064D01*
X564486Y187168D01*
X564554Y187270D01*
X564624Y187370D01*
X564697Y187468D01*
X564774Y187564D01*
X564853Y187657D01*
X564936Y187747D01*
X565021Y187835D01*
X565109Y187920D01*
X565199Y188003D01*
X565292Y188082D01*
X565388Y188159D01*
X565486Y188232D01*
X565586Y188302D01*
X565688Y188370D01*
X565792Y188434D01*
X565899Y188494D01*
X566007Y188551D01*
X566117Y188605D01*
X566228Y188656D01*
X566341Y188702D01*
X566456Y188746D01*
X566571Y188785D01*
X566688Y188821D01*
X566806Y188854D01*
X566925Y188882D01*
X567045Y188907D01*
X567166Y188928D01*
X567287Y188945D01*
X567408Y188959D01*
X567530Y188968D01*
X567653Y188974D01*
X567775Y188976D01*
X572643Y188976D01*
X573617Y165608D02*
X563880Y165608D01*
D11*
X787400Y660400D03*
X762000Y660400D03*
X1143000Y660400D03*
X1117600Y660400D03*
X1092200Y660400D03*
X1066800Y660400D03*
X1041400Y660400D03*
X1016000Y660400D03*
X990600Y660400D03*
X965200Y660400D03*
X939800Y660400D03*
X914400Y660400D03*
X889000Y660400D03*
X863600Y660400D03*
X838200Y660400D03*
X812800Y660400D03*
X736600Y660400D03*
X711200Y660400D03*
X685800Y660400D03*
X660400Y660400D03*
X635000Y660400D03*
X609600Y660400D03*
X584200Y660400D03*
X558800Y660400D03*
X533400Y660400D03*
X508000Y660400D03*
X482600Y660400D03*
X457200Y660400D03*
X431800Y660400D03*
X406400Y660400D03*
X1193800Y660400D03*
X1168400Y660400D03*
D12*
X698500Y476504D02*
X698500Y463296D01*
X673100Y463296D02*
X673100Y476504D01*
X546100Y476504D02*
X546100Y463296D01*
X520700Y463296D02*
X520700Y476504D01*
X647700Y476504D02*
X647700Y463296D01*
X622300Y463296D02*
X622300Y476504D01*
X571500Y476504D02*
X571500Y463296D01*
X596900Y463296D02*
X596900Y476504D01*
X520700Y400304D02*
X520700Y387096D01*
X546100Y387096D02*
X546100Y400304D01*
X571500Y400304D02*
X571500Y387096D01*
X596900Y387096D02*
X596900Y400304D01*
X622300Y400304D02*
X622300Y387096D01*
X647700Y387096D02*
X647700Y400304D01*
X673100Y400304D02*
X673100Y387096D01*
X698500Y387096D02*
X698500Y400304D01*
X1066800Y463296D02*
X1066800Y476504D01*
X1041400Y476504D02*
X1041400Y463296D01*
X914400Y463296D02*
X914400Y476504D01*
X889000Y476504D02*
X889000Y463296D01*
X1016000Y463296D02*
X1016000Y476504D01*
X990600Y476504D02*
X990600Y463296D01*
X939800Y463296D02*
X939800Y476504D01*
X965200Y476504D02*
X965200Y463296D01*
X889000Y400304D02*
X889000Y387096D01*
X914400Y387096D02*
X914400Y400304D01*
X939800Y400304D02*
X939800Y387096D01*
X965200Y387096D02*
X965200Y400304D01*
X990600Y400304D02*
X990600Y387096D01*
X1016000Y387096D02*
X1016000Y400304D01*
X1041400Y400304D02*
X1041400Y387096D01*
X1066800Y387096D02*
X1066800Y400304D01*
D11*
X406400Y317500D03*
X406400Y342900D03*
X406400Y368300D03*
X406400Y393700D03*
X406400Y419100D03*
X406400Y444500D03*
X1168400Y317500D03*
X1168400Y342900D03*
X1168400Y368300D03*
X1168400Y393700D03*
X1168400Y419100D03*
X1168400Y444500D03*
X1130300Y762000D03*
X1104900Y762000D03*
X1079500Y762000D03*
X1054100Y762000D03*
X1028700Y762000D03*
X1003300Y762000D03*
X977900Y762000D03*
X952500Y762000D03*
X927100Y762000D03*
X901700Y762000D03*
X711200Y762000D03*
X685800Y762000D03*
X660400Y762000D03*
X635000Y762000D03*
X609600Y762000D03*
X584200Y762000D03*
X558800Y762000D03*
X533400Y762000D03*
X508000Y762000D03*
X482600Y762000D03*
X800100Y762000D03*
X825500Y762000D03*
X787400Y609600D03*
X787400Y533400D03*
X1143000Y609600D03*
X1143000Y533400D03*
X1092200Y609600D03*
X1092200Y533400D03*
X1041400Y609600D03*
X1041400Y533400D03*
X990600Y609600D03*
X990600Y533400D03*
X939800Y609600D03*
X939800Y533400D03*
X889000Y609600D03*
X889000Y533400D03*
X838200Y609600D03*
X838200Y533400D03*
X736600Y609600D03*
X736600Y533400D03*
X685800Y609600D03*
X685800Y533400D03*
X635000Y609600D03*
X635000Y533400D03*
X584200Y609600D03*
X584200Y533400D03*
X533400Y609600D03*
X533400Y533400D03*
X482600Y609600D03*
X482600Y533400D03*
X431800Y609600D03*
X431800Y533400D03*
X1193800Y609600D03*
X1193800Y533400D03*
D13*
X1231900Y469900D02*
X1206500Y444500D01*
X711200Y774700D02*
X698500Y787400D01*
X711200Y774700D02*
X711200Y762000D01*
X406400Y787400D02*
X381000Y762000D01*
X406400Y787400D02*
X698500Y787400D01*
X787400Y787400D01*
X1117600Y787400D01*
X1130300Y774700D01*
X1130300Y762000D01*
X1202690Y562610D02*
X1231900Y533400D01*
X1231900Y469900D01*
X1202690Y562610D02*
X393700Y562610D01*
X800100Y762000D02*
X800100Y774700D01*
X787400Y787400D01*
X800100Y762000D02*
X711200Y762000D01*
X406400Y660400D02*
X406400Y596900D01*
X419100Y584200D01*
X444500Y584200D01*
X495300Y584200D01*
X546100Y584200D01*
X596900Y584200D01*
X647700Y584200D01*
X698500Y584200D01*
X749300Y584200D01*
X800100Y584200D01*
X850900Y584200D01*
X901700Y584200D01*
X952500Y584200D01*
X1003300Y584200D01*
X1054100Y584200D01*
X1104900Y584200D01*
X1155700Y584200D01*
X1168400Y596900D01*
X1168400Y660400D01*
X1117600Y660400D02*
X1117600Y596900D01*
X1104900Y584200D01*
X1066800Y596900D02*
X1066800Y660400D01*
X1066800Y596900D02*
X1054100Y584200D01*
X1016000Y596900D02*
X1016000Y660400D01*
X1016000Y596900D02*
X1003300Y584200D01*
X965200Y596900D02*
X965200Y660400D01*
X965200Y596900D02*
X952500Y584200D01*
X914400Y596900D02*
X914400Y660400D01*
X914400Y596900D02*
X901700Y584200D01*
X863600Y596900D02*
X863600Y660400D01*
X863600Y596900D02*
X850900Y584200D01*
X812800Y596900D02*
X812800Y660400D01*
X812800Y596900D02*
X800100Y584200D01*
X762000Y596900D02*
X762000Y660400D01*
X762000Y596900D02*
X749300Y584200D01*
X711200Y596900D02*
X711200Y660400D01*
X711200Y596900D02*
X698500Y584200D01*
X660400Y596900D02*
X660400Y660400D01*
X660400Y596900D02*
X647700Y584200D01*
X609600Y596900D02*
X609600Y660400D01*
X609600Y596900D02*
X596900Y584200D01*
X558800Y596900D02*
X558800Y660400D01*
X558800Y596900D02*
X546100Y584200D01*
X508000Y596900D02*
X508000Y660400D01*
X508000Y596900D02*
X495300Y584200D01*
X457200Y596900D02*
X457200Y660400D01*
X457200Y596900D02*
X444500Y584200D01*
X812800Y660400D02*
X812800Y711200D01*
X825500Y723900D01*
X825500Y762000D01*
X520700Y469900D02*
X431800Y469900D01*
X608330Y445770D02*
X622300Y431800D01*
X532130Y445770D02*
X520700Y457200D01*
X520700Y469900D01*
X532130Y445770D02*
X608330Y445770D01*
X889000Y457200D02*
X889000Y469900D01*
X889000Y457200D02*
X901700Y444500D01*
X977900Y444500D02*
X990600Y431800D01*
X977900Y444500D02*
X901700Y444500D01*
X431800Y469900D02*
X406400Y444500D01*
X1168400Y444500D02*
X1206500Y444500D01*
X381000Y444500D02*
X368300Y431800D01*
X368300Y355600D02*
X381000Y342900D01*
X406400Y342900D01*
X406400Y444500D02*
X381000Y444500D01*
X368300Y431800D02*
X368300Y355600D01*
X1155700Y342900D02*
X1168400Y342900D01*
X1168400Y444500D02*
X1130300Y444500D01*
X1155700Y342900D02*
X1117600Y304800D01*
X1092200Y330200D02*
X1092200Y406400D01*
X1130300Y444500D01*
X1085850Y273050D02*
X965200Y273050D01*
X1085850Y273050D02*
X1117600Y304800D01*
X990600Y393700D02*
X990600Y431800D01*
X965200Y273050D02*
X666750Y273050D01*
X622300Y317500D01*
X622300Y393700D01*
X622300Y431800D01*
X393700Y562610D02*
X381000Y575310D01*
X381000Y762000D01*
X965200Y273050D02*
X990600Y298450D01*
X990600Y393700D01*
X1092200Y330200D02*
X1117600Y304800D01*
X1168400Y317500D02*
X1168400Y292100D01*
X431800Y254000D02*
X406400Y279400D01*
X1130300Y254000D02*
X1168400Y292100D01*
X1130300Y254000D02*
X1066800Y254000D01*
X914400Y254000D01*
X698500Y254000D01*
X571500Y254000D01*
X431800Y254000D01*
X546100Y279400D02*
X546100Y393700D01*
D14*
X1066800Y234950D03*
X1066800Y297180D03*
D13*
X1066800Y254000D02*
X1066800Y234950D01*
X1066800Y297180D02*
X1066800Y393700D01*
D14*
X914400Y234950D03*
X914400Y317500D03*
D13*
X914400Y254000D02*
X914400Y234950D01*
X914400Y317500D02*
X914400Y393700D01*
D14*
X698500Y332740D03*
D13*
X698500Y393700D01*
X406400Y317500D02*
X406400Y279400D01*
X546100Y279400D02*
X571500Y254000D01*
X698500Y254000D02*
X698500Y234950D01*
D14*
X698500Y234950D03*
D13*
X787400Y482600D02*
X787400Y533400D01*
X690880Y449580D02*
X673100Y431800D01*
X673100Y393700D01*
X754380Y449580D02*
X787400Y482600D01*
X754380Y449580D02*
X690880Y449580D01*
X1104900Y444500D02*
X1193800Y533400D01*
X1066800Y444500D02*
X1041400Y419100D01*
X1041400Y393700D01*
X1066800Y444500D02*
X1104900Y444500D01*
X457200Y508000D02*
X431800Y533400D01*
X508000Y508000D02*
X520700Y495300D01*
X533400Y495300D01*
X546100Y482600D01*
X546100Y469900D01*
X508000Y508000D02*
X457200Y508000D01*
X482600Y533400D02*
X508000Y533400D01*
X533400Y508000D02*
X546100Y508000D01*
X571500Y482600D02*
X571500Y469900D01*
X533400Y508000D02*
X508000Y533400D01*
X546100Y508000D02*
X571500Y482600D01*
X838200Y533400D02*
X850900Y533400D01*
X863600Y520700D01*
X863600Y508000D01*
X876300Y495300D01*
X901700Y495300D01*
X914400Y482600D01*
X914400Y469900D01*
X901700Y533400D02*
X889000Y533400D01*
X901700Y533400D02*
X914400Y520700D01*
X914400Y508000D01*
X939800Y482600D02*
X939800Y469900D01*
X939800Y482600D02*
X914400Y508000D01*
X495300Y368300D02*
X406400Y368300D01*
X1016000Y368300D02*
X1016000Y393700D01*
D14*
X1016000Y368300D03*
X495300Y368300D03*
D13*
X1168400Y368300D02*
X1181100Y368300D01*
X1193800Y355600D01*
X1193800Y279400D02*
X1130300Y215900D01*
X1193800Y279400D02*
X1193800Y355600D01*
X1130300Y215900D02*
X533400Y215900D01*
X520700Y228600D01*
D14*
X520700Y228600D03*
D13*
X520700Y279400D02*
X520700Y393700D01*
D14*
X520700Y279400D03*
D13*
X736600Y609600D02*
X736600Y660400D01*
X736600Y698500D01*
X711200Y723900D01*
X660400Y749300D02*
X660400Y762000D01*
X685800Y723900D02*
X711200Y723900D01*
X685800Y723900D02*
X660400Y749300D01*
X685800Y660400D02*
X685800Y609600D01*
X685800Y660400D02*
X685800Y698500D01*
X660400Y723900D01*
X647700Y723900D01*
X635000Y736600D01*
X635000Y762000D01*
X635000Y660400D02*
X635000Y609600D01*
X635000Y660400D02*
X635000Y698500D01*
X609600Y723900D01*
X609600Y762000D01*
X584200Y762000D02*
X584200Y660400D01*
X584200Y609600D01*
X533400Y609600D02*
X533400Y660400D01*
X533400Y698500D01*
X558800Y723900D02*
X558800Y762000D01*
X558800Y723900D02*
X533400Y698500D01*
X482600Y660400D02*
X482600Y609600D01*
X482600Y660400D02*
X482600Y698500D01*
X495300Y711200D01*
X508000Y711200D01*
X533400Y736600D01*
X533400Y762000D01*
X431800Y660400D02*
X431800Y609600D01*
X431800Y660400D02*
X431800Y698500D01*
X469900Y736600D01*
X495300Y736600D01*
X508000Y749300D01*
X508000Y762000D01*
X838200Y660400D02*
X838200Y609600D01*
X838200Y660400D02*
X838200Y698500D01*
X863600Y723900D01*
X914400Y723900D02*
X927100Y736600D01*
X927100Y762000D01*
X914400Y723900D02*
X863600Y723900D01*
X889000Y660400D02*
X889000Y609600D01*
X889000Y660400D02*
X889000Y698500D01*
X901700Y711200D01*
X927100Y711200D01*
X952500Y736600D01*
X952500Y762000D01*
X939800Y660400D02*
X939800Y609600D01*
X939800Y660400D02*
X939800Y698500D01*
X977900Y736600D02*
X977900Y762000D01*
X977900Y736600D02*
X939800Y698500D01*
X990600Y660400D02*
X990600Y609600D01*
X990600Y660400D02*
X990600Y711200D01*
X1003300Y723900D01*
X1003300Y762000D01*
X1041400Y660400D02*
X1041400Y609600D01*
X1041400Y660400D02*
X1041400Y711200D01*
X1028700Y723900D01*
X1028700Y762000D01*
X1092200Y660400D02*
X1092200Y609600D01*
X1092200Y660400D02*
X1092200Y698500D01*
X1079500Y711200D01*
X1066800Y711200D01*
X1054100Y723900D01*
X1054100Y762000D01*
X1143000Y660400D02*
X1143000Y609600D01*
X1143000Y660400D02*
X1143000Y698500D01*
X1130300Y711200D01*
X1117600Y711200D01*
X1079500Y749300D02*
X1079500Y762000D01*
X1079500Y749300D02*
X1117600Y711200D01*
X1193800Y660400D02*
X1193800Y609600D01*
X1193800Y660400D02*
X1193800Y698500D01*
X1168400Y723900D01*
X1143000Y723900D01*
X1104900Y762000D01*
X596900Y533400D02*
X584200Y533400D01*
X596900Y533400D02*
X622300Y508000D01*
X622300Y469900D01*
X546100Y533400D02*
X533400Y533400D01*
X571500Y508000D02*
X584200Y508000D01*
X596900Y495300D01*
X596900Y469900D01*
X571500Y508000D02*
X546100Y533400D01*
X635000Y533400D02*
X647700Y520700D01*
X647700Y469900D01*
X673100Y520700D02*
X685800Y533400D01*
X673100Y520700D02*
X673100Y469900D01*
X723900Y533400D02*
X736600Y533400D01*
X698500Y508000D02*
X698500Y469900D01*
X698500Y508000D02*
X723900Y533400D01*
X1117600Y508000D02*
X1143000Y533400D01*
X1117600Y508000D02*
X1092200Y508000D01*
X1066800Y482600D01*
X1066800Y469900D01*
X1079500Y533400D02*
X1092200Y533400D01*
X1041400Y495300D02*
X1041400Y469900D01*
X1041400Y495300D02*
X1079500Y533400D01*
X1041400Y533400D02*
X1028700Y533400D01*
X1016000Y520700D01*
X1016000Y469900D01*
X990600Y469900D02*
X990600Y533400D01*
X939800Y533400D02*
X939800Y508000D01*
X965200Y482600D02*
X965200Y469900D01*
X965200Y482600D02*
X939800Y508000D01*
X787400Y609600D02*
X787400Y660400D01*
X762000Y685800D01*
X762000Y711200D01*
X736600Y736600D01*
X698500Y736600D01*
X685800Y749300D01*
X685800Y762000D01*
X487680Y416560D02*
X464820Y393700D01*
X487680Y416560D02*
X561340Y416560D01*
X571500Y406400D02*
X571500Y393700D01*
X571500Y406400D02*
X561340Y416560D01*
X464820Y393700D02*
X406400Y393700D01*
D14*
X965200Y342900D03*
X1117600Y342900D03*
D13*
X965200Y342900D02*
X952500Y342900D01*
X939800Y355600D01*
X939800Y393700D01*
X1117600Y342900D02*
X1168400Y393700D01*
X571500Y393700D02*
X571500Y317500D01*
X596900Y292100D02*
X622300Y292100D01*
X596900Y292100D02*
X571500Y317500D01*
X927100Y292100D02*
X939800Y304800D01*
X927100Y292100D02*
X674370Y292100D01*
X939800Y304800D02*
X939800Y355600D01*
D14*
X622300Y292100D03*
X673100Y292100D03*
D13*
X508000Y444500D02*
X431800Y444500D01*
X508000Y444500D02*
X520700Y431800D01*
X571500Y431800D02*
X596900Y406400D01*
X571500Y431800D02*
X520700Y431800D01*
X571500Y431800D02*
X596900Y431800D01*
D15*
X596900Y431800D03*
D13*
X698500Y431800D02*
X711200Y419100D01*
X939800Y419100D02*
X965200Y419100D01*
X939800Y419100D02*
X711200Y419100D01*
X1130300Y419100D02*
X1168400Y419100D01*
D14*
X596900Y431800D03*
X698500Y431800D03*
X965200Y419100D03*
X1130300Y419100D03*
D13*
X596900Y406400D02*
X596900Y393700D01*
X431800Y444500D02*
X406400Y419100D01*
X939800Y419100D02*
X965200Y393700D01*
X889000Y393700D02*
X889000Y330200D01*
X871220Y312420D01*
X665480Y312420D01*
X647700Y330200D01*
X647700Y393700D01*
M02*
