G04 EAGLE Gerber RS-274X export*
G75*
%MOMM*%
%FSLAX34Y34*%
%LPD*%
%INBottom Copper*%
%IPPOS*%
%AMOC8*
5,1,8,0,0,1.08239X$1,22.5*%
G01*
%ADD10C,1.651000*%
%ADD11C,1.879600*%
%ADD12R,1.651000X1.651000*%
%ADD13C,0.508000*%

G36*
X482469Y111762D02*
X482469Y111762D01*
X482658Y111784D01*
X482849Y111801D01*
X482882Y111810D01*
X482916Y111814D01*
X483099Y111869D01*
X483283Y111919D01*
X483314Y111934D01*
X483347Y111944D01*
X483518Y112031D01*
X483690Y112113D01*
X483718Y112133D01*
X483749Y112148D01*
X483901Y112264D01*
X484056Y112375D01*
X484080Y112400D01*
X484107Y112420D01*
X484236Y112561D01*
X484370Y112697D01*
X484389Y112726D01*
X484413Y112752D01*
X484515Y112913D01*
X484622Y113070D01*
X484636Y113102D01*
X484654Y113131D01*
X484727Y113308D01*
X484804Y113482D01*
X484812Y113516D01*
X484825Y113548D01*
X484865Y113735D01*
X484911Y113920D01*
X484913Y113954D01*
X484920Y113988D01*
X484939Y114300D01*
X484939Y390400D01*
X484936Y390435D01*
X484938Y390469D01*
X484916Y390658D01*
X484899Y390849D01*
X484890Y390882D01*
X484886Y390916D01*
X484831Y391099D01*
X484781Y391283D01*
X484766Y391314D01*
X484756Y391347D01*
X484669Y391518D01*
X484587Y391690D01*
X484567Y391718D01*
X484552Y391749D01*
X484436Y391901D01*
X484325Y392056D01*
X484300Y392080D01*
X484280Y392107D01*
X484140Y392236D01*
X484003Y392370D01*
X483974Y392389D01*
X483948Y392413D01*
X483787Y392515D01*
X483630Y392622D01*
X483598Y392636D01*
X483569Y392654D01*
X483392Y392727D01*
X483218Y392804D01*
X483184Y392812D01*
X483152Y392825D01*
X482965Y392865D01*
X482780Y392911D01*
X482746Y392913D01*
X482712Y392920D01*
X482400Y392939D01*
X349305Y392939D01*
X349176Y392928D01*
X349046Y392926D01*
X348952Y392908D01*
X348857Y392899D01*
X348731Y392865D01*
X348604Y392840D01*
X348514Y392806D01*
X348422Y392781D01*
X348305Y392725D01*
X348184Y392678D01*
X348102Y392628D01*
X348016Y392587D01*
X347910Y392512D01*
X347799Y392444D01*
X347727Y392381D01*
X347650Y392325D01*
X347559Y392232D01*
X347462Y392146D01*
X347402Y392071D01*
X347336Y392003D01*
X347263Y391895D01*
X347182Y391793D01*
X347137Y391709D01*
X347083Y391630D01*
X347031Y391511D01*
X346969Y391396D01*
X346940Y391305D01*
X346901Y391218D01*
X346870Y391091D01*
X346830Y390968D01*
X346817Y390873D01*
X346795Y390780D01*
X346787Y390651D01*
X346769Y390522D01*
X346773Y390426D01*
X346767Y390331D01*
X346782Y390202D01*
X346787Y390072D01*
X346808Y389979D01*
X346819Y389884D01*
X346857Y389759D01*
X346885Y389632D01*
X346922Y389544D01*
X346949Y389453D01*
X347008Y389337D01*
X347058Y389217D01*
X347110Y389136D01*
X347154Y389051D01*
X347232Y388948D01*
X347303Y388839D01*
X347389Y388741D01*
X347426Y388693D01*
X347458Y388662D01*
X347510Y388604D01*
X364276Y371838D01*
X364402Y371733D01*
X364523Y371621D01*
X364574Y371589D01*
X364621Y371550D01*
X364764Y371468D01*
X364903Y371380D01*
X364959Y371356D01*
X365012Y371326D01*
X365167Y371271D01*
X365319Y371209D01*
X365379Y371196D01*
X365436Y371175D01*
X365599Y371149D01*
X365759Y371114D01*
X365836Y371109D01*
X365881Y371102D01*
X365942Y371103D01*
X366071Y371095D01*
X371382Y371095D01*
X377077Y368736D01*
X381719Y364094D01*
X381745Y364072D01*
X381769Y364046D01*
X381918Y363927D01*
X382064Y363805D01*
X382094Y363788D01*
X382122Y363766D01*
X382290Y363676D01*
X382455Y363582D01*
X382488Y363570D01*
X382519Y363554D01*
X382700Y363495D01*
X382880Y363431D01*
X382914Y363425D01*
X382947Y363414D01*
X383136Y363388D01*
X383324Y363357D01*
X383358Y363358D01*
X383393Y363353D01*
X383583Y363361D01*
X383774Y363363D01*
X383808Y363370D01*
X383843Y363371D01*
X384028Y363413D01*
X384216Y363449D01*
X384248Y363461D01*
X384282Y363469D01*
X384458Y363543D01*
X384636Y363611D01*
X384666Y363629D01*
X384698Y363643D01*
X384858Y363746D01*
X385021Y363845D01*
X385047Y363868D01*
X385076Y363887D01*
X385310Y364094D01*
X385922Y364706D01*
X387443Y365811D01*
X389117Y366664D01*
X390904Y367245D01*
X391161Y367285D01*
X391161Y355600D01*
X391161Y343915D01*
X390904Y343955D01*
X389117Y344536D01*
X387443Y345389D01*
X385922Y346494D01*
X385310Y347106D01*
X385284Y347128D01*
X385260Y347154D01*
X385111Y347273D01*
X384965Y347395D01*
X384934Y347412D01*
X384907Y347434D01*
X384740Y347523D01*
X384574Y347618D01*
X384541Y347630D01*
X384511Y347646D01*
X384329Y347705D01*
X384149Y347769D01*
X384115Y347775D01*
X384082Y347786D01*
X383893Y347812D01*
X383705Y347843D01*
X383671Y347842D01*
X383636Y347847D01*
X383445Y347839D01*
X383255Y347837D01*
X383221Y347830D01*
X383186Y347829D01*
X383000Y347787D01*
X382813Y347751D01*
X382781Y347739D01*
X382747Y347731D01*
X382571Y347658D01*
X382393Y347589D01*
X382363Y347571D01*
X382331Y347557D01*
X382172Y347454D01*
X382008Y347355D01*
X381982Y347332D01*
X381953Y347313D01*
X381719Y347106D01*
X379205Y344592D01*
X379204Y344592D01*
X377880Y343268D01*
X377775Y343141D01*
X377663Y343020D01*
X377631Y342969D01*
X377592Y342922D01*
X377510Y342780D01*
X377422Y342641D01*
X377398Y342584D01*
X377368Y342531D01*
X377313Y342376D01*
X377251Y342224D01*
X377238Y342165D01*
X377217Y342107D01*
X377206Y342040D01*
X377191Y341945D01*
X377156Y341784D01*
X377151Y341707D01*
X377144Y341663D01*
X377145Y341602D01*
X377137Y341472D01*
X377137Y321193D01*
X377156Y320981D01*
X377172Y320770D01*
X377175Y320757D01*
X377177Y320744D01*
X377233Y320538D01*
X377286Y320334D01*
X377292Y320322D01*
X377295Y320310D01*
X377386Y320119D01*
X377475Y319926D01*
X377483Y319915D01*
X377489Y319903D01*
X377611Y319731D01*
X377734Y319557D01*
X377743Y319548D01*
X377751Y319537D01*
X377903Y319388D01*
X378053Y319240D01*
X378064Y319232D01*
X378073Y319223D01*
X378249Y319104D01*
X378423Y318984D01*
X378438Y318977D01*
X378446Y318971D01*
X378482Y318955D01*
X378704Y318847D01*
X380208Y318224D01*
X380728Y317704D01*
X380729Y317703D01*
X381924Y316508D01*
X382848Y314277D01*
X382898Y314180D01*
X382939Y314080D01*
X383002Y313982D01*
X383057Y313878D01*
X383123Y313792D01*
X383181Y313700D01*
X383260Y313614D01*
X383332Y313522D01*
X383413Y313449D01*
X383486Y313369D01*
X383580Y313298D01*
X383667Y313220D01*
X383758Y313163D01*
X383845Y313097D01*
X383949Y313044D01*
X384049Y312982D01*
X384150Y312942D01*
X384246Y312893D01*
X384358Y312859D01*
X384467Y312815D01*
X384573Y312794D01*
X384677Y312762D01*
X384793Y312749D01*
X384908Y312725D01*
X385017Y312723D01*
X385124Y312710D01*
X385241Y312717D01*
X385358Y312714D01*
X385466Y312731D01*
X385574Y312738D01*
X385687Y312765D01*
X385803Y312783D01*
X385906Y312818D01*
X386011Y312844D01*
X386118Y312892D01*
X386229Y312930D01*
X386324Y312982D01*
X386423Y313026D01*
X386568Y313119D01*
X386622Y313149D01*
X386646Y313168D01*
X386687Y313194D01*
X387842Y314033D01*
X389356Y314805D01*
X390961Y315326D01*
X390961Y304800D01*
X390961Y294274D01*
X389356Y294795D01*
X387842Y295567D01*
X386687Y296406D01*
X386594Y296462D01*
X386506Y296526D01*
X386401Y296577D01*
X386300Y296637D01*
X386199Y296676D01*
X386102Y296723D01*
X385989Y296755D01*
X385879Y296797D01*
X385773Y296817D01*
X385668Y296846D01*
X385552Y296858D01*
X385437Y296879D01*
X385328Y296880D01*
X385220Y296891D01*
X385103Y296882D01*
X384986Y296882D01*
X384879Y296864D01*
X384771Y296856D01*
X384658Y296826D01*
X384543Y296806D01*
X384441Y296769D01*
X384336Y296742D01*
X384230Y296692D01*
X384119Y296652D01*
X384026Y296598D01*
X383927Y296552D01*
X383831Y296485D01*
X383730Y296426D01*
X383647Y296356D01*
X383558Y296294D01*
X383476Y296211D01*
X383386Y296135D01*
X383318Y296052D01*
X383241Y295975D01*
X383175Y295878D01*
X383100Y295788D01*
X383047Y295693D01*
X382985Y295604D01*
X382910Y295450D01*
X382879Y295395D01*
X382869Y295367D01*
X382848Y295323D01*
X381924Y293092D01*
X381622Y292790D01*
X381204Y292372D01*
X381120Y292272D01*
X381029Y292179D01*
X380984Y292111D01*
X380976Y292099D01*
X380915Y292026D01*
X380850Y291913D01*
X380777Y291806D01*
X380739Y291718D01*
X380691Y291635D01*
X380670Y291574D01*
X380648Y291513D01*
X380595Y291394D01*
X380572Y291301D01*
X380540Y291211D01*
X380519Y291083D01*
X380488Y290956D01*
X380487Y290932D01*
X380483Y290861D01*
X380467Y290767D01*
X380469Y290637D01*
X380461Y290507D01*
X380472Y290412D01*
X380473Y290316D01*
X380498Y290189D01*
X380508Y290103D01*
X380513Y290060D01*
X380541Y289968D01*
X380559Y289874D01*
X380605Y289753D01*
X380643Y289629D01*
X380687Y289544D01*
X380721Y289454D01*
X380789Y289343D01*
X380848Y289227D01*
X380905Y289151D01*
X380955Y289070D01*
X381041Y288972D01*
X381092Y288905D01*
X381120Y288869D01*
X381190Y288804D01*
X381253Y288732D01*
X381355Y288652D01*
X381451Y288563D01*
X381500Y288532D01*
X381531Y288512D01*
X381606Y288453D01*
X381721Y288392D01*
X381830Y288322D01*
X381919Y288285D01*
X382003Y288240D01*
X382127Y288200D01*
X382183Y288177D01*
X382247Y288151D01*
X382340Y288131D01*
X382431Y288101D01*
X382452Y288098D01*
X382560Y288083D01*
X382687Y288056D01*
X382817Y288048D01*
X382877Y288040D01*
X382922Y288041D01*
X382999Y288037D01*
X430172Y288037D01*
X430336Y288051D01*
X430500Y288058D01*
X430560Y288071D01*
X430621Y288077D01*
X430779Y288120D01*
X430940Y288156D01*
X430996Y288179D01*
X431020Y288185D01*
X431055Y288195D01*
X431203Y288266D01*
X431355Y288329D01*
X431407Y288362D01*
X431462Y288389D01*
X431595Y288484D01*
X431733Y288574D01*
X431791Y288625D01*
X431828Y288651D01*
X431870Y288694D01*
X431968Y288780D01*
X433492Y290304D01*
X433492Y290305D01*
X436006Y292819D01*
X436028Y292845D01*
X436054Y292869D01*
X436117Y292947D01*
X436152Y292984D01*
X436187Y293035D01*
X436295Y293164D01*
X436312Y293194D01*
X436334Y293222D01*
X436424Y293390D01*
X436518Y293555D01*
X436530Y293588D01*
X436546Y293619D01*
X436605Y293800D01*
X436669Y293980D01*
X436675Y294014D01*
X436686Y294047D01*
X436712Y294236D01*
X436743Y294424D01*
X436742Y294458D01*
X436747Y294493D01*
X436739Y294683D01*
X436737Y294874D01*
X436730Y294908D01*
X436729Y294943D01*
X436687Y295128D01*
X436651Y295316D01*
X436639Y295348D01*
X436631Y295382D01*
X436557Y295558D01*
X436489Y295736D01*
X436471Y295766D01*
X436457Y295798D01*
X436354Y295958D01*
X436255Y296121D01*
X436232Y296147D01*
X436213Y296176D01*
X436006Y296410D01*
X435394Y297022D01*
X434289Y298543D01*
X433436Y300217D01*
X432855Y302004D01*
X432815Y302261D01*
X444500Y302261D01*
X456185Y302261D01*
X456145Y302004D01*
X455564Y300217D01*
X454711Y298543D01*
X453606Y297022D01*
X452994Y296410D01*
X452972Y296384D01*
X452946Y296360D01*
X452827Y296211D01*
X452705Y296065D01*
X452688Y296034D01*
X452666Y296007D01*
X452577Y295840D01*
X452482Y295674D01*
X452470Y295641D01*
X452454Y295611D01*
X452395Y295429D01*
X452331Y295249D01*
X452325Y295215D01*
X452314Y295182D01*
X452288Y294993D01*
X452257Y294805D01*
X452258Y294771D01*
X452253Y294736D01*
X452261Y294545D01*
X452263Y294355D01*
X452270Y294321D01*
X452271Y294286D01*
X452313Y294100D01*
X452349Y293913D01*
X452361Y293881D01*
X452369Y293847D01*
X452442Y293671D01*
X452511Y293493D01*
X452529Y293463D01*
X452543Y293431D01*
X452646Y293272D01*
X452663Y293243D01*
X452666Y293238D01*
X452668Y293235D01*
X452745Y293108D01*
X452768Y293082D01*
X452787Y293053D01*
X452920Y292902D01*
X452938Y292879D01*
X452953Y292865D01*
X452994Y292819D01*
X457636Y288177D01*
X459995Y282482D01*
X459995Y276318D01*
X457636Y270623D01*
X455508Y268496D01*
X455486Y268469D01*
X455460Y268446D01*
X455342Y268297D01*
X455219Y268150D01*
X455202Y268120D01*
X455181Y268093D01*
X455091Y267924D01*
X455052Y267857D01*
X454996Y267759D01*
X454984Y267726D01*
X454968Y267696D01*
X454909Y267515D01*
X454869Y267402D01*
X454845Y267335D01*
X454840Y267301D01*
X454829Y267268D01*
X454811Y267134D01*
X454803Y267079D01*
X454783Y266960D01*
X454772Y266891D01*
X454772Y266856D01*
X454768Y266822D01*
X454775Y266631D01*
X454778Y266440D01*
X454785Y266406D01*
X454786Y266372D01*
X454827Y266186D01*
X454864Y265998D01*
X454876Y265966D01*
X454884Y265932D01*
X454957Y265757D01*
X455026Y265578D01*
X455044Y265549D01*
X455057Y265517D01*
X455160Y265357D01*
X455260Y265194D01*
X455283Y265168D01*
X455301Y265139D01*
X455371Y265059D01*
X455464Y264955D01*
X455469Y264948D01*
X455474Y264943D01*
X455508Y264904D01*
X456928Y263484D01*
X456929Y263484D01*
X457636Y262777D01*
X459995Y257082D01*
X459995Y250918D01*
X457636Y245223D01*
X455508Y243096D01*
X455486Y243069D01*
X455460Y243046D01*
X455342Y242897D01*
X455219Y242750D01*
X455202Y242720D01*
X455181Y242693D01*
X455091Y242524D01*
X455067Y242483D01*
X454996Y242359D01*
X454984Y242326D01*
X454968Y242296D01*
X454909Y242115D01*
X454857Y241968D01*
X454845Y241935D01*
X454840Y241901D01*
X454829Y241868D01*
X454809Y241722D01*
X454803Y241679D01*
X454789Y241595D01*
X454772Y241491D01*
X454772Y241456D01*
X454768Y241422D01*
X454775Y241231D01*
X454778Y241040D01*
X454785Y241006D01*
X454786Y240972D01*
X454827Y240786D01*
X454864Y240598D01*
X454876Y240566D01*
X454884Y240532D01*
X454957Y240357D01*
X455026Y240178D01*
X455044Y240149D01*
X455057Y240117D01*
X455160Y239957D01*
X455260Y239794D01*
X455283Y239768D01*
X455301Y239739D01*
X455338Y239698D01*
X455451Y239569D01*
X455462Y239555D01*
X455471Y239547D01*
X455508Y239504D01*
X456928Y238084D01*
X456929Y238084D01*
X457636Y237377D01*
X459995Y231682D01*
X459995Y225518D01*
X457636Y219823D01*
X452994Y215181D01*
X452972Y215155D01*
X452946Y215131D01*
X452827Y214982D01*
X452705Y214836D01*
X452688Y214806D01*
X452666Y214778D01*
X452576Y214610D01*
X452482Y214445D01*
X452470Y214412D01*
X452454Y214381D01*
X452395Y214200D01*
X452331Y214020D01*
X452325Y213986D01*
X452314Y213953D01*
X452288Y213763D01*
X452257Y213576D01*
X452258Y213542D01*
X452253Y213507D01*
X452261Y213317D01*
X452263Y213126D01*
X452270Y213092D01*
X452271Y213057D01*
X452313Y212872D01*
X452349Y212684D01*
X452361Y212652D01*
X452369Y212618D01*
X452443Y212442D01*
X452511Y212264D01*
X452529Y212234D01*
X452543Y212202D01*
X452646Y212042D01*
X452745Y211879D01*
X452768Y211853D01*
X452787Y211824D01*
X452994Y211590D01*
X453606Y210978D01*
X454711Y209457D01*
X455564Y207783D01*
X456145Y205996D01*
X456185Y205739D01*
X444500Y205739D01*
X432815Y205739D01*
X432855Y205996D01*
X433436Y207783D01*
X434289Y209457D01*
X435394Y210978D01*
X436006Y211590D01*
X436028Y211616D01*
X436054Y211640D01*
X436120Y211722D01*
X436125Y211728D01*
X436131Y211737D01*
X436173Y211789D01*
X436295Y211935D01*
X436312Y211966D01*
X436334Y211993D01*
X436423Y212160D01*
X436518Y212326D01*
X436530Y212359D01*
X436546Y212389D01*
X436605Y212571D01*
X436669Y212751D01*
X436675Y212785D01*
X436686Y212818D01*
X436712Y213007D01*
X436743Y213195D01*
X436742Y213229D01*
X436747Y213264D01*
X436739Y213455D01*
X436737Y213645D01*
X436730Y213679D01*
X436729Y213714D01*
X436687Y213900D01*
X436651Y214087D01*
X436639Y214119D01*
X436631Y214153D01*
X436558Y214329D01*
X436489Y214507D01*
X436471Y214537D01*
X436457Y214569D01*
X436354Y214728D01*
X436255Y214892D01*
X436232Y214918D01*
X436213Y214947D01*
X436006Y215181D01*
X433492Y217695D01*
X431968Y219220D01*
X431842Y219325D01*
X431721Y219437D01*
X431669Y219469D01*
X431622Y219508D01*
X431480Y219590D01*
X431341Y219678D01*
X431284Y219702D01*
X431231Y219732D01*
X431076Y219787D01*
X430924Y219849D01*
X430888Y219857D01*
X430865Y219862D01*
X430807Y219883D01*
X430701Y219900D01*
X430645Y219909D01*
X430484Y219944D01*
X430473Y219945D01*
X430407Y219949D01*
X430363Y219956D01*
X430302Y219955D01*
X430172Y219963D01*
X381253Y219963D01*
X381075Y219948D01*
X380898Y219938D01*
X380852Y219928D01*
X380804Y219923D01*
X380633Y219877D01*
X380460Y219836D01*
X380416Y219817D01*
X380370Y219805D01*
X380210Y219729D01*
X380046Y219658D01*
X380006Y219632D01*
X379963Y219611D01*
X379819Y219508D01*
X379670Y219410D01*
X379636Y219377D01*
X379597Y219349D01*
X379473Y219222D01*
X379345Y219099D01*
X379316Y219061D01*
X379283Y219027D01*
X379183Y218879D01*
X379079Y218736D01*
X379058Y218693D01*
X379031Y218654D01*
X378959Y218491D01*
X378881Y218332D01*
X378868Y218286D01*
X378849Y218242D01*
X378806Y218069D01*
X378758Y217898D01*
X378753Y217851D01*
X378742Y217804D01*
X378731Y217627D01*
X378713Y217450D01*
X378717Y217403D01*
X378714Y217355D01*
X378735Y217178D01*
X378749Y217001D01*
X378761Y216955D01*
X378766Y216908D01*
X378818Y216737D01*
X378863Y216566D01*
X378883Y216523D01*
X378897Y216477D01*
X378977Y216318D01*
X379052Y216157D01*
X379079Y216118D01*
X379101Y216075D01*
X379208Y215934D01*
X379310Y215788D01*
X379344Y215755D01*
X379373Y215717D01*
X379504Y215596D01*
X379630Y215471D01*
X379669Y215444D01*
X379704Y215412D01*
X379854Y215316D01*
X380000Y215215D01*
X380053Y215189D01*
X380084Y215170D01*
X380142Y215146D01*
X380281Y215078D01*
X382082Y214332D01*
X384869Y211545D01*
X398235Y198179D01*
X401022Y195392D01*
X402337Y192218D01*
X402337Y192128D01*
X402345Y192032D01*
X402351Y191964D01*
X402358Y191800D01*
X402371Y191740D01*
X402377Y191679D01*
X402380Y191668D01*
X402420Y191521D01*
X402456Y191360D01*
X402479Y191304D01*
X402480Y191300D01*
X402495Y191245D01*
X402566Y191097D01*
X402578Y191068D01*
X402629Y190945D01*
X402662Y190893D01*
X402689Y190838D01*
X402745Y190760D01*
X402784Y190705D01*
X402874Y190567D01*
X402925Y190509D01*
X402951Y190472D01*
X402994Y190430D01*
X403080Y190332D01*
X406232Y187180D01*
X406358Y187075D01*
X406479Y186963D01*
X406531Y186931D01*
X406578Y186892D01*
X406720Y186810D01*
X406859Y186722D01*
X406916Y186698D01*
X406969Y186668D01*
X407124Y186613D01*
X407276Y186551D01*
X407289Y186548D01*
X407335Y186538D01*
X407386Y186520D01*
X407393Y186517D01*
X407425Y186512D01*
X407555Y186491D01*
X407646Y186471D01*
X407716Y186456D01*
X407725Y186455D01*
X407793Y186451D01*
X407837Y186444D01*
X407898Y186445D01*
X408028Y186437D01*
X430172Y186437D01*
X430336Y186451D01*
X430500Y186458D01*
X430560Y186471D01*
X430621Y186477D01*
X430779Y186520D01*
X430940Y186556D01*
X430996Y186579D01*
X431055Y186595D01*
X431203Y186666D01*
X431355Y186729D01*
X431407Y186762D01*
X431462Y186789D01*
X431595Y186884D01*
X431733Y186974D01*
X431791Y187025D01*
X431828Y187051D01*
X431870Y187094D01*
X431968Y187180D01*
X436006Y191219D01*
X436028Y191246D01*
X436054Y191269D01*
X436133Y191368D01*
X436178Y191414D01*
X436214Y191467D01*
X436295Y191564D01*
X436312Y191594D01*
X436334Y191622D01*
X436393Y191733D01*
X436430Y191787D01*
X436456Y191847D01*
X436518Y191955D01*
X436530Y191988D01*
X436546Y192019D01*
X436585Y192137D01*
X436612Y192199D01*
X436628Y192264D01*
X436669Y192380D01*
X436675Y192414D01*
X436686Y192447D01*
X436702Y192568D01*
X436719Y192636D01*
X436723Y192706D01*
X436743Y192824D01*
X436742Y192858D01*
X436747Y192893D01*
X436742Y193012D01*
X436747Y193086D01*
X436738Y193159D01*
X436737Y193274D01*
X436730Y193308D01*
X436729Y193343D01*
X436704Y193455D01*
X436695Y193533D01*
X436672Y193608D01*
X436651Y193716D01*
X436638Y193748D01*
X436631Y193782D01*
X436588Y193884D01*
X436564Y193964D01*
X436527Y194038D01*
X436489Y194136D01*
X436471Y194166D01*
X436457Y194198D01*
X436400Y194286D01*
X436360Y194365D01*
X436307Y194435D01*
X436255Y194521D01*
X436232Y194547D01*
X436213Y194576D01*
X436123Y194678D01*
X436088Y194724D01*
X436056Y194753D01*
X436006Y194810D01*
X435394Y195422D01*
X434289Y196943D01*
X433436Y198617D01*
X432855Y200404D01*
X432815Y200661D01*
X444500Y200661D01*
X456185Y200661D01*
X456145Y200404D01*
X455564Y198617D01*
X454711Y196943D01*
X453606Y195422D01*
X452994Y194810D01*
X452972Y194784D01*
X452946Y194760D01*
X452886Y194685D01*
X452822Y194619D01*
X452770Y194542D01*
X452705Y194465D01*
X452688Y194434D01*
X452666Y194407D01*
X452618Y194318D01*
X452570Y194246D01*
X452535Y194167D01*
X452482Y194074D01*
X452470Y194041D01*
X452454Y194011D01*
X452421Y193909D01*
X452388Y193835D01*
X452368Y193755D01*
X452331Y193649D01*
X452325Y193615D01*
X452314Y193582D01*
X452299Y193472D01*
X452281Y193397D01*
X452276Y193320D01*
X452257Y193205D01*
X452258Y193171D01*
X452253Y193136D01*
X452258Y193020D01*
X452253Y192948D01*
X452262Y192875D01*
X452263Y192755D01*
X452270Y192721D01*
X452271Y192686D01*
X452297Y192569D01*
X452305Y192500D01*
X452326Y192433D01*
X452349Y192313D01*
X452361Y192281D01*
X452369Y192247D01*
X452416Y192133D01*
X452436Y192069D01*
X452466Y192010D01*
X452511Y191893D01*
X452529Y191863D01*
X452543Y191831D01*
X452611Y191726D01*
X452640Y191668D01*
X452679Y191616D01*
X452745Y191508D01*
X452768Y191482D01*
X452787Y191453D01*
X452901Y191324D01*
X452912Y191309D01*
X452922Y191300D01*
X452994Y191219D01*
X455508Y188705D01*
X455508Y188704D01*
X456928Y187284D01*
X456929Y187284D01*
X457636Y186577D01*
X459995Y180882D01*
X459995Y174718D01*
X457636Y169023D01*
X453277Y164664D01*
X453088Y164586D01*
X447582Y162305D01*
X441418Y162305D01*
X435723Y164664D01*
X431968Y168420D01*
X431842Y168525D01*
X431721Y168637D01*
X431669Y168669D01*
X431622Y168708D01*
X431480Y168790D01*
X431341Y168878D01*
X431284Y168902D01*
X431231Y168932D01*
X431076Y168987D01*
X430924Y169049D01*
X430865Y169062D01*
X430807Y169083D01*
X430645Y169109D01*
X430484Y169144D01*
X430407Y169149D01*
X430363Y169156D01*
X430302Y169155D01*
X430172Y169163D01*
X408028Y169163D01*
X407864Y169149D01*
X407700Y169142D01*
X407640Y169129D01*
X407579Y169123D01*
X407421Y169080D01*
X407260Y169044D01*
X407204Y169021D01*
X407145Y169005D01*
X406997Y168934D01*
X406972Y168924D01*
X406845Y168871D01*
X406793Y168838D01*
X406738Y168811D01*
X406605Y168716D01*
X406467Y168626D01*
X406409Y168575D01*
X406372Y168549D01*
X406330Y168506D01*
X406232Y168420D01*
X404708Y166896D01*
X404686Y166869D01*
X404660Y166846D01*
X404542Y166697D01*
X404419Y166550D01*
X404402Y166520D01*
X404381Y166493D01*
X404291Y166325D01*
X404196Y166159D01*
X404184Y166126D01*
X404168Y166096D01*
X404109Y165915D01*
X404045Y165735D01*
X404040Y165701D01*
X404029Y165668D01*
X404003Y165479D01*
X403972Y165291D01*
X403972Y165256D01*
X403968Y165222D01*
X403975Y165031D01*
X403978Y164840D01*
X403985Y164806D01*
X403986Y164772D01*
X404010Y164664D01*
X404027Y164585D01*
X404064Y164398D01*
X404076Y164366D01*
X404084Y164332D01*
X404157Y164157D01*
X404159Y164153D01*
X404163Y164138D01*
X404168Y164128D01*
X404226Y163978D01*
X404244Y163949D01*
X404257Y163917D01*
X404344Y163782D01*
X404367Y163736D01*
X404395Y163700D01*
X404460Y163594D01*
X404483Y163568D01*
X404501Y163539D01*
X404613Y163412D01*
X404639Y163378D01*
X404663Y163356D01*
X404708Y163304D01*
X406836Y161177D01*
X409195Y155482D01*
X409195Y149318D01*
X406836Y143623D01*
X402194Y138981D01*
X402172Y138955D01*
X402146Y138931D01*
X402027Y138782D01*
X401905Y138636D01*
X401888Y138606D01*
X401866Y138578D01*
X401776Y138410D01*
X401682Y138245D01*
X401670Y138212D01*
X401654Y138181D01*
X401595Y138000D01*
X401531Y137820D01*
X401525Y137786D01*
X401514Y137753D01*
X401488Y137564D01*
X401457Y137376D01*
X401458Y137342D01*
X401453Y137307D01*
X401461Y137117D01*
X401463Y136926D01*
X401470Y136892D01*
X401471Y136857D01*
X401513Y136672D01*
X401549Y136484D01*
X401561Y136452D01*
X401569Y136418D01*
X401643Y136242D01*
X401711Y136064D01*
X401729Y136034D01*
X401743Y136002D01*
X401846Y135842D01*
X401945Y135679D01*
X401968Y135653D01*
X401987Y135624D01*
X402128Y135464D01*
X402142Y135446D01*
X402155Y135434D01*
X402194Y135390D01*
X402806Y134778D01*
X403911Y133257D01*
X404764Y131583D01*
X405345Y129796D01*
X405385Y129539D01*
X393700Y129539D01*
X382015Y129539D01*
X382055Y129796D01*
X382636Y131583D01*
X383489Y133257D01*
X384594Y134778D01*
X385206Y135390D01*
X385228Y135416D01*
X385254Y135440D01*
X385317Y135519D01*
X385348Y135551D01*
X385379Y135597D01*
X385495Y135735D01*
X385512Y135766D01*
X385534Y135793D01*
X385623Y135960D01*
X385718Y136126D01*
X385730Y136159D01*
X385746Y136189D01*
X385805Y136371D01*
X385869Y136551D01*
X385875Y136585D01*
X385886Y136618D01*
X385912Y136807D01*
X385943Y136995D01*
X385942Y137029D01*
X385947Y137064D01*
X385939Y137255D01*
X385937Y137445D01*
X385930Y137479D01*
X385929Y137514D01*
X385887Y137700D01*
X385851Y137887D01*
X385839Y137919D01*
X385831Y137953D01*
X385758Y138129D01*
X385689Y138307D01*
X385671Y138337D01*
X385657Y138369D01*
X385554Y138528D01*
X385455Y138692D01*
X385432Y138718D01*
X385413Y138747D01*
X385206Y138981D01*
X382692Y141495D01*
X381168Y143020D01*
X381042Y143125D01*
X380921Y143237D01*
X380869Y143269D01*
X380822Y143308D01*
X380680Y143390D01*
X380541Y143478D01*
X380484Y143502D01*
X380431Y143532D01*
X380276Y143587D01*
X380124Y143649D01*
X380109Y143653D01*
X380065Y143662D01*
X380007Y143683D01*
X379901Y143700D01*
X379845Y143709D01*
X379684Y143744D01*
X379673Y143745D01*
X379607Y143749D01*
X379563Y143756D01*
X379502Y143755D01*
X379372Y143763D01*
X369928Y143763D01*
X369764Y143749D01*
X369600Y143742D01*
X369540Y143729D01*
X369479Y143723D01*
X369321Y143680D01*
X369160Y143644D01*
X369104Y143621D01*
X369067Y143611D01*
X369045Y143605D01*
X368897Y143534D01*
X368818Y143502D01*
X368745Y143471D01*
X368693Y143438D01*
X368666Y143425D01*
X368638Y143411D01*
X368505Y143316D01*
X368367Y143226D01*
X368309Y143175D01*
X368272Y143149D01*
X368230Y143106D01*
X368132Y143020D01*
X365084Y139972D01*
X365084Y139971D01*
X364377Y139264D01*
X358682Y136905D01*
X352518Y136905D01*
X346823Y139264D01*
X342464Y143623D01*
X340105Y149318D01*
X340105Y155482D01*
X342464Y161177D01*
X346823Y165536D01*
X352518Y167895D01*
X358682Y167895D01*
X364377Y165536D01*
X368132Y161780D01*
X368258Y161675D01*
X368379Y161563D01*
X368431Y161531D01*
X368478Y161492D01*
X368620Y161410D01*
X368759Y161322D01*
X368816Y161298D01*
X368869Y161268D01*
X369024Y161213D01*
X369176Y161151D01*
X369191Y161147D01*
X369235Y161138D01*
X369286Y161120D01*
X369293Y161117D01*
X369325Y161112D01*
X369455Y161091D01*
X369546Y161071D01*
X369616Y161056D01*
X369625Y161055D01*
X369693Y161051D01*
X369737Y161044D01*
X369798Y161045D01*
X369928Y161037D01*
X379372Y161037D01*
X379536Y161051D01*
X379700Y161058D01*
X379760Y161071D01*
X379821Y161077D01*
X379979Y161120D01*
X380025Y161130D01*
X380140Y161156D01*
X380196Y161179D01*
X380255Y161195D01*
X380403Y161266D01*
X380555Y161329D01*
X380607Y161362D01*
X380662Y161389D01*
X380795Y161484D01*
X380933Y161574D01*
X380991Y161625D01*
X381028Y161651D01*
X381070Y161694D01*
X381168Y161780D01*
X382692Y163304D01*
X382714Y163331D01*
X382740Y163354D01*
X382801Y163431D01*
X382851Y163482D01*
X382894Y163546D01*
X382981Y163650D01*
X382998Y163680D01*
X383019Y163707D01*
X383083Y163826D01*
X383103Y163855D01*
X383119Y163893D01*
X383204Y164041D01*
X383215Y164073D01*
X383232Y164104D01*
X383284Y164266D01*
X383285Y164267D01*
X383286Y164269D01*
X383291Y164285D01*
X383331Y164398D01*
X383355Y164465D01*
X383360Y164499D01*
X383371Y164532D01*
X383397Y164721D01*
X383428Y164909D01*
X383428Y164944D01*
X383432Y164978D01*
X383425Y165169D01*
X383422Y165360D01*
X383415Y165394D01*
X383414Y165428D01*
X383373Y165614D01*
X383336Y165802D01*
X383324Y165834D01*
X383316Y165868D01*
X383243Y166044D01*
X383174Y166222D01*
X383156Y166251D01*
X383143Y166283D01*
X383039Y166444D01*
X382940Y166606D01*
X382917Y166632D01*
X382899Y166661D01*
X382692Y166896D01*
X380564Y169023D01*
X378205Y174718D01*
X378205Y180882D01*
X380564Y186577D01*
X381191Y187204D01*
X381213Y187230D01*
X381239Y187253D01*
X381357Y187403D01*
X381480Y187549D01*
X381497Y187579D01*
X381519Y187606D01*
X381609Y187774D01*
X381703Y187940D01*
X381715Y187973D01*
X381731Y188003D01*
X381790Y188185D01*
X381854Y188364D01*
X381860Y188399D01*
X381870Y188432D01*
X381896Y188620D01*
X381928Y188809D01*
X381927Y188843D01*
X381932Y188878D01*
X381924Y189068D01*
X381921Y189259D01*
X381915Y189293D01*
X381913Y189327D01*
X381872Y189513D01*
X381836Y189701D01*
X381823Y189733D01*
X381816Y189767D01*
X381742Y189943D01*
X381674Y190121D01*
X381656Y190150D01*
X381642Y190183D01*
X381605Y190240D01*
X381539Y190342D01*
X381440Y190506D01*
X381417Y190532D01*
X381398Y190561D01*
X381191Y190795D01*
X374356Y197630D01*
X374230Y197735D01*
X374109Y197847D01*
X374058Y197879D01*
X374011Y197918D01*
X373868Y198000D01*
X373729Y198088D01*
X373673Y198112D01*
X373620Y198142D01*
X373465Y198197D01*
X373313Y198259D01*
X373253Y198272D01*
X373196Y198293D01*
X373033Y198319D01*
X372873Y198354D01*
X372796Y198359D01*
X372751Y198366D01*
X372711Y198366D01*
X372690Y198365D01*
X372677Y198366D01*
X372561Y198373D01*
X248472Y198373D01*
X245298Y199688D01*
X242511Y202475D01*
X241514Y203472D01*
X233978Y211008D01*
X232663Y214182D01*
X232663Y215889D01*
X232661Y215915D01*
X232662Y215939D01*
X232648Y216058D01*
X232642Y216217D01*
X232629Y216276D01*
X232623Y216337D01*
X232610Y216384D01*
X232610Y216386D01*
X232607Y216397D01*
X232580Y216496D01*
X232544Y216656D01*
X232521Y216713D01*
X232505Y216771D01*
X232434Y216919D01*
X232371Y217072D01*
X232338Y217123D01*
X232311Y217178D01*
X232216Y217311D01*
X232126Y217450D01*
X232075Y217508D01*
X232049Y217544D01*
X232006Y217587D01*
X231920Y217684D01*
X229133Y220470D01*
X226948Y225745D01*
X226948Y231455D01*
X229133Y236730D01*
X231920Y239516D01*
X232011Y239625D01*
X232045Y239660D01*
X232054Y239673D01*
X232137Y239763D01*
X232169Y239815D01*
X232208Y239861D01*
X232290Y240004D01*
X232378Y240143D01*
X232402Y240199D01*
X232432Y240252D01*
X232487Y240407D01*
X232549Y240559D01*
X232562Y240619D01*
X232583Y240677D01*
X232609Y240839D01*
X232644Y241000D01*
X232649Y241077D01*
X232656Y241121D01*
X232655Y241181D01*
X232663Y241311D01*
X232663Y266689D01*
X232661Y266709D01*
X232662Y266724D01*
X232653Y266805D01*
X232649Y266852D01*
X232642Y267017D01*
X232629Y267076D01*
X232623Y267137D01*
X232580Y267296D01*
X232544Y267456D01*
X232521Y267513D01*
X232505Y267571D01*
X232434Y267720D01*
X232371Y267872D01*
X232338Y267923D01*
X232311Y267978D01*
X232216Y268112D01*
X232126Y268250D01*
X232075Y268308D01*
X232049Y268344D01*
X232006Y268387D01*
X231920Y268484D01*
X229133Y271270D01*
X226948Y276545D01*
X226948Y282255D01*
X229133Y287530D01*
X231920Y290316D01*
X232013Y290428D01*
X232030Y290445D01*
X232035Y290453D01*
X232137Y290563D01*
X232169Y290615D01*
X232208Y290661D01*
X232290Y290804D01*
X232378Y290943D01*
X232402Y290999D01*
X232432Y291052D01*
X232487Y291207D01*
X232549Y291359D01*
X232562Y291419D01*
X232583Y291477D01*
X232609Y291639D01*
X232644Y291800D01*
X232649Y291877D01*
X232656Y291921D01*
X232655Y291981D01*
X232663Y292111D01*
X232663Y293818D01*
X233978Y296992D01*
X246321Y309335D01*
X249108Y312122D01*
X252282Y313437D01*
X352107Y313437D01*
X352319Y313456D01*
X352530Y313472D01*
X352543Y313475D01*
X352556Y313477D01*
X352762Y313533D01*
X352966Y313586D01*
X352978Y313592D01*
X352990Y313595D01*
X353181Y313686D01*
X353374Y313775D01*
X353385Y313783D01*
X353397Y313789D01*
X353569Y313911D01*
X353743Y314034D01*
X353752Y314043D01*
X353763Y314051D01*
X353912Y314203D01*
X354060Y314353D01*
X354068Y314364D01*
X354077Y314373D01*
X354196Y314549D01*
X354316Y314723D01*
X354323Y314738D01*
X354329Y314746D01*
X354345Y314782D01*
X354453Y315004D01*
X355076Y316508D01*
X356792Y318224D01*
X358296Y318847D01*
X358483Y318945D01*
X358673Y319041D01*
X358683Y319049D01*
X358695Y319055D01*
X358862Y319185D01*
X359031Y319313D01*
X359040Y319323D01*
X359051Y319331D01*
X359193Y319488D01*
X359337Y319644D01*
X359344Y319655D01*
X359352Y319665D01*
X359463Y319844D01*
X359578Y320024D01*
X359583Y320036D01*
X359590Y320047D01*
X359669Y320244D01*
X359749Y320441D01*
X359752Y320453D01*
X359757Y320466D01*
X359799Y320673D01*
X359844Y320881D01*
X359845Y320897D01*
X359847Y320907D01*
X359848Y320946D01*
X359863Y321193D01*
X359863Y341072D01*
X359849Y341236D01*
X359842Y341400D01*
X359829Y341460D01*
X359823Y341521D01*
X359780Y341679D01*
X359744Y341840D01*
X359721Y341896D01*
X359705Y341955D01*
X359634Y342103D01*
X359571Y342255D01*
X359538Y342307D01*
X359511Y342362D01*
X359416Y342495D01*
X359326Y342633D01*
X359275Y342691D01*
X359249Y342728D01*
X359206Y342770D01*
X359120Y342868D01*
X355164Y346823D01*
X352805Y352518D01*
X352805Y357829D01*
X352791Y357992D01*
X352784Y358157D01*
X352771Y358216D01*
X352765Y358277D01*
X352722Y358436D01*
X352686Y358596D01*
X352663Y358653D01*
X352647Y358712D01*
X352576Y358860D01*
X352513Y359012D01*
X352480Y359063D01*
X352453Y359118D01*
X352358Y359252D01*
X352268Y359390D01*
X352217Y359448D01*
X352191Y359484D01*
X352148Y359527D01*
X352062Y359624D01*
X345875Y365811D01*
X340066Y371620D01*
X339940Y371725D01*
X339819Y371837D01*
X339768Y371869D01*
X339721Y371908D01*
X339578Y371990D01*
X339439Y372078D01*
X339383Y372102D01*
X339330Y372132D01*
X339175Y372187D01*
X339023Y372249D01*
X338963Y372262D01*
X338906Y372283D01*
X338743Y372309D01*
X338583Y372344D01*
X338506Y372349D01*
X338461Y372356D01*
X338400Y372355D01*
X338271Y372363D01*
X316080Y372363D01*
X315950Y372352D01*
X315820Y372350D01*
X315727Y372332D01*
X315631Y372323D01*
X315506Y372289D01*
X315378Y372264D01*
X315289Y372230D01*
X315197Y372205D01*
X315080Y372149D01*
X314958Y372102D01*
X314876Y372052D01*
X314790Y372011D01*
X314685Y371936D01*
X314574Y371868D01*
X314502Y371805D01*
X314424Y371749D01*
X314334Y371656D01*
X314236Y371570D01*
X314177Y371495D01*
X314110Y371427D01*
X314037Y371319D01*
X313957Y371217D01*
X313912Y371133D01*
X313858Y371054D01*
X313806Y370935D01*
X313744Y370820D01*
X313715Y370729D01*
X313676Y370642D01*
X313645Y370515D01*
X313605Y370392D01*
X313592Y370297D01*
X313569Y370204D01*
X313561Y370075D01*
X313544Y369946D01*
X313547Y369850D01*
X313542Y369755D01*
X313557Y369626D01*
X313562Y369496D01*
X313583Y369403D01*
X313594Y369308D01*
X313631Y369183D01*
X313659Y369056D01*
X313696Y368968D01*
X313724Y368877D01*
X313783Y368761D01*
X313833Y368641D01*
X313885Y368561D01*
X313928Y368475D01*
X314007Y368372D01*
X314077Y368263D01*
X314163Y368165D01*
X314200Y368117D01*
X314233Y368086D01*
X314284Y368028D01*
X317936Y364377D01*
X320295Y358682D01*
X320295Y352518D01*
X317936Y346823D01*
X313577Y342464D01*
X307882Y340105D01*
X302571Y340105D01*
X302408Y340091D01*
X302243Y340084D01*
X302184Y340071D01*
X302123Y340065D01*
X301964Y340022D01*
X301804Y339986D01*
X301747Y339963D01*
X301688Y339947D01*
X301540Y339876D01*
X301388Y339813D01*
X301337Y339780D01*
X301282Y339753D01*
X301148Y339658D01*
X301010Y339568D01*
X300952Y339517D01*
X300916Y339491D01*
X300873Y339448D01*
X300776Y339362D01*
X284292Y322878D01*
X281118Y321563D01*
X245929Y321563D01*
X245766Y321549D01*
X245601Y321542D01*
X245542Y321529D01*
X245481Y321523D01*
X245322Y321480D01*
X245162Y321444D01*
X245105Y321421D01*
X245046Y321405D01*
X244898Y321334D01*
X244746Y321271D01*
X244695Y321238D01*
X244640Y321211D01*
X244506Y321116D01*
X244368Y321026D01*
X244310Y320975D01*
X244274Y320949D01*
X244231Y320906D01*
X244134Y320820D01*
X215709Y292395D01*
X215687Y292368D01*
X215661Y292345D01*
X215543Y292196D01*
X215420Y292049D01*
X215403Y292019D01*
X215381Y291992D01*
X215291Y291824D01*
X215197Y291659D01*
X215185Y291626D01*
X215169Y291595D01*
X215110Y291414D01*
X215046Y291234D01*
X215040Y291200D01*
X215030Y291167D01*
X215004Y290978D01*
X214972Y290790D01*
X214973Y290755D01*
X214968Y290721D01*
X214976Y290531D01*
X214979Y290340D01*
X214985Y290306D01*
X214987Y290271D01*
X215028Y290085D01*
X215064Y289898D01*
X215077Y289865D01*
X215084Y289832D01*
X215158Y289656D01*
X215226Y289478D01*
X215244Y289448D01*
X215258Y289416D01*
X215361Y289256D01*
X215460Y289093D01*
X215483Y289067D01*
X215502Y289038D01*
X215709Y288804D01*
X216336Y288177D01*
X218695Y282482D01*
X218695Y276318D01*
X216336Y270623D01*
X211977Y266264D01*
X206282Y263905D01*
X200118Y263905D01*
X199435Y264188D01*
X199434Y264188D01*
X194423Y266264D01*
X190064Y270623D01*
X189498Y271990D01*
X189400Y272178D01*
X189304Y272367D01*
X189296Y272377D01*
X189290Y272389D01*
X189160Y272557D01*
X189032Y272725D01*
X189022Y272734D01*
X189014Y272745D01*
X188857Y272886D01*
X188701Y273031D01*
X188689Y273038D01*
X188680Y273046D01*
X188501Y273158D01*
X188321Y273272D01*
X188308Y273277D01*
X188297Y273284D01*
X188100Y273363D01*
X187904Y273443D01*
X187891Y273446D01*
X187879Y273451D01*
X187671Y273494D01*
X187464Y273538D01*
X187448Y273539D01*
X187438Y273541D01*
X187398Y273542D01*
X187152Y273557D01*
X173840Y273557D01*
X173676Y273543D01*
X173512Y273536D01*
X173452Y273523D01*
X173391Y273517D01*
X173233Y273474D01*
X173072Y273438D01*
X173016Y273415D01*
X172957Y273399D01*
X172809Y273328D01*
X172805Y273327D01*
X172657Y273265D01*
X172605Y273232D01*
X172550Y273205D01*
X172417Y273110D01*
X172279Y273020D01*
X172221Y272969D01*
X172184Y272943D01*
X172142Y272900D01*
X172044Y272814D01*
X168289Y269058D01*
X167933Y268911D01*
X167107Y268569D01*
X164580Y267522D01*
X162594Y266699D01*
X156430Y266699D01*
X150735Y269058D01*
X146376Y273417D01*
X144017Y279112D01*
X144017Y285276D01*
X146376Y290971D01*
X150735Y295330D01*
X156430Y297689D01*
X162594Y297689D01*
X168289Y295330D01*
X172044Y291574D01*
X172170Y291469D01*
X172291Y291357D01*
X172343Y291325D01*
X172390Y291286D01*
X172510Y291217D01*
X172532Y291204D01*
X172549Y291193D01*
X172671Y291116D01*
X172728Y291092D01*
X172781Y291062D01*
X172936Y291007D01*
X173088Y290945D01*
X173147Y290932D01*
X173205Y290911D01*
X173367Y290885D01*
X173477Y290861D01*
X173528Y290850D01*
X173567Y290848D01*
X173605Y290845D01*
X173649Y290838D01*
X173710Y290839D01*
X173840Y290831D01*
X191666Y290831D01*
X191830Y290845D01*
X191994Y290852D01*
X192054Y290865D01*
X192115Y290871D01*
X192273Y290914D01*
X192434Y290950D01*
X192490Y290973D01*
X192549Y290989D01*
X192697Y291060D01*
X192849Y291123D01*
X192901Y291156D01*
X192956Y291183D01*
X193089Y291278D01*
X193227Y291368D01*
X193285Y291419D01*
X193322Y291445D01*
X193364Y291488D01*
X193462Y291574D01*
X193820Y291932D01*
X193925Y292059D01*
X194037Y292179D01*
X194069Y292231D01*
X194108Y292278D01*
X194190Y292420D01*
X194278Y292559D01*
X194302Y292616D01*
X194332Y292669D01*
X194387Y292824D01*
X194449Y292976D01*
X194462Y293035D01*
X194483Y293093D01*
X194509Y293255D01*
X194544Y293416D01*
X194549Y293493D01*
X194556Y293537D01*
X194555Y293588D01*
X194555Y293598D01*
X194563Y293728D01*
X194563Y293818D01*
X195878Y296992D01*
X236408Y337522D01*
X239582Y338837D01*
X274771Y338837D01*
X274934Y338851D01*
X275099Y338858D01*
X275158Y338871D01*
X275219Y338877D01*
X275378Y338920D01*
X275538Y338956D01*
X275595Y338979D01*
X275654Y338995D01*
X275802Y339066D01*
X275954Y339129D01*
X276005Y339162D01*
X276060Y339189D01*
X276194Y339284D01*
X276332Y339374D01*
X276390Y339425D01*
X276426Y339451D01*
X276469Y339494D01*
X276566Y339580D01*
X288562Y351576D01*
X288667Y351702D01*
X288779Y351823D01*
X288811Y351874D01*
X288850Y351921D01*
X288932Y352064D01*
X289020Y352203D01*
X289044Y352259D01*
X289074Y352312D01*
X289129Y352467D01*
X289191Y352619D01*
X289204Y352679D01*
X289225Y352736D01*
X289251Y352899D01*
X289286Y353059D01*
X289291Y353136D01*
X289298Y353181D01*
X289297Y353242D01*
X289305Y353371D01*
X289305Y358682D01*
X291664Y364377D01*
X295316Y368028D01*
X295399Y368128D01*
X295490Y368221D01*
X295543Y368301D01*
X295605Y368374D01*
X295669Y368487D01*
X295742Y368594D01*
X295781Y368682D01*
X295828Y368765D01*
X295871Y368887D01*
X295924Y369006D01*
X295947Y369099D01*
X295979Y369189D01*
X296000Y369317D01*
X296031Y369444D01*
X296037Y369539D01*
X296052Y369633D01*
X296050Y369763D01*
X296058Y369893D01*
X296047Y369988D01*
X296046Y370084D01*
X296021Y370211D01*
X296006Y370340D01*
X295979Y370432D01*
X295961Y370526D01*
X295914Y370647D01*
X295876Y370771D01*
X295833Y370857D01*
X295798Y370946D01*
X295731Y371057D01*
X295672Y371173D01*
X295614Y371249D01*
X295564Y371330D01*
X295478Y371428D01*
X295400Y371531D01*
X295329Y371596D01*
X295266Y371668D01*
X295164Y371748D01*
X295069Y371837D01*
X294988Y371888D01*
X294913Y371947D01*
X294798Y372008D01*
X294689Y372078D01*
X294600Y372115D01*
X294516Y372160D01*
X294392Y372200D01*
X294272Y372249D01*
X294179Y372269D01*
X294088Y372299D01*
X293959Y372317D01*
X293832Y372344D01*
X293702Y372352D01*
X293642Y372360D01*
X293597Y372359D01*
X293520Y372363D01*
X205943Y372363D01*
X205917Y372361D01*
X205891Y372363D01*
X205693Y372341D01*
X205494Y372323D01*
X205469Y372316D01*
X205443Y372314D01*
X205252Y372257D01*
X205060Y372205D01*
X205036Y372194D01*
X205011Y372186D01*
X204832Y372097D01*
X204653Y372011D01*
X204632Y371996D01*
X204609Y371985D01*
X204449Y371865D01*
X204287Y371749D01*
X204269Y371731D01*
X204248Y371715D01*
X204112Y371569D01*
X203973Y371427D01*
X203959Y371405D01*
X203941Y371386D01*
X203833Y371219D01*
X203721Y371054D01*
X203710Y371030D01*
X203696Y371008D01*
X203620Y370824D01*
X203539Y370642D01*
X203533Y370616D01*
X203523Y370592D01*
X203479Y370398D01*
X203432Y370204D01*
X203431Y370178D01*
X203425Y370153D01*
X203417Y369954D01*
X203404Y369755D01*
X203407Y369729D01*
X203406Y369703D01*
X203433Y369506D01*
X203457Y369308D01*
X203464Y369283D01*
X203468Y369257D01*
X203529Y369068D01*
X203587Y368877D01*
X203599Y368853D01*
X203607Y368829D01*
X203701Y368653D01*
X203791Y368475D01*
X203807Y368455D01*
X203819Y368432D01*
X203943Y368275D01*
X204063Y368117D01*
X204082Y368099D01*
X204099Y368078D01*
X204248Y367947D01*
X204394Y367812D01*
X204416Y367797D01*
X204436Y367780D01*
X204606Y367677D01*
X204774Y367570D01*
X204798Y367560D01*
X204821Y367546D01*
X205006Y367474D01*
X205191Y367399D01*
X205216Y367393D01*
X205241Y367384D01*
X205546Y367316D01*
X205996Y367245D01*
X207783Y366664D01*
X209457Y365811D01*
X210978Y364706D01*
X212306Y363378D01*
X213411Y361857D01*
X214264Y360183D01*
X214845Y358396D01*
X214885Y358139D01*
X203200Y358139D01*
X191515Y358139D01*
X191555Y358396D01*
X192136Y360183D01*
X192989Y361857D01*
X194094Y363378D01*
X195422Y364706D01*
X196943Y365811D01*
X198617Y366664D01*
X200404Y367245D01*
X200854Y367316D01*
X200880Y367322D01*
X200906Y367325D01*
X201098Y367377D01*
X201291Y367426D01*
X201315Y367436D01*
X201340Y367443D01*
X201519Y367528D01*
X201702Y367611D01*
X201723Y367625D01*
X201747Y367637D01*
X201908Y367752D01*
X202073Y367865D01*
X202092Y367884D01*
X202113Y367899D01*
X202252Y368041D01*
X202394Y368181D01*
X202409Y368203D01*
X202427Y368221D01*
X202538Y368386D01*
X202653Y368549D01*
X202664Y368573D01*
X202679Y368594D01*
X202759Y368776D01*
X202844Y368957D01*
X202851Y368982D01*
X202861Y369006D01*
X202908Y369199D01*
X202960Y369392D01*
X202962Y369418D01*
X202968Y369444D01*
X202980Y369642D01*
X202996Y369841D01*
X202994Y369867D01*
X202996Y369893D01*
X202972Y370091D01*
X202954Y370289D01*
X202946Y370314D01*
X202943Y370340D01*
X202886Y370531D01*
X202832Y370723D01*
X202821Y370746D01*
X202813Y370771D01*
X202723Y370949D01*
X202636Y371128D01*
X202621Y371149D01*
X202609Y371173D01*
X202489Y371331D01*
X202371Y371492D01*
X202353Y371511D01*
X202337Y371531D01*
X202191Y371666D01*
X202047Y371804D01*
X202025Y371819D01*
X202006Y371837D01*
X201838Y371943D01*
X201672Y372054D01*
X201648Y372064D01*
X201626Y372078D01*
X201442Y372154D01*
X201259Y372233D01*
X201233Y372239D01*
X201209Y372249D01*
X201014Y372291D01*
X200821Y372337D01*
X200795Y372339D01*
X200769Y372344D01*
X200457Y372363D01*
X195129Y372363D01*
X194966Y372349D01*
X194801Y372342D01*
X194742Y372329D01*
X194681Y372323D01*
X194522Y372280D01*
X194362Y372244D01*
X194305Y372221D01*
X194246Y372205D01*
X194098Y372134D01*
X193946Y372071D01*
X193895Y372038D01*
X193840Y372011D01*
X193706Y371916D01*
X193568Y371826D01*
X193510Y371775D01*
X193474Y371749D01*
X193431Y371706D01*
X193334Y371620D01*
X183847Y362133D01*
X166710Y344996D01*
X166657Y344933D01*
X166598Y344876D01*
X166513Y344761D01*
X166421Y344651D01*
X166380Y344579D01*
X166332Y344513D01*
X166269Y344384D01*
X166198Y344260D01*
X166170Y344182D01*
X166134Y344108D01*
X166095Y343970D01*
X166047Y343835D01*
X166034Y343754D01*
X166011Y343675D01*
X165997Y343533D01*
X165974Y343391D01*
X165975Y343309D01*
X165967Y343227D01*
X165978Y343084D01*
X165980Y342941D01*
X165995Y342860D01*
X166002Y342778D01*
X166004Y342769D01*
X166038Y342640D01*
X166065Y342499D01*
X166095Y342422D01*
X166116Y342342D01*
X166176Y342213D01*
X166228Y342079D01*
X166270Y342008D01*
X166305Y341934D01*
X166387Y341817D01*
X166462Y341694D01*
X166516Y341633D01*
X166563Y341565D01*
X166665Y341464D01*
X166760Y341357D01*
X166824Y341306D01*
X166883Y341248D01*
X166900Y341236D01*
X167001Y341166D01*
X167006Y341162D01*
X167113Y341077D01*
X167186Y341038D01*
X167253Y340992D01*
X167475Y340884D01*
X167510Y340865D01*
X167520Y340861D01*
X167534Y340855D01*
X168289Y340542D01*
X172648Y336183D01*
X175007Y330488D01*
X175007Y324324D01*
X172748Y318871D01*
X172648Y318629D01*
X168289Y314270D01*
X162594Y311911D01*
X156430Y311911D01*
X150735Y314270D01*
X146980Y318026D01*
X146853Y318131D01*
X146743Y318232D01*
X146732Y318243D01*
X146681Y318275D01*
X146634Y318314D01*
X146621Y318322D01*
X146492Y318396D01*
X146353Y318484D01*
X146296Y318508D01*
X146243Y318538D01*
X146088Y318593D01*
X145936Y318655D01*
X145877Y318668D01*
X145819Y318689D01*
X145657Y318715D01*
X145496Y318750D01*
X145419Y318755D01*
X145375Y318762D01*
X145354Y318762D01*
X145314Y318761D01*
X145184Y318769D01*
X141535Y318769D01*
X141372Y318755D01*
X141207Y318748D01*
X141148Y318735D01*
X141087Y318729D01*
X140928Y318686D01*
X140768Y318650D01*
X140711Y318627D01*
X140652Y318611D01*
X140504Y318540D01*
X140352Y318477D01*
X140301Y318444D01*
X140246Y318417D01*
X140112Y318322D01*
X139974Y318232D01*
X139916Y318181D01*
X139880Y318155D01*
X139837Y318112D01*
X139740Y318026D01*
X123680Y301966D01*
X123575Y301840D01*
X123463Y301719D01*
X123431Y301668D01*
X123392Y301621D01*
X123310Y301478D01*
X123222Y301339D01*
X123198Y301283D01*
X123168Y301230D01*
X123113Y301075D01*
X123051Y300923D01*
X123038Y300863D01*
X123017Y300806D01*
X122991Y300643D01*
X122956Y300483D01*
X122951Y300406D01*
X122944Y300361D01*
X122945Y300300D01*
X122937Y300171D01*
X122937Y245929D01*
X122951Y245766D01*
X122958Y245601D01*
X122971Y245542D01*
X122977Y245481D01*
X123020Y245322D01*
X123056Y245162D01*
X123079Y245105D01*
X123095Y245046D01*
X123166Y244898D01*
X123229Y244746D01*
X123262Y244695D01*
X123289Y244640D01*
X123384Y244506D01*
X123474Y244368D01*
X123525Y244310D01*
X123551Y244274D01*
X123594Y244231D01*
X123680Y244134D01*
X132628Y235186D01*
X132754Y235081D01*
X132875Y234969D01*
X132926Y234937D01*
X132973Y234898D01*
X133116Y234816D01*
X133255Y234728D01*
X133311Y234704D01*
X133364Y234674D01*
X133519Y234619D01*
X133671Y234557D01*
X133731Y234544D01*
X133788Y234523D01*
X133951Y234497D01*
X134111Y234462D01*
X134188Y234457D01*
X134233Y234450D01*
X134294Y234451D01*
X134423Y234443D01*
X145184Y234443D01*
X145348Y234457D01*
X145512Y234464D01*
X145572Y234477D01*
X145633Y234483D01*
X145791Y234526D01*
X145952Y234562D01*
X146008Y234585D01*
X146067Y234601D01*
X146215Y234672D01*
X146367Y234735D01*
X146419Y234768D01*
X146474Y234795D01*
X146607Y234890D01*
X146745Y234980D01*
X146803Y235031D01*
X146840Y235057D01*
X146882Y235100D01*
X146980Y235186D01*
X150735Y238942D01*
X151486Y239253D01*
X154444Y240478D01*
X156430Y241301D01*
X162594Y241301D01*
X164580Y240478D01*
X168289Y238942D01*
X172648Y234583D01*
X175007Y228888D01*
X175007Y222724D01*
X172648Y217029D01*
X168289Y212670D01*
X162594Y210311D01*
X156430Y210311D01*
X151864Y212202D01*
X150735Y212670D01*
X146980Y216426D01*
X146854Y216531D01*
X146733Y216643D01*
X146681Y216675D01*
X146662Y216691D01*
X146634Y216714D01*
X146552Y216761D01*
X146492Y216796D01*
X146353Y216884D01*
X146296Y216908D01*
X146243Y216938D01*
X146088Y216993D01*
X145936Y217055D01*
X145923Y217058D01*
X145877Y217068D01*
X145839Y217081D01*
X145819Y217089D01*
X145787Y217094D01*
X145657Y217115D01*
X145566Y217135D01*
X145496Y217150D01*
X145487Y217151D01*
X145419Y217155D01*
X145375Y217162D01*
X145314Y217161D01*
X145184Y217169D01*
X128076Y217169D01*
X124902Y218484D01*
X114318Y229068D01*
X114218Y229152D01*
X114125Y229242D01*
X114045Y229296D01*
X113972Y229357D01*
X113859Y229422D01*
X113752Y229495D01*
X113664Y229533D01*
X113581Y229581D01*
X113459Y229624D01*
X113340Y229677D01*
X113247Y229699D01*
X113157Y229731D01*
X113029Y229753D01*
X112902Y229783D01*
X112807Y229789D01*
X112713Y229805D01*
X112583Y229803D01*
X112453Y229811D01*
X112358Y229800D01*
X112262Y229799D01*
X112135Y229774D01*
X112006Y229759D01*
X111914Y229731D01*
X111820Y229713D01*
X111699Y229666D01*
X111575Y229629D01*
X111490Y229585D01*
X111400Y229551D01*
X111289Y229483D01*
X111173Y229424D01*
X111097Y229367D01*
X111016Y229317D01*
X110918Y229231D01*
X110815Y229152D01*
X110750Y229082D01*
X110678Y229019D01*
X110598Y228917D01*
X110509Y228821D01*
X110458Y228741D01*
X110399Y228666D01*
X110338Y228551D01*
X110268Y228441D01*
X110231Y228353D01*
X110186Y228269D01*
X110146Y228145D01*
X110097Y228025D01*
X110077Y227931D01*
X110047Y227841D01*
X110029Y227712D01*
X110002Y227585D01*
X109994Y227455D01*
X109986Y227395D01*
X109987Y227350D01*
X109983Y227273D01*
X109983Y222724D01*
X107624Y217029D01*
X103265Y212670D01*
X97570Y210311D01*
X91406Y210311D01*
X85711Y212670D01*
X81352Y217029D01*
X78993Y222724D01*
X78993Y228888D01*
X81352Y234583D01*
X85711Y238942D01*
X91406Y241301D01*
X97570Y241301D01*
X102152Y239403D01*
X102231Y239378D01*
X102306Y239345D01*
X102445Y239311D01*
X102582Y239268D01*
X102664Y239258D01*
X102744Y239238D01*
X102886Y239229D01*
X103029Y239211D01*
X103111Y239215D01*
X103193Y239210D01*
X103335Y239227D01*
X103478Y239234D01*
X103558Y239253D01*
X103640Y239262D01*
X103778Y239304D01*
X103917Y239336D01*
X103992Y239369D01*
X104071Y239393D01*
X104199Y239458D01*
X104330Y239514D01*
X104399Y239560D01*
X104473Y239597D01*
X104586Y239683D01*
X104706Y239763D01*
X104766Y239819D01*
X104831Y239869D01*
X104928Y239974D01*
X105032Y240073D01*
X105081Y240140D01*
X105137Y240200D01*
X105214Y240321D01*
X105298Y240437D01*
X105334Y240510D01*
X105378Y240580D01*
X105433Y240712D01*
X105496Y240841D01*
X105518Y240920D01*
X105549Y240997D01*
X105579Y241137D01*
X105619Y241274D01*
X105627Y241356D01*
X105644Y241437D01*
X105659Y241683D01*
X105663Y241722D01*
X105662Y241733D01*
X105663Y241749D01*
X105663Y266251D01*
X105656Y266333D01*
X105658Y266416D01*
X105636Y266557D01*
X105623Y266700D01*
X105602Y266779D01*
X105589Y266861D01*
X105543Y266996D01*
X105505Y267134D01*
X105469Y267209D01*
X105443Y267286D01*
X105373Y267412D01*
X105311Y267541D01*
X105264Y267608D01*
X105223Y267680D01*
X105133Y267791D01*
X105049Y267907D01*
X104990Y267964D01*
X104938Y268028D01*
X104829Y268121D01*
X104727Y268221D01*
X104658Y268267D01*
X104596Y268321D01*
X104472Y268393D01*
X104354Y268473D01*
X104278Y268506D01*
X104207Y268548D01*
X104073Y268597D01*
X103942Y268655D01*
X103862Y268675D01*
X103784Y268703D01*
X103643Y268728D01*
X103504Y268762D01*
X103422Y268767D01*
X103341Y268781D01*
X103198Y268781D01*
X103055Y268790D01*
X102973Y268780D01*
X102891Y268780D01*
X102750Y268754D01*
X102608Y268738D01*
X102529Y268714D01*
X102448Y268699D01*
X102215Y268619D01*
X102177Y268607D01*
X102167Y268602D01*
X102152Y268597D01*
X97570Y266699D01*
X91406Y266699D01*
X85711Y269058D01*
X81352Y273417D01*
X78993Y279112D01*
X78993Y285276D01*
X81352Y290971D01*
X85711Y295330D01*
X91406Y297689D01*
X97570Y297689D01*
X102152Y295791D01*
X102231Y295766D01*
X102306Y295733D01*
X102445Y295699D01*
X102582Y295656D01*
X102664Y295646D01*
X102744Y295626D01*
X102886Y295617D01*
X103029Y295599D01*
X103111Y295603D01*
X103193Y295598D01*
X103335Y295615D01*
X103478Y295622D01*
X103558Y295641D01*
X103640Y295650D01*
X103778Y295692D01*
X103917Y295724D01*
X103992Y295757D01*
X104071Y295781D01*
X104199Y295846D01*
X104330Y295902D01*
X104399Y295948D01*
X104473Y295985D01*
X104586Y296071D01*
X104706Y296151D01*
X104766Y296207D01*
X104831Y296257D01*
X104928Y296362D01*
X105032Y296461D01*
X105081Y296528D01*
X105137Y296588D01*
X105214Y296709D01*
X105298Y296825D01*
X105334Y296898D01*
X105378Y296968D01*
X105433Y297100D01*
X105496Y297229D01*
X105518Y297308D01*
X105549Y297385D01*
X105579Y297525D01*
X105619Y297662D01*
X105627Y297744D01*
X105644Y297825D01*
X105659Y298071D01*
X105663Y298110D01*
X105662Y298121D01*
X105663Y298137D01*
X105663Y306518D01*
X106978Y309692D01*
X109765Y312479D01*
X129227Y331941D01*
X132371Y335085D01*
X157705Y360419D01*
X182821Y385535D01*
X185890Y388604D01*
X185974Y388704D01*
X186064Y388797D01*
X186118Y388877D01*
X186179Y388950D01*
X186244Y389063D01*
X186317Y389170D01*
X186355Y389258D01*
X186403Y389341D01*
X186446Y389463D01*
X186499Y389582D01*
X186521Y389675D01*
X186553Y389765D01*
X186575Y389893D01*
X186605Y390020D01*
X186611Y390115D01*
X186627Y390209D01*
X186625Y390339D01*
X186633Y390469D01*
X186622Y390564D01*
X186621Y390660D01*
X186596Y390787D01*
X186581Y390916D01*
X186553Y391008D01*
X186535Y391102D01*
X186488Y391223D01*
X186451Y391347D01*
X186407Y391433D01*
X186373Y391522D01*
X186305Y391633D01*
X186246Y391749D01*
X186189Y391825D01*
X186139Y391906D01*
X186053Y392004D01*
X185974Y392107D01*
X185904Y392172D01*
X185841Y392244D01*
X185739Y392324D01*
X185643Y392413D01*
X185563Y392464D01*
X185488Y392523D01*
X185373Y392584D01*
X185263Y392654D01*
X185175Y392691D01*
X185091Y392736D01*
X184967Y392776D01*
X184847Y392825D01*
X184753Y392845D01*
X184663Y392875D01*
X184534Y392893D01*
X184407Y392920D01*
X184277Y392928D01*
X184217Y392936D01*
X184172Y392935D01*
X184095Y392939D01*
X76200Y392939D01*
X76166Y392936D01*
X76131Y392938D01*
X75942Y392916D01*
X75752Y392899D01*
X75718Y392890D01*
X75684Y392886D01*
X75501Y392831D01*
X75317Y392781D01*
X75286Y392766D01*
X75253Y392756D01*
X75082Y392669D01*
X74911Y392587D01*
X74882Y392567D01*
X74851Y392552D01*
X74699Y392436D01*
X74544Y392325D01*
X74520Y392300D01*
X74493Y392280D01*
X74364Y392140D01*
X74230Y392003D01*
X74211Y391974D01*
X74188Y391948D01*
X74085Y391787D01*
X73978Y391630D01*
X73964Y391598D01*
X73946Y391569D01*
X73873Y391392D01*
X73796Y391218D01*
X73788Y391184D01*
X73775Y391152D01*
X73735Y390965D01*
X73689Y390780D01*
X73687Y390746D01*
X73680Y390712D01*
X73661Y390400D01*
X73661Y114300D01*
X73664Y114266D01*
X73662Y114231D01*
X73684Y114042D01*
X73701Y113852D01*
X73710Y113818D01*
X73714Y113784D01*
X73769Y113601D01*
X73819Y113417D01*
X73834Y113386D01*
X73844Y113353D01*
X73931Y113182D01*
X74013Y113011D01*
X74033Y112982D01*
X74048Y112951D01*
X74164Y112799D01*
X74275Y112644D01*
X74300Y112620D01*
X74320Y112593D01*
X74461Y112464D01*
X74597Y112330D01*
X74626Y112311D01*
X74652Y112288D01*
X74813Y112185D01*
X74970Y112078D01*
X75002Y112064D01*
X75031Y112046D01*
X75208Y111973D01*
X75382Y111896D01*
X75416Y111888D01*
X75448Y111875D01*
X75635Y111835D01*
X75820Y111789D01*
X75854Y111787D01*
X75888Y111780D01*
X76200Y111761D01*
X386735Y111761D01*
X386812Y111768D01*
X386891Y111766D01*
X387036Y111788D01*
X387183Y111801D01*
X387259Y111821D01*
X387336Y111833D01*
X387475Y111880D01*
X387618Y111919D01*
X387688Y111953D01*
X387762Y111978D01*
X387891Y112049D01*
X388024Y112113D01*
X388088Y112158D01*
X388156Y112196D01*
X388270Y112289D01*
X388390Y112375D01*
X388445Y112431D01*
X388505Y112480D01*
X388601Y112592D01*
X388704Y112697D01*
X388748Y112762D01*
X388799Y112821D01*
X388874Y112948D01*
X388956Y113070D01*
X388988Y113142D01*
X389028Y113209D01*
X389079Y113347D01*
X389139Y113482D01*
X389157Y113558D01*
X389184Y113631D01*
X389210Y113777D01*
X389245Y113920D01*
X389250Y113998D01*
X389264Y114075D01*
X389264Y114222D01*
X389273Y114369D01*
X389264Y114447D01*
X389264Y114525D01*
X389238Y114670D01*
X389221Y114816D01*
X389198Y114891D01*
X389184Y114968D01*
X389133Y115106D01*
X389091Y115247D01*
X389055Y115317D01*
X389028Y115390D01*
X388953Y115517D01*
X388886Y115649D01*
X388839Y115711D01*
X388799Y115778D01*
X388703Y115890D01*
X388614Y116007D01*
X388557Y116060D01*
X388506Y116120D01*
X388391Y116213D01*
X388283Y116313D01*
X388217Y116354D01*
X388157Y116404D01*
X387929Y116538D01*
X387903Y116554D01*
X387897Y116557D01*
X387887Y116563D01*
X387443Y116789D01*
X385922Y117894D01*
X384594Y119222D01*
X383489Y120743D01*
X382636Y122417D01*
X382055Y124204D01*
X382015Y124461D01*
X393700Y124461D01*
X405385Y124461D01*
X405345Y124204D01*
X404764Y122417D01*
X403911Y120743D01*
X402806Y119222D01*
X401478Y117894D01*
X399957Y116789D01*
X399513Y116563D01*
X399446Y116521D01*
X399376Y116487D01*
X399256Y116402D01*
X399131Y116323D01*
X399073Y116271D01*
X399010Y116225D01*
X398907Y116120D01*
X398798Y116021D01*
X398750Y115959D01*
X398696Y115903D01*
X398613Y115780D01*
X398523Y115664D01*
X398487Y115594D01*
X398444Y115530D01*
X398384Y115395D01*
X398316Y115264D01*
X398293Y115189D01*
X398261Y115118D01*
X398226Y114975D01*
X398183Y114834D01*
X398173Y114756D01*
X398155Y114680D01*
X398146Y114533D01*
X398128Y114387D01*
X398132Y114309D01*
X398127Y114231D01*
X398144Y114084D01*
X398152Y113937D01*
X398170Y113861D01*
X398179Y113784D01*
X398222Y113642D01*
X398256Y113499D01*
X398287Y113428D01*
X398309Y113353D01*
X398376Y113221D01*
X398435Y113086D01*
X398478Y113021D01*
X398514Y112951D01*
X398603Y112834D01*
X398684Y112711D01*
X398739Y112655D01*
X398786Y112593D01*
X398894Y112493D01*
X398996Y112386D01*
X399059Y112340D01*
X399117Y112288D01*
X399241Y112208D01*
X399360Y112122D01*
X399431Y112088D01*
X399497Y112046D01*
X399633Y111990D01*
X399766Y111925D01*
X399841Y111904D01*
X399913Y111875D01*
X400058Y111844D01*
X400199Y111804D01*
X400277Y111796D01*
X400353Y111780D01*
X400617Y111764D01*
X400647Y111761D01*
X400655Y111761D01*
X400665Y111761D01*
X482400Y111761D01*
X482435Y111764D01*
X482469Y111762D01*
G37*
%LPC*%
G36*
X190542Y143125D02*
X190542Y143125D01*
X190421Y143237D01*
X190369Y143269D01*
X190332Y143301D01*
X190322Y143308D01*
X190309Y143316D01*
X190180Y143390D01*
X190041Y143478D01*
X189984Y143502D01*
X189931Y143532D01*
X189776Y143587D01*
X189624Y143649D01*
X189611Y143652D01*
X189565Y143662D01*
X189527Y143675D01*
X189507Y143683D01*
X189475Y143688D01*
X189345Y143709D01*
X189255Y143729D01*
X189184Y143744D01*
X189175Y143745D01*
X189107Y143749D01*
X189063Y143756D01*
X189002Y143755D01*
X188872Y143763D01*
X176082Y143763D01*
X172908Y145078D01*
X152190Y165796D01*
X152063Y166103D01*
X151987Y166249D01*
X151917Y166398D01*
X151883Y166448D01*
X151854Y166502D01*
X151753Y166632D01*
X151659Y166767D01*
X151616Y166810D01*
X151579Y166858D01*
X151456Y166968D01*
X151340Y167084D01*
X151290Y167119D01*
X151244Y167160D01*
X151105Y167247D01*
X150969Y167340D01*
X150900Y167374D01*
X150862Y167398D01*
X150805Y167420D01*
X150742Y167451D01*
X146376Y171817D01*
X144017Y177512D01*
X144017Y183676D01*
X146376Y189371D01*
X150735Y193730D01*
X156430Y196089D01*
X162594Y196089D01*
X168289Y193730D01*
X172648Y189371D01*
X175007Y183676D01*
X175007Y177512D01*
X172696Y171934D01*
X172633Y171731D01*
X172568Y171531D01*
X172566Y171518D01*
X172562Y171505D01*
X172535Y171294D01*
X172506Y171085D01*
X172507Y171071D01*
X172505Y171058D01*
X172516Y170848D01*
X172524Y170635D01*
X172527Y170622D01*
X172528Y170609D01*
X172576Y170403D01*
X172622Y170195D01*
X172627Y170183D01*
X172630Y170170D01*
X172714Y169974D01*
X172796Y169780D01*
X172803Y169769D01*
X172808Y169756D01*
X172925Y169579D01*
X173040Y169401D01*
X173050Y169390D01*
X173056Y169381D01*
X173083Y169352D01*
X173247Y169167D01*
X180634Y161780D01*
X180760Y161675D01*
X180881Y161563D01*
X180932Y161531D01*
X180979Y161492D01*
X181122Y161410D01*
X181261Y161322D01*
X181317Y161298D01*
X181370Y161268D01*
X181525Y161213D01*
X181677Y161151D01*
X181737Y161138D01*
X181794Y161117D01*
X181957Y161091D01*
X182117Y161056D01*
X182194Y161051D01*
X182239Y161044D01*
X182300Y161045D01*
X182429Y161037D01*
X188872Y161037D01*
X189036Y161051D01*
X189200Y161058D01*
X189260Y161071D01*
X189321Y161077D01*
X189479Y161120D01*
X189640Y161156D01*
X189696Y161179D01*
X189755Y161195D01*
X189903Y161266D01*
X190055Y161329D01*
X190107Y161362D01*
X190162Y161389D01*
X190295Y161484D01*
X190433Y161574D01*
X190491Y161625D01*
X190528Y161651D01*
X190570Y161694D01*
X190668Y161780D01*
X194423Y165536D01*
X200118Y167895D01*
X206282Y167895D01*
X211977Y165536D01*
X215732Y161780D01*
X215858Y161675D01*
X215979Y161563D01*
X216031Y161531D01*
X216078Y161492D01*
X216220Y161410D01*
X216359Y161322D01*
X216416Y161298D01*
X216469Y161268D01*
X216624Y161213D01*
X216776Y161151D01*
X216791Y161147D01*
X216835Y161138D01*
X216886Y161120D01*
X216893Y161117D01*
X216925Y161112D01*
X217055Y161091D01*
X217146Y161071D01*
X217216Y161056D01*
X217225Y161055D01*
X217293Y161051D01*
X217337Y161044D01*
X217398Y161045D01*
X217528Y161037D01*
X290472Y161037D01*
X290636Y161051D01*
X290800Y161058D01*
X290860Y161071D01*
X290921Y161077D01*
X291079Y161120D01*
X291240Y161156D01*
X291296Y161179D01*
X291355Y161195D01*
X291503Y161266D01*
X291655Y161329D01*
X291707Y161362D01*
X291762Y161389D01*
X291895Y161484D01*
X292033Y161574D01*
X292091Y161625D01*
X292128Y161651D01*
X292170Y161694D01*
X292268Y161780D01*
X296023Y165536D01*
X301107Y167642D01*
X301718Y167895D01*
X307882Y167895D01*
X308565Y167612D01*
X308566Y167612D01*
X313577Y165536D01*
X317936Y161177D01*
X320295Y155482D01*
X320295Y149318D01*
X317936Y143623D01*
X313577Y139264D01*
X313460Y139215D01*
X307882Y136905D01*
X301718Y136905D01*
X296141Y139215D01*
X296023Y139264D01*
X292268Y143020D01*
X292142Y143125D01*
X292021Y143237D01*
X291969Y143269D01*
X291932Y143301D01*
X291922Y143308D01*
X291909Y143316D01*
X291780Y143390D01*
X291641Y143478D01*
X291584Y143502D01*
X291531Y143532D01*
X291376Y143587D01*
X291224Y143649D01*
X291211Y143652D01*
X291165Y143662D01*
X291127Y143675D01*
X291107Y143683D01*
X291075Y143688D01*
X290945Y143709D01*
X290855Y143729D01*
X290784Y143744D01*
X290775Y143745D01*
X290707Y143749D01*
X290663Y143756D01*
X290602Y143755D01*
X290472Y143763D01*
X217528Y143763D01*
X217364Y143749D01*
X217200Y143742D01*
X217140Y143729D01*
X217079Y143723D01*
X216921Y143680D01*
X216760Y143644D01*
X216704Y143621D01*
X216645Y143605D01*
X216497Y143534D01*
X216472Y143524D01*
X216345Y143471D01*
X216293Y143438D01*
X216238Y143411D01*
X216105Y143316D01*
X215967Y143226D01*
X215909Y143175D01*
X215872Y143149D01*
X215830Y143106D01*
X215732Y143020D01*
X211977Y139264D01*
X211860Y139215D01*
X206282Y136905D01*
X200118Y136905D01*
X194541Y139215D01*
X194423Y139264D01*
X190668Y143020D01*
X190542Y143125D01*
G37*
%LPD*%
G36*
X290636Y237251D02*
X290636Y237251D01*
X290800Y237258D01*
X290860Y237271D01*
X290921Y237277D01*
X291079Y237320D01*
X291240Y237356D01*
X291296Y237379D01*
X291355Y237395D01*
X291503Y237466D01*
X291655Y237529D01*
X291707Y237562D01*
X291762Y237589D01*
X291895Y237684D01*
X292033Y237774D01*
X292091Y237825D01*
X292128Y237851D01*
X292170Y237894D01*
X292268Y237980D01*
X295420Y241132D01*
X295525Y241259D01*
X295637Y241380D01*
X295669Y241431D01*
X295708Y241478D01*
X295790Y241620D01*
X295878Y241759D01*
X295902Y241816D01*
X295932Y241869D01*
X295987Y242024D01*
X296049Y242176D01*
X296062Y242235D01*
X296083Y242293D01*
X296109Y242455D01*
X296144Y242616D01*
X296149Y242693D01*
X296156Y242737D01*
X296155Y242798D01*
X296163Y242928D01*
X296163Y243018D01*
X297478Y246192D01*
X309821Y258535D01*
X311333Y260047D01*
X311446Y260183D01*
X311566Y260315D01*
X311591Y260356D01*
X311622Y260392D01*
X311710Y260546D01*
X311803Y260697D01*
X311821Y260742D01*
X311845Y260783D01*
X311904Y260950D01*
X311970Y261115D01*
X311980Y261162D01*
X311996Y261207D01*
X312025Y261383D01*
X312060Y261557D01*
X312061Y261605D01*
X312069Y261652D01*
X312067Y261829D01*
X312071Y262007D01*
X312064Y262054D01*
X312063Y262102D01*
X312029Y262277D01*
X312002Y262452D01*
X311987Y262497D01*
X311978Y262544D01*
X311913Y262710D01*
X311856Y262878D01*
X311832Y262919D01*
X311815Y262964D01*
X311723Y263115D01*
X311636Y263271D01*
X311606Y263308D01*
X311581Y263349D01*
X311464Y263482D01*
X311351Y263619D01*
X311315Y263650D01*
X311283Y263686D01*
X311144Y263796D01*
X311009Y263912D01*
X310968Y263936D01*
X310930Y263965D01*
X310773Y264049D01*
X310620Y264139D01*
X310575Y264155D01*
X310533Y264178D01*
X310364Y264233D01*
X310198Y264294D01*
X310150Y264303D01*
X310105Y264317D01*
X309929Y264341D01*
X309754Y264372D01*
X309706Y264372D01*
X309659Y264379D01*
X309482Y264371D01*
X309304Y264371D01*
X309257Y264362D01*
X309209Y264360D01*
X309035Y264322D01*
X308861Y264290D01*
X308805Y264271D01*
X308769Y264263D01*
X308711Y264238D01*
X308565Y264188D01*
X307882Y263905D01*
X301718Y263905D01*
X296023Y266264D01*
X292268Y270020D01*
X292141Y270125D01*
X292020Y270237D01*
X291969Y270269D01*
X291922Y270308D01*
X291780Y270390D01*
X291641Y270478D01*
X291584Y270502D01*
X291531Y270532D01*
X291376Y270587D01*
X291224Y270649D01*
X291165Y270662D01*
X291107Y270683D01*
X290945Y270709D01*
X290784Y270744D01*
X290707Y270749D01*
X290663Y270756D01*
X290602Y270755D01*
X290472Y270763D01*
X279411Y270763D01*
X279248Y270749D01*
X279083Y270742D01*
X279024Y270729D01*
X278963Y270723D01*
X278804Y270680D01*
X278644Y270644D01*
X278587Y270621D01*
X278529Y270605D01*
X278380Y270534D01*
X278228Y270471D01*
X278177Y270438D01*
X278122Y270411D01*
X277988Y270316D01*
X277850Y270226D01*
X277792Y270175D01*
X277756Y270149D01*
X277713Y270106D01*
X277616Y270020D01*
X274830Y267233D01*
X269555Y265048D01*
X263845Y265048D01*
X258570Y267233D01*
X255796Y270008D01*
X255769Y270030D01*
X255746Y270056D01*
X255596Y270175D01*
X255450Y270297D01*
X255420Y270314D01*
X255393Y270336D01*
X255224Y270426D01*
X255059Y270520D01*
X255027Y270532D01*
X254996Y270548D01*
X254815Y270607D01*
X254635Y270671D01*
X254601Y270677D01*
X254568Y270687D01*
X254379Y270713D01*
X254191Y270745D01*
X254156Y270744D01*
X254122Y270749D01*
X253932Y270741D01*
X253741Y270739D01*
X253706Y270732D01*
X253672Y270731D01*
X253486Y270689D01*
X253298Y270653D01*
X253266Y270641D01*
X253232Y270633D01*
X253056Y270559D01*
X252878Y270491D01*
X252849Y270473D01*
X252817Y270459D01*
X252657Y270356D01*
X252494Y270257D01*
X252468Y270234D01*
X252439Y270215D01*
X252205Y270008D01*
X250680Y268484D01*
X250575Y268358D01*
X250463Y268237D01*
X250431Y268185D01*
X250392Y268139D01*
X250310Y267996D01*
X250222Y267857D01*
X250198Y267801D01*
X250168Y267748D01*
X250113Y267593D01*
X250051Y267441D01*
X250038Y267381D01*
X250017Y267324D01*
X249991Y267161D01*
X249956Y267000D01*
X249951Y266923D01*
X249944Y266879D01*
X249945Y266819D01*
X249937Y266689D01*
X249937Y241311D01*
X249951Y241148D01*
X249958Y240983D01*
X249971Y240924D01*
X249977Y240863D01*
X250020Y240704D01*
X250056Y240544D01*
X250079Y240487D01*
X250095Y240429D01*
X250166Y240280D01*
X250229Y240128D01*
X250262Y240077D01*
X250289Y240022D01*
X250384Y239889D01*
X250474Y239750D01*
X250525Y239692D01*
X250551Y239656D01*
X250594Y239613D01*
X250643Y239558D01*
X250645Y239555D01*
X250648Y239553D01*
X250680Y239516D01*
X252205Y237992D01*
X252231Y237970D01*
X252254Y237944D01*
X252404Y237825D01*
X252550Y237703D01*
X252580Y237686D01*
X252607Y237664D01*
X252775Y237575D01*
X252941Y237480D01*
X252974Y237468D01*
X253004Y237452D01*
X253185Y237393D01*
X253365Y237329D01*
X253399Y237323D01*
X253432Y237313D01*
X253621Y237287D01*
X253809Y237255D01*
X253844Y237256D01*
X253878Y237251D01*
X254069Y237259D01*
X254260Y237262D01*
X254293Y237268D01*
X254328Y237269D01*
X254515Y237311D01*
X254702Y237347D01*
X254734Y237360D01*
X254768Y237367D01*
X254944Y237441D01*
X255122Y237509D01*
X255151Y237527D01*
X255183Y237541D01*
X255343Y237644D01*
X255506Y237743D01*
X255532Y237766D01*
X255561Y237785D01*
X255796Y237992D01*
X258570Y240767D01*
X263845Y242952D01*
X269555Y242952D01*
X274830Y240767D01*
X277616Y237980D01*
X277742Y237875D01*
X277863Y237763D01*
X277915Y237731D01*
X277961Y237692D01*
X278104Y237610D01*
X278243Y237522D01*
X278299Y237498D01*
X278352Y237468D01*
X278507Y237413D01*
X278659Y237351D01*
X278719Y237338D01*
X278777Y237317D01*
X278939Y237291D01*
X279100Y237256D01*
X279177Y237251D01*
X279221Y237244D01*
X279281Y237245D01*
X279411Y237237D01*
X290472Y237237D01*
X290636Y237251D01*
G37*
G36*
X430336Y262651D02*
X430336Y262651D01*
X430500Y262658D01*
X430560Y262671D01*
X430621Y262677D01*
X430779Y262720D01*
X430940Y262756D01*
X430996Y262779D01*
X431055Y262795D01*
X431203Y262866D01*
X431355Y262929D01*
X431407Y262962D01*
X431462Y262989D01*
X431595Y263084D01*
X431733Y263174D01*
X431791Y263225D01*
X431828Y263251D01*
X431870Y263294D01*
X431968Y263380D01*
X433492Y264904D01*
X433514Y264931D01*
X433540Y264954D01*
X433604Y265035D01*
X433621Y265052D01*
X433639Y265079D01*
X433658Y265103D01*
X433781Y265250D01*
X433798Y265280D01*
X433819Y265307D01*
X433909Y265476D01*
X434004Y265641D01*
X434015Y265673D01*
X434032Y265704D01*
X434091Y265886D01*
X434155Y266065D01*
X434160Y266099D01*
X434171Y266132D01*
X434197Y266320D01*
X434228Y266509D01*
X434228Y266544D01*
X434232Y266578D01*
X434225Y266768D01*
X434222Y266960D01*
X434215Y266994D01*
X434214Y267028D01*
X434173Y267214D01*
X434136Y267402D01*
X434124Y267434D01*
X434117Y267468D01*
X434043Y267644D01*
X433974Y267822D01*
X433956Y267851D01*
X433943Y267883D01*
X433839Y268043D01*
X433740Y268206D01*
X433717Y268232D01*
X433699Y268261D01*
X433492Y268495D01*
X431968Y270020D01*
X431842Y270125D01*
X431721Y270237D01*
X431669Y270269D01*
X431622Y270308D01*
X431480Y270390D01*
X431341Y270478D01*
X431284Y270502D01*
X431231Y270532D01*
X431076Y270587D01*
X430924Y270649D01*
X430865Y270662D01*
X430807Y270683D01*
X430645Y270709D01*
X430484Y270744D01*
X430407Y270749D01*
X430363Y270756D01*
X430302Y270755D01*
X430172Y270763D01*
X319128Y270763D01*
X318964Y270749D01*
X318800Y270742D01*
X318740Y270729D01*
X318679Y270723D01*
X318521Y270680D01*
X318360Y270644D01*
X318304Y270621D01*
X318245Y270605D01*
X318097Y270534D01*
X317945Y270471D01*
X317893Y270438D01*
X317838Y270411D01*
X317705Y270316D01*
X317567Y270226D01*
X317509Y270175D01*
X317472Y270149D01*
X317430Y270106D01*
X317332Y270020D01*
X314284Y266972D01*
X314201Y266872D01*
X314110Y266779D01*
X314057Y266699D01*
X313995Y266626D01*
X313931Y266513D01*
X313858Y266406D01*
X313819Y266318D01*
X313772Y266235D01*
X313729Y266113D01*
X313676Y265994D01*
X313653Y265901D01*
X313621Y265811D01*
X313600Y265683D01*
X313569Y265556D01*
X313563Y265461D01*
X313548Y265367D01*
X313550Y265237D01*
X313542Y265107D01*
X313553Y265012D01*
X313554Y264916D01*
X313579Y264789D01*
X313594Y264660D01*
X313621Y264568D01*
X313639Y264474D01*
X313686Y264353D01*
X313724Y264229D01*
X313767Y264143D01*
X313802Y264054D01*
X313869Y263943D01*
X313928Y263827D01*
X313986Y263751D01*
X314036Y263670D01*
X314122Y263572D01*
X314200Y263469D01*
X314271Y263404D01*
X314334Y263332D01*
X314436Y263252D01*
X314531Y263163D01*
X314612Y263112D01*
X314687Y263053D01*
X314802Y262992D01*
X314911Y262922D01*
X315000Y262885D01*
X315084Y262840D01*
X315208Y262800D01*
X315328Y262751D01*
X315421Y262731D01*
X315512Y262701D01*
X315641Y262683D01*
X315768Y262656D01*
X315898Y262648D01*
X315958Y262640D01*
X316003Y262641D01*
X316080Y262637D01*
X430172Y262637D01*
X430336Y262651D01*
G37*
%LPC*%
G36*
X91406Y311911D02*
X91406Y311911D01*
X85711Y314270D01*
X81352Y318629D01*
X78993Y324324D01*
X78993Y330488D01*
X81352Y336183D01*
X85711Y340542D01*
X91406Y342901D01*
X97570Y342901D01*
X103265Y340542D01*
X107624Y336183D01*
X109983Y330488D01*
X109983Y324324D01*
X107624Y318629D01*
X103265Y314270D01*
X97570Y311911D01*
X91406Y311911D01*
G37*
%LPD*%
%LPC*%
G36*
X91406Y165099D02*
X91406Y165099D01*
X85711Y167458D01*
X81352Y171817D01*
X78993Y177512D01*
X78993Y183676D01*
X81352Y189371D01*
X85711Y193730D01*
X91406Y196089D01*
X97570Y196089D01*
X103265Y193730D01*
X107624Y189371D01*
X109983Y183676D01*
X109983Y177512D01*
X107624Y171817D01*
X103265Y167458D01*
X97570Y165099D01*
X91406Y165099D01*
G37*
%LPD*%
G36*
X340640Y215658D02*
X340640Y215658D01*
X340770Y215660D01*
X340863Y215678D01*
X340959Y215687D01*
X341084Y215721D01*
X341212Y215746D01*
X341301Y215780D01*
X341393Y215805D01*
X341510Y215861D01*
X341632Y215908D01*
X341714Y215958D01*
X341800Y215999D01*
X341905Y216074D01*
X342017Y216142D01*
X342088Y216205D01*
X342166Y216261D01*
X342256Y216354D01*
X342354Y216440D01*
X342413Y216515D01*
X342480Y216583D01*
X342553Y216691D01*
X342633Y216793D01*
X342678Y216877D01*
X342732Y216956D01*
X342785Y217076D01*
X342846Y217190D01*
X342875Y217281D01*
X342914Y217368D01*
X342945Y217495D01*
X342985Y217618D01*
X342998Y217713D01*
X343021Y217806D01*
X343029Y217935D01*
X343046Y218064D01*
X343043Y218160D01*
X343048Y218255D01*
X343033Y218384D01*
X343028Y218514D01*
X343007Y218607D01*
X342996Y218702D01*
X342959Y218827D01*
X342930Y218954D01*
X342894Y219042D01*
X342866Y219133D01*
X342807Y219249D01*
X342757Y219369D01*
X342705Y219450D01*
X342662Y219535D01*
X342583Y219638D01*
X342512Y219748D01*
X342480Y219784D01*
X340105Y225518D01*
X340105Y231682D01*
X342464Y237377D01*
X346116Y241028D01*
X346199Y241128D01*
X346290Y241221D01*
X346343Y241301D01*
X346405Y241374D01*
X346469Y241487D01*
X346542Y241594D01*
X346581Y241682D01*
X346628Y241765D01*
X346671Y241887D01*
X346724Y242006D01*
X346747Y242099D01*
X346779Y242189D01*
X346800Y242317D01*
X346831Y242444D01*
X346837Y242539D01*
X346852Y242633D01*
X346850Y242763D01*
X346858Y242893D01*
X346847Y242988D01*
X346846Y243084D01*
X346821Y243211D01*
X346806Y243340D01*
X346779Y243432D01*
X346761Y243526D01*
X346714Y243647D01*
X346676Y243771D01*
X346633Y243857D01*
X346598Y243946D01*
X346531Y244057D01*
X346472Y244173D01*
X346414Y244249D01*
X346364Y244330D01*
X346278Y244428D01*
X346200Y244531D01*
X346129Y244596D01*
X346066Y244668D01*
X345964Y244748D01*
X345869Y244837D01*
X345788Y244888D01*
X345713Y244947D01*
X345598Y245008D01*
X345489Y245078D01*
X345400Y245115D01*
X345316Y245160D01*
X345192Y245200D01*
X345072Y245249D01*
X344979Y245269D01*
X344888Y245299D01*
X344759Y245317D01*
X344632Y245344D01*
X344502Y245352D01*
X344442Y245360D01*
X344397Y245359D01*
X344320Y245363D01*
X322129Y245363D01*
X321966Y245349D01*
X321801Y245342D01*
X321742Y245329D01*
X321681Y245323D01*
X321522Y245280D01*
X321362Y245244D01*
X321305Y245221D01*
X321246Y245205D01*
X321098Y245134D01*
X320946Y245071D01*
X320895Y245038D01*
X320840Y245011D01*
X320706Y244916D01*
X320568Y244826D01*
X320510Y244775D01*
X320474Y244749D01*
X320431Y244706D01*
X320334Y244620D01*
X317309Y241595D01*
X317287Y241568D01*
X317261Y241545D01*
X317143Y241396D01*
X317020Y241250D01*
X317003Y241219D01*
X316981Y241192D01*
X316891Y241024D01*
X316797Y240859D01*
X316785Y240826D01*
X316769Y240795D01*
X316710Y240614D01*
X316646Y240434D01*
X316640Y240400D01*
X316630Y240367D01*
X316604Y240178D01*
X316573Y239990D01*
X316573Y239956D01*
X316568Y239921D01*
X316576Y239730D01*
X316579Y239540D01*
X316585Y239506D01*
X316587Y239471D01*
X316628Y239285D01*
X316664Y239098D01*
X316677Y239065D01*
X316684Y239032D01*
X316758Y238855D01*
X316826Y238678D01*
X316844Y238648D01*
X316858Y238616D01*
X316961Y238456D01*
X317060Y238293D01*
X317083Y238267D01*
X317102Y238238D01*
X317309Y238004D01*
X317936Y237377D01*
X320295Y231682D01*
X320295Y225518D01*
X317923Y219791D01*
X317920Y219789D01*
X317867Y219709D01*
X317806Y219636D01*
X317741Y219523D01*
X317668Y219416D01*
X317630Y219328D01*
X317582Y219245D01*
X317539Y219123D01*
X317486Y219004D01*
X317463Y218911D01*
X317431Y218821D01*
X317410Y218693D01*
X317379Y218566D01*
X317373Y218471D01*
X317358Y218377D01*
X317360Y218247D01*
X317352Y218117D01*
X317363Y218022D01*
X317364Y217927D01*
X317389Y217799D01*
X317404Y217670D01*
X317431Y217578D01*
X317449Y217485D01*
X317496Y217363D01*
X317534Y217239D01*
X317577Y217154D01*
X317612Y217065D01*
X317679Y216953D01*
X317738Y216837D01*
X317796Y216761D01*
X317846Y216680D01*
X317932Y216582D01*
X318010Y216479D01*
X318081Y216414D01*
X318144Y216342D01*
X318246Y216262D01*
X318341Y216173D01*
X318422Y216122D01*
X318497Y216063D01*
X318611Y216002D01*
X318721Y215932D01*
X318810Y215895D01*
X318894Y215850D01*
X319017Y215810D01*
X319138Y215761D01*
X319231Y215741D01*
X319322Y215711D01*
X319451Y215693D01*
X319578Y215666D01*
X319708Y215658D01*
X319768Y215650D01*
X319813Y215651D01*
X319890Y215647D01*
X340510Y215647D01*
X340640Y215658D01*
G37*
G36*
X430336Y237251D02*
X430336Y237251D01*
X430500Y237258D01*
X430560Y237271D01*
X430621Y237277D01*
X430779Y237320D01*
X430940Y237356D01*
X430996Y237379D01*
X431055Y237395D01*
X431203Y237466D01*
X431355Y237529D01*
X431407Y237562D01*
X431462Y237589D01*
X431595Y237684D01*
X431733Y237774D01*
X431791Y237825D01*
X431828Y237851D01*
X431870Y237894D01*
X431968Y237980D01*
X433492Y239504D01*
X433514Y239531D01*
X433540Y239554D01*
X433603Y239634D01*
X433628Y239660D01*
X433655Y239700D01*
X433658Y239703D01*
X433781Y239850D01*
X433798Y239880D01*
X433819Y239907D01*
X433909Y240076D01*
X434004Y240241D01*
X434015Y240273D01*
X434032Y240304D01*
X434091Y240486D01*
X434155Y240665D01*
X434160Y240699D01*
X434171Y240732D01*
X434197Y240920D01*
X434228Y241109D01*
X434228Y241144D01*
X434232Y241178D01*
X434225Y241368D01*
X434222Y241560D01*
X434215Y241594D01*
X434214Y241628D01*
X434173Y241814D01*
X434136Y242002D01*
X434124Y242034D01*
X434117Y242068D01*
X434043Y242244D01*
X433974Y242422D01*
X433956Y242451D01*
X433943Y242483D01*
X433839Y242643D01*
X433740Y242806D01*
X433717Y242832D01*
X433699Y242861D01*
X433492Y243095D01*
X431968Y244620D01*
X431842Y244725D01*
X431721Y244837D01*
X431669Y244869D01*
X431622Y244908D01*
X431480Y244990D01*
X431341Y245078D01*
X431284Y245102D01*
X431231Y245132D01*
X431076Y245187D01*
X430924Y245249D01*
X430865Y245262D01*
X430807Y245283D01*
X430645Y245309D01*
X430484Y245344D01*
X430407Y245349D01*
X430363Y245356D01*
X430302Y245355D01*
X430172Y245363D01*
X366880Y245363D01*
X366750Y245352D01*
X366620Y245350D01*
X366527Y245332D01*
X366431Y245323D01*
X366306Y245289D01*
X366178Y245264D01*
X366089Y245230D01*
X365997Y245205D01*
X365880Y245149D01*
X365758Y245102D01*
X365676Y245052D01*
X365590Y245011D01*
X365485Y244936D01*
X365374Y244868D01*
X365302Y244805D01*
X365224Y244749D01*
X365134Y244656D01*
X365036Y244570D01*
X364977Y244495D01*
X364910Y244427D01*
X364837Y244319D01*
X364757Y244217D01*
X364712Y244133D01*
X364658Y244054D01*
X364606Y243935D01*
X364544Y243820D01*
X364515Y243729D01*
X364476Y243642D01*
X364445Y243515D01*
X364405Y243392D01*
X364392Y243297D01*
X364369Y243204D01*
X364361Y243075D01*
X364344Y242946D01*
X364347Y242850D01*
X364342Y242755D01*
X364357Y242626D01*
X364362Y242496D01*
X364383Y242403D01*
X364394Y242308D01*
X364431Y242183D01*
X364459Y242056D01*
X364496Y241968D01*
X364524Y241877D01*
X364583Y241761D01*
X364633Y241641D01*
X364685Y241561D01*
X364728Y241475D01*
X364807Y241372D01*
X364877Y241263D01*
X364963Y241165D01*
X365000Y241117D01*
X365033Y241086D01*
X365084Y241028D01*
X368132Y237980D01*
X368259Y237875D01*
X368380Y237763D01*
X368431Y237731D01*
X368478Y237692D01*
X368620Y237610D01*
X368759Y237522D01*
X368816Y237498D01*
X368869Y237468D01*
X369024Y237413D01*
X369176Y237351D01*
X369235Y237338D01*
X369293Y237317D01*
X369455Y237291D01*
X369616Y237256D01*
X369693Y237251D01*
X369737Y237244D01*
X369798Y237245D01*
X369928Y237237D01*
X430172Y237237D01*
X430336Y237251D01*
G37*
G36*
X354131Y288048D02*
X354131Y288048D01*
X354260Y288050D01*
X354354Y288068D01*
X354449Y288077D01*
X354575Y288111D01*
X354703Y288136D01*
X354792Y288170D01*
X354884Y288195D01*
X355001Y288251D01*
X355123Y288298D01*
X355204Y288348D01*
X355290Y288389D01*
X355396Y288464D01*
X355507Y288532D01*
X355579Y288595D01*
X355657Y288651D01*
X355747Y288744D01*
X355845Y288830D01*
X355904Y288905D01*
X355971Y288973D01*
X356043Y289081D01*
X356124Y289183D01*
X356169Y289267D01*
X356223Y289346D01*
X356275Y289465D01*
X356337Y289580D01*
X356366Y289671D01*
X356405Y289758D01*
X356436Y289885D01*
X356476Y290008D01*
X356489Y290103D01*
X356512Y290196D01*
X356520Y290325D01*
X356537Y290454D01*
X356533Y290550D01*
X356539Y290645D01*
X356524Y290774D01*
X356519Y290904D01*
X356498Y290997D01*
X356487Y291092D01*
X356449Y291217D01*
X356421Y291344D01*
X356385Y291432D01*
X356357Y291523D01*
X356298Y291639D01*
X356248Y291759D01*
X356196Y291839D01*
X356152Y291925D01*
X356074Y292028D01*
X356003Y292137D01*
X355917Y292235D01*
X355880Y292283D01*
X355848Y292314D01*
X355796Y292372D01*
X355076Y293092D01*
X354453Y294596D01*
X354355Y294783D01*
X354259Y294973D01*
X354251Y294983D01*
X354245Y294995D01*
X354115Y295162D01*
X353987Y295331D01*
X353977Y295340D01*
X353969Y295351D01*
X353812Y295493D01*
X353656Y295637D01*
X353645Y295644D01*
X353635Y295652D01*
X353455Y295764D01*
X353276Y295878D01*
X353264Y295883D01*
X353253Y295890D01*
X353056Y295969D01*
X352859Y296049D01*
X352847Y296052D01*
X352834Y296057D01*
X352627Y296099D01*
X352419Y296144D01*
X352403Y296145D01*
X352393Y296147D01*
X352354Y296148D01*
X352107Y296163D01*
X316080Y296163D01*
X315950Y296152D01*
X315820Y296150D01*
X315727Y296132D01*
X315631Y296123D01*
X315506Y296089D01*
X315378Y296064D01*
X315289Y296030D01*
X315197Y296005D01*
X315080Y295949D01*
X314958Y295902D01*
X314876Y295852D01*
X314790Y295811D01*
X314685Y295736D01*
X314574Y295668D01*
X314502Y295605D01*
X314424Y295549D01*
X314334Y295456D01*
X314236Y295370D01*
X314177Y295295D01*
X314110Y295227D01*
X314037Y295119D01*
X313957Y295017D01*
X313912Y294933D01*
X313858Y294854D01*
X313806Y294735D01*
X313744Y294620D01*
X313715Y294529D01*
X313676Y294442D01*
X313645Y294315D01*
X313605Y294192D01*
X313592Y294097D01*
X313569Y294004D01*
X313561Y293875D01*
X313544Y293746D01*
X313547Y293650D01*
X313542Y293555D01*
X313557Y293426D01*
X313562Y293296D01*
X313583Y293203D01*
X313594Y293108D01*
X313631Y292983D01*
X313659Y292856D01*
X313696Y292768D01*
X313724Y292677D01*
X313783Y292561D01*
X313833Y292441D01*
X313885Y292361D01*
X313928Y292275D01*
X314007Y292172D01*
X314077Y292063D01*
X314163Y291965D01*
X314200Y291917D01*
X314233Y291886D01*
X314284Y291828D01*
X317332Y288780D01*
X317459Y288675D01*
X317580Y288563D01*
X317631Y288531D01*
X317678Y288492D01*
X317820Y288410D01*
X317959Y288322D01*
X318016Y288298D01*
X318069Y288268D01*
X318224Y288213D01*
X318376Y288151D01*
X318435Y288138D01*
X318493Y288117D01*
X318655Y288091D01*
X318816Y288056D01*
X318893Y288051D01*
X318937Y288044D01*
X318998Y288045D01*
X319128Y288037D01*
X354001Y288037D01*
X354131Y288048D01*
G37*
G36*
X290636Y288051D02*
X290636Y288051D01*
X290800Y288058D01*
X290860Y288071D01*
X290921Y288077D01*
X291079Y288120D01*
X291240Y288156D01*
X291296Y288179D01*
X291355Y288195D01*
X291503Y288266D01*
X291655Y288329D01*
X291707Y288362D01*
X291762Y288389D01*
X291895Y288484D01*
X292033Y288574D01*
X292091Y288625D01*
X292128Y288651D01*
X292170Y288694D01*
X292268Y288780D01*
X295316Y291828D01*
X295399Y291928D01*
X295490Y292021D01*
X295543Y292101D01*
X295605Y292174D01*
X295669Y292287D01*
X295742Y292394D01*
X295781Y292482D01*
X295828Y292565D01*
X295871Y292687D01*
X295924Y292806D01*
X295947Y292899D01*
X295979Y292989D01*
X296000Y293117D01*
X296031Y293244D01*
X296037Y293339D01*
X296052Y293433D01*
X296050Y293563D01*
X296058Y293693D01*
X296047Y293788D01*
X296046Y293884D01*
X296021Y294011D01*
X296006Y294140D01*
X295979Y294232D01*
X295961Y294326D01*
X295914Y294447D01*
X295876Y294571D01*
X295833Y294657D01*
X295798Y294746D01*
X295731Y294857D01*
X295672Y294973D01*
X295614Y295049D01*
X295564Y295130D01*
X295478Y295228D01*
X295400Y295331D01*
X295329Y295396D01*
X295266Y295468D01*
X295164Y295548D01*
X295069Y295637D01*
X294988Y295688D01*
X294913Y295747D01*
X294798Y295808D01*
X294689Y295878D01*
X294600Y295915D01*
X294516Y295960D01*
X294392Y296000D01*
X294272Y296049D01*
X294179Y296069D01*
X294088Y296099D01*
X293959Y296117D01*
X293832Y296144D01*
X293702Y296152D01*
X293642Y296160D01*
X293597Y296159D01*
X293520Y296163D01*
X276363Y296163D01*
X276234Y296152D01*
X276104Y296150D01*
X276010Y296132D01*
X275915Y296123D01*
X275789Y296089D01*
X275662Y296064D01*
X275573Y296030D01*
X275481Y296005D01*
X275363Y295949D01*
X275242Y295902D01*
X275160Y295852D01*
X275074Y295811D01*
X274968Y295736D01*
X274857Y295668D01*
X274786Y295605D01*
X274708Y295549D01*
X274617Y295456D01*
X274520Y295370D01*
X274461Y295295D01*
X274394Y295227D01*
X274321Y295119D01*
X274240Y295017D01*
X274195Y294933D01*
X274142Y294854D01*
X274089Y294735D01*
X274028Y294620D01*
X273998Y294529D01*
X273959Y294442D01*
X273929Y294315D01*
X273888Y294192D01*
X273875Y294097D01*
X273853Y294004D01*
X273845Y293875D01*
X273827Y293746D01*
X273831Y293650D01*
X273825Y293555D01*
X273840Y293426D01*
X273845Y293296D01*
X273866Y293203D01*
X273877Y293108D01*
X273915Y292983D01*
X273943Y292856D01*
X273980Y292768D01*
X274007Y292677D01*
X274066Y292561D01*
X274117Y292441D01*
X274169Y292360D01*
X274212Y292275D01*
X274290Y292172D01*
X274361Y292063D01*
X274447Y291965D01*
X274484Y291917D01*
X274517Y291886D01*
X274568Y291828D01*
X277616Y288780D01*
X277742Y288675D01*
X277863Y288563D01*
X277914Y288531D01*
X277961Y288492D01*
X278104Y288410D01*
X278243Y288322D01*
X278299Y288298D01*
X278352Y288268D01*
X278507Y288213D01*
X278659Y288151D01*
X278719Y288138D01*
X278777Y288117D01*
X278939Y288091D01*
X279100Y288056D01*
X279176Y288051D01*
X279221Y288044D01*
X279282Y288045D01*
X279411Y288037D01*
X290472Y288037D01*
X290636Y288051D01*
G37*
%LPC*%
G36*
X396239Y358139D02*
X396239Y358139D01*
X396239Y367285D01*
X396496Y367245D01*
X398283Y366664D01*
X399957Y365811D01*
X401478Y364706D01*
X402806Y363378D01*
X403911Y361857D01*
X404764Y360183D01*
X405345Y358396D01*
X405385Y358139D01*
X396239Y358139D01*
G37*
%LPD*%
%LPC*%
G36*
X447039Y307339D02*
X447039Y307339D01*
X447039Y316485D01*
X447296Y316445D01*
X449083Y315864D01*
X450757Y315011D01*
X452278Y313906D01*
X453606Y312578D01*
X454711Y311057D01*
X455564Y309383D01*
X456145Y307596D01*
X456185Y307339D01*
X447039Y307339D01*
G37*
%LPD*%
%LPC*%
G36*
X205739Y231139D02*
X205739Y231139D01*
X205739Y240285D01*
X205996Y240245D01*
X207783Y239664D01*
X209457Y238811D01*
X210978Y237706D01*
X212306Y236378D01*
X213411Y234857D01*
X214264Y233183D01*
X214845Y231396D01*
X214885Y231139D01*
X205739Y231139D01*
G37*
%LPD*%
%LPC*%
G36*
X396239Y353061D02*
X396239Y353061D01*
X405385Y353061D01*
X405345Y352804D01*
X404764Y351017D01*
X403911Y349343D01*
X402806Y347822D01*
X401478Y346494D01*
X399957Y345389D01*
X398283Y344536D01*
X396496Y343955D01*
X396239Y343915D01*
X396239Y353061D01*
G37*
%LPD*%
%LPC*%
G36*
X205739Y353061D02*
X205739Y353061D01*
X214885Y353061D01*
X214845Y352804D01*
X214264Y351017D01*
X213411Y349343D01*
X212306Y347822D01*
X210978Y346494D01*
X209457Y345389D01*
X207783Y344536D01*
X205996Y343955D01*
X205739Y343915D01*
X205739Y353061D01*
G37*
%LPD*%
%LPC*%
G36*
X432815Y307339D02*
X432815Y307339D01*
X432855Y307596D01*
X433436Y309383D01*
X434289Y311057D01*
X435394Y312578D01*
X436722Y313906D01*
X438243Y315011D01*
X439917Y315864D01*
X441704Y316445D01*
X441961Y316485D01*
X441961Y307339D01*
X432815Y307339D01*
G37*
%LPD*%
%LPC*%
G36*
X191515Y231139D02*
X191515Y231139D01*
X191555Y231396D01*
X192136Y233183D01*
X192989Y234857D01*
X194094Y236378D01*
X195422Y237706D01*
X196943Y238811D01*
X198617Y239664D01*
X200404Y240245D01*
X200661Y240285D01*
X200661Y231139D01*
X191515Y231139D01*
G37*
%LPD*%
%LPC*%
G36*
X205739Y226061D02*
X205739Y226061D01*
X214885Y226061D01*
X214845Y225804D01*
X214264Y224017D01*
X213411Y222343D01*
X212306Y220822D01*
X210978Y219494D01*
X209457Y218389D01*
X207783Y217536D01*
X205996Y216955D01*
X205739Y216915D01*
X205739Y226061D01*
G37*
%LPD*%
%LPC*%
G36*
X200404Y343955D02*
X200404Y343955D01*
X198617Y344536D01*
X196943Y345389D01*
X195422Y346494D01*
X194094Y347822D01*
X192989Y349343D01*
X192136Y351017D01*
X191555Y352804D01*
X191515Y353061D01*
X200661Y353061D01*
X200661Y343915D01*
X200404Y343955D01*
G37*
%LPD*%
%LPC*%
G36*
X200404Y216955D02*
X200404Y216955D01*
X198617Y217536D01*
X196943Y218389D01*
X195422Y219494D01*
X194094Y220822D01*
X192989Y222343D01*
X192136Y224017D01*
X191555Y225804D01*
X191515Y226061D01*
X200661Y226061D01*
X200661Y216915D01*
X200404Y216955D01*
G37*
%LPD*%
%LPC*%
G36*
X396039Y307339D02*
X396039Y307339D01*
X396039Y315326D01*
X397644Y314805D01*
X399158Y314033D01*
X400533Y313035D01*
X401735Y311833D01*
X402733Y310458D01*
X403505Y308944D01*
X404026Y307339D01*
X396039Y307339D01*
G37*
%LPD*%
%LPC*%
G36*
X396039Y302261D02*
X396039Y302261D01*
X404026Y302261D01*
X403505Y300656D01*
X402733Y299142D01*
X401735Y297767D01*
X400533Y296565D01*
X399158Y295567D01*
X397644Y294795D01*
X396039Y294274D01*
X396039Y302261D01*
G37*
%LPD*%
D10*
X266700Y279400D03*
X241300Y279400D03*
X266700Y228600D03*
X241300Y228600D03*
D11*
X444500Y177800D03*
X444500Y203200D03*
X444500Y228600D03*
X444500Y254000D03*
X444500Y279400D03*
X444500Y304800D03*
X393700Y355600D03*
X368300Y355600D03*
X393700Y127000D03*
X393700Y152400D03*
X393700Y177800D03*
X304800Y228600D03*
X304800Y152400D03*
X304800Y279400D03*
X304800Y355600D03*
X203200Y355600D03*
X203200Y279400D03*
X203200Y228600D03*
X203200Y152400D03*
X355600Y152400D03*
X355600Y228600D03*
X159512Y282194D03*
X94488Y282194D03*
X159512Y327406D03*
X94488Y327406D03*
X159512Y180594D03*
X94488Y180594D03*
X159512Y225806D03*
X94488Y225806D03*
D12*
X368500Y304800D03*
D10*
X393500Y304800D03*
D13*
X444500Y304800D02*
X457200Y304800D01*
X469900Y292100D01*
X469900Y215900D01*
X457200Y203200D01*
X444500Y203200D01*
X444500Y342900D02*
X431800Y355600D01*
X444500Y342900D02*
X444500Y304800D01*
X469900Y215900D02*
X469900Y152400D01*
X444500Y127000D01*
X393700Y127000D01*
X342900Y127000D01*
X330200Y139700D01*
X330200Y165100D01*
X304800Y190500D01*
X215900Y190500D02*
X203200Y203200D01*
X203200Y228600D01*
X215900Y190500D02*
X304800Y190500D01*
X203200Y330200D02*
X203200Y355600D01*
X203200Y330200D02*
X177800Y304800D01*
X152400Y304800D01*
X139700Y292100D01*
X139700Y266700D01*
X152400Y254000D01*
X190500Y254000D01*
X203200Y241300D01*
X203200Y228600D01*
X393700Y305000D02*
X393700Y355600D01*
X393700Y305000D02*
X393500Y304800D01*
X393700Y355600D02*
X431800Y355600D01*
X444500Y177800D02*
X393700Y177800D01*
X241300Y228600D02*
X241300Y279400D01*
X159512Y225806D02*
X129794Y225806D01*
X114300Y241300D01*
X114300Y304800D01*
X136906Y327406D01*
X159512Y327406D01*
X241300Y228600D02*
X241300Y215900D01*
X250190Y207010D01*
X377190Y207010D02*
X393700Y190500D01*
X393700Y177800D01*
X377190Y207010D02*
X250190Y207010D01*
X241300Y279400D02*
X241300Y292100D01*
X254000Y304800D01*
X368300Y355600D02*
X368500Y355400D01*
X368500Y304800D01*
X254000Y304800D01*
X190500Y381000D02*
X136906Y327406D01*
X190500Y381000D02*
X342900Y381000D01*
X368300Y355600D01*
X355600Y228600D02*
X444500Y228600D01*
X304800Y228600D02*
X304800Y241300D01*
X317500Y254000D01*
X444500Y254000D01*
X304800Y228600D02*
X292100Y228600D01*
X266700Y228600D01*
X304800Y279400D02*
X444500Y279400D01*
X304800Y279400D02*
X279400Y279400D01*
X266700Y279400D01*
X203200Y279400D02*
X203200Y292100D01*
X279400Y330200D02*
X304800Y355600D01*
X279400Y330200D02*
X241300Y330200D01*
X203200Y292100D01*
X200406Y282194D02*
X159512Y282194D01*
X200406Y282194D02*
X203200Y279400D01*
X266700Y152400D02*
X304800Y152400D01*
X266700Y152400D02*
X203200Y152400D01*
X159512Y170688D02*
X159512Y180594D01*
X177800Y152400D02*
X203200Y152400D01*
X177800Y152400D02*
X159512Y170688D01*
X355600Y152400D02*
X393700Y152400D01*
M02*
