M48
;GenerationSoftware,Autodesk,EAGLE,9.6.2*%
;CreationDate,2020-11-25T15:50:06Z*%
FMAT,2
ICI,OFF
METRIC,TZ,000.000
T3C0.700
T2C0.900
T1C1.016
%
G90
M71
T1
X39370Y17780
X44450Y17780
X44450Y20320
X44450Y22860
X44450Y25400
X44450Y27940
X44450Y30480
X39370Y35560
X36830Y35560
X39370Y12700
X39370Y15240
X15951Y28219
X9449Y28219
X15951Y32741
X9449Y32741
X15951Y18059
X9449Y18059
X15951Y22581
X9449Y22581
T2
X30480Y27940
X30480Y22860
X30480Y15240
X30480Y35560
X20320Y35560
X20320Y27940
X20320Y22860
X20320Y15240
X35560Y15240
X35560Y22860
T3
X26670Y27940
X24130Y27940
X26670Y22860
X24130Y22860
X36850Y30480
X39350Y30480
M30