M48
;GenerationSoftware,Autodesk,EAGLE,9.5.2*%
;CreationDate,2020-08-24T20:59:36Z*%
FMAT,2
ICI,OFF
METRIC,TZ,000.000
T6C0.350
T5C0.650
T4C0.700
T3C0.813
T2C0.900
T1C1.016
%
G90
M71
T1
X40640Y31750
X97790Y76200
X100330Y76200
X102870Y76200
X105410Y76200
X107950Y76200
X110490Y76200
X113030Y76200
X116840Y44450
X116840Y41910
X116840Y36830
X116840Y34290
X116840Y31750
X40640Y44450
X40640Y41910
X40640Y39370
X40640Y36830
X40640Y34290
X82550Y76200
X116840Y39370
X95250Y76200
X92710Y76200
X90170Y76200
X71120Y76200
X68580Y76200
X66040Y76200
X63500Y76200
X60960Y76200
X58420Y76200
X55880Y76200
X53340Y76200
X50800Y76200
X48260Y76200
X80010Y76200
T2
X88900Y53340
X78740Y60960
X78740Y53340
X114300Y60960
X114300Y53340
X109220Y60960
X109220Y53340
X104140Y60960
X104140Y53340
X99060Y60960
X99060Y53340
X93980Y60960
X93980Y53340
X88900Y60960
X83820Y60960
X83820Y53340
X73660Y60960
X73660Y53340
X68580Y60960
X68580Y53340
X63500Y60960
X63500Y53340
X58420Y60960
X58420Y53340
X53340Y60960
X53340Y53340
X48260Y60960
X48260Y53340
X43180Y60960
X43180Y53340
X119380Y60960
X119380Y53340
T3
X69850Y39370
X106680Y46990
X104140Y46990
X91440Y46990
X88900Y46990
X101600Y46990
X99060Y46990
X93980Y46990
X62230Y46990
X88900Y39370
X91440Y39370
X93980Y39370
X96520Y39370
X99060Y39370
X101600Y39370
X104140Y39370
X106680Y39370
X96520Y46990
X71120Y66040
X78740Y66040
X76200Y66040
X114300Y66040
X111760Y66040
X109220Y66040
X106680Y66040
X104140Y66040
X101600Y66040
X99060Y66040
X96520Y66040
X93980Y66040
X91440Y66040
X88900Y66040
X86360Y66040
X83820Y66040
X81280Y66040
X73660Y66040
X68580Y66040
X66040Y66040
X63500Y66040
X60960Y66040
X58420Y66040
X55880Y66040
X53340Y66040
X50800Y66040
X48260Y66040
X45720Y66040
X43180Y66040
X40640Y66040
X119380Y66040
X116840Y66040
X69850Y46990
X67310Y46990
X54610Y46990
X52070Y46990
X64770Y46990
X57150Y46990
X59690Y46990
X52070Y39370
X54610Y39370
X57150Y39370
X59690Y39370
X62230Y39370
X64770Y39370
X67310Y39370
T4
X113030Y41910
X96520Y41910
X69850Y43180
X59690Y43180
T5
X52070Y22860
X49530Y36830
X101600Y36830
X69850Y23495
X69850Y33274
X91440Y31750
X91440Y23495
X106680Y29718
X67310Y29210
X62230Y29210
X111760Y34290
X96520Y34290
X106680Y23495
X52070Y27940
T6
X59690Y43180
M30